<svg xmlns="http://www.w3.org/2000/svg" height="504" width="720" version="1.0" xmlns:xlink="http://www.w3.org/1999/xlink" viewBox="-2100 -1470 4200 2940">
 <defs>
  <path id="D" d="m-31.5 0h33a30 30 0 0 0 30 -30v-10a30 30 0 0 0 -30 -30h-33zm13-13h19a19 19 0 0 0 19 -19v-6a19 19 0 0 0 -19 -19h-19z" fill-rule="evenodd"/>
  <path id="E" d="m0 0h63v-13h-51v-18h40v-12h-40v-14h48v-13h-60z" transform="translate(-31.5)"/>
  <path id="e" d="m-26.25 0h52.5v-12h-40.5v-16h33v-12h-33v-11h39.25v-12h-51.25z"/>
  <g id="G">
   <clipPath id="gcut">
    <path d="m-31.5 0v-70h63v70zm31.5-47v12h31.5v-12z"/>
   </clipPath>
   <use xlink:href="#O" clip-path="url(#gcut)"/>
   <rect y="-35" x="5" width="26.5" height="10"/>
   <rect y="-35" x="21.5" width="10" height="35"/>
  </g>
  <path id="M" d="m-31.5 0h12v-48l14 48h11l14-48v48h12v-70h-17.5l-14 48-14-48h-17.5z"/>
  <path id="O" d="m0 0a31.5 35 0 0 0 0 -70 31.5 35 0 0 0 0 70m0-13a18.5 22 0 0 0 0 -44 18.5 22 0 0 0 0 44" fill-rule="evenodd"/>
  <path id="P" d="m-31.5 0h13v-26h28a22 22 0 0 0 0 -44h-40zm13-39h27a9 9 0 0 0 0 -18h-27z" fill-rule="evenodd"/>
  <g id="R">
   <use xlink:href="#P"/>
   <path d="m28 0c0-10 0-32-15-32h-19c22 0 22 22 22 32"/>
  </g>
  <path id="S" d="m-15.75-22c0 7 6.75 10.5 16.75 10.5s14.74-3.25 14.75-7.75c0-14.25-46.75-5.25-46.5-30.25 0.25-21.5 24.75-20.5 33.75-20.5s26 4 25.75 21.25h-15.25c0-7.5-7-10.25-15-10.25-7.75 0-13.25 1.25-13.25 8.5-0.25 11.75 46.25 4 46.25 28.75 0 18.25-18 21.75-31.5 21.75-11.5 0-31.55-4.5-31.5-22z"/>
  <g id="star" fill="#fff">
   <g id="c">
    <path id="t" d="m0-1v1h0.5" transform="rotate(18 0,-1)"/>
    <use xlink:href="#t" transform="scale(-1,1)"/>
   </g>
   <use xlink:href="#c" transform="rotate(72)"/>
   <use xlink:href="#c" transform="rotate(-72)"/>
   <use xlink:href="#c" transform="rotate(144)"/>
   <use xlink:href="#c" transform="rotate(216)"/>
  </g>
  <use id="star1" xlink:href="#star" transform="scale(31.5)"/>
  <use id="star2" xlink:href="#star" transform="scale(26.25)"/>
  <use id="star3" xlink:href="#star" transform="scale(21)"/>
  <use id="star4" xlink:href="#star" transform="scale(15)"/>
  <use id="star5" xlink:href="#star" transform="scale(10.5)"/>
 </defs>
 <rect y="-50%" x="-50%" fill="#009b3a" width="100%" height="100%"/>
 <path d="m-1743 0 1743 1113 1743-1113-1743-1113z" fill="#fedf00"/>
 <circle r="735" fill="#002776"/>
 <clipPath id="band">
  <circle r="735"/>
 </clipPath>
 <path clip-path="url(#band)" d="m-2205 1470a1785 1785 0 0 1 3570 0h-105a1680 1680 0 1 0 -3360 0z" fill="#fff"/>
 <g transform="translate(-420,1470)" fill="#009b3a">
  <use y="-1697.5" xlink:href="#O" transform="rotate(-7)"/>
  <use y="-1697.5" xlink:href="#R" transform="rotate(-4)"/>
  <use y="-1697.5" xlink:href="#D" transform="rotate(-1)"/>
  <use y="-1697.5" xlink:href="#E" transform="rotate(2)"/>
  <use y="-1697.5" xlink:href="#M" transform="rotate(5)"/>
  <use y="-1697.5" xlink:href="#e" transform="rotate(9.75)"/>
  <use y="-1697.5" xlink:href="#P" transform="rotate(14.5)"/>
  <use y="-1697.5" xlink:href="#R" transform="rotate(17.5)"/>
  <use y="-1697.5" xlink:href="#O" transform="rotate(20.5)"/>
  <use y="-1697.5" xlink:href="#G" transform="rotate(23.5)"/>
  <use y="-1697.5" xlink:href="#R" transform="rotate(26.5)"/>
  <use y="-1697.5" xlink:href="#E" transform="rotate(29.5)"/>
  <use y="-1697.5" xlink:href="#S" transform="rotate(32.5)"/>
  <use y="-1697.5" xlink:href="#S" transform="rotate(35.5)"/>
  <use y="-1697.5" xlink:href="#O" transform="rotate(38.5)"/>
 </g>
 <use y="-132" x="-600" xlink:href="#star1"/>
 <use y="177" x="-535" xlink:href="#star1"/>
 <use y="243" x="-625" xlink:href="#star2"/>
 <use y="132" x="-463" xlink:href="#star4"/>
 <use y="250" x="-382" xlink:href="#star2"/>
 <use y="323" x="-404" xlink:href="#star3"/>
 <use y="-228" x="228" xlink:href="#star1"/>
 <use y="258" x="515" xlink:href="#star1"/>
 <use y="265" x="617" xlink:href="#star3"/>
 <use y="323" x="545" xlink:href="#star2"/>
 <use y="477" x="368" xlink:href="#star2"/>
 <use y="551" x="367" xlink:href="#star3"/>
 <use y="419" x="441" xlink:href="#star3"/>
 <use y="382" x="500" xlink:href="#star2"/>
 <use y="405" x="365" xlink:href="#star3"/>
 <use y="30" x="-280" xlink:href="#star2"/>
 <use y="-37" x="200" xlink:href="#star3"/>
 <use y="330" xlink:href="#star1"/>
 <use y="184" x="85" xlink:href="#star2"/>
 <use y="118" xlink:href="#star2"/>
 <use y="184" x="-74" xlink:href="#star3"/>
 <use y="235" x="-37" xlink:href="#star4"/>
 <use y="495" x="220" xlink:href="#star2"/>
 <use y="430" x="283" xlink:href="#star3"/>
 <use y="412" x="162" xlink:href="#star3"/>
 <use y="390" x="-295" xlink:href="#star1"/>
 <use y="575" xlink:href="#star5"/>
</svg>
