<svg width="600" xmlns="http://www.w3.org/2000/svg" viewBox="0 0 1200 600" height="300">
 <title>Flag of Dominica</title>
 <rect y="0" width="1200" fill="#006b3f" x="0" height="600"/>
 <rect y="325" width="1200" fill="#FFF" x="0" height="50"/>
 <rect y="275" width="1200" x="0" height="50"/>
 <rect y="225" width="1200" fill="#fcd116" x="0" height="50"/>
 <rect y=".000012934" width="50" fill="#fcd116" x="525" height="600"/>
 <rect y=".000012934" width="50" x="575" height="600"/>
 <rect y=".000012934" width="50" fill="#FFF" x="625" height="600"/>
 <path fill="#d41c30" d="m750.88 300.25a150.38 150.38 0 1 1 -300.75 0 150.38 150.38 0 1 1 300.75 0z" transform="matrix(.99748 0 0 .99748 1.0067 .50346)"/>
 <path stroke="#000" d="m595.19 181.59c0-0.22 4.81-13.72 4.81-13.72l4.37 13.5s14.65 0.44 14.65 0.22-11.59 8.85-11.59 8.85 5.47 15.49 5.25 15.05-12.68-9.29-12.68-9.29-12.68 8.85-12.46 8.85 4.81-14.61 4.81-14.61l-11.37-8.63 14.21-0.22z" fill="#006b3f"/>
 <path stroke="#000" d="m604.81 418.75c0 0.22-4.81 13.72-4.81 13.72l-4.37-13.5s-14.65-0.44-14.65-0.22 11.59-8.85 11.59-8.85-5.47-15.49-5.25-15.05 12.68 9.3 12.68 9.3 12.68-8.86 12.46-8.86-4.81 14.61-4.81 14.61l11.37 8.63-14.21 0.22z" fill="#006b3f"/>
 <path stroke="#000" d="m669.72 215.46c0 0.22-4.81 13.72-4.81 13.72l-4.38-13.5s-14.64-0.44-14.64-0.22 11.58-8.85 11.58-8.85-5.46-15.49-5.24-15.05c0.21 0.44 12.68 9.29 12.68 9.29s12.68-8.85 12.46-8.85-4.81 14.61-4.81 14.61l11.37 8.63-14.21 0.22z" fill="#006b3f"/>
 <path stroke="#000" d="m711.81 338.51c0 0.22-4.81 13.72-4.81 13.72l-4.37-13.5s-14.65-0.44-14.65-0.22 11.59-8.85 11.59-8.85-5.47-15.49-5.25-15.05 12.68 9.29 12.68 9.29 12.68-8.85 12.46-8.85c-0.21 0-4.81 14.61-4.81 14.61l11.37 8.63-14.21 0.22z" fill="#006b3f"/>
 <path stroke="#000" d="m497.79 342.03c0 0.22-4.81 13.71-4.81 13.71l-4.37-13.49s-14.65-0.45-14.65-0.22c0 0.22 11.59-8.86 11.59-8.86s-5.47-15.49-5.25-15.04c0.22 0.44 12.68 9.29 12.68 9.29s12.68-8.85 12.46-8.85-4.81 14.6-4.81 14.6l11.37 8.63-14.21 0.23z" fill="#006b3f"/>
 <path stroke="#000" d="m536.65 216.9c0 0.22-4.81 13.72-4.81 13.72l-4.38-13.5s-14.64-0.44-14.64-0.22 11.58-8.85 11.58-8.85-5.46-15.49-5.24-15.05c0.21 0.44 12.68 9.29 12.68 9.29s12.68-8.85 12.46-8.85-4.81 14.61-4.81 14.61l11.37 8.63-14.21 0.22z" fill="#006b3f"/>
 <path stroke="#000" d="m487.32 261.86c0-0.22 4.81-13.72 4.81-13.72l4.37 13.5s14.65 0.44 14.65 0.22-11.59 8.85-11.59 8.85 5.47 15.49 5.25 15.05-12.68-9.29-12.68-9.29-12.68 8.85-12.46 8.85c0.21 0 4.81-14.61 4.81-14.61l-11.37-8.63 14.21-0.22z" fill="#006b3f"/>
 <path stroke="#000" d="m529.14 384.69c0-0.23 4.81-13.72 4.81-13.72l4.37 13.49s14.65 0.45 14.65 0.23c0-0.23-11.58 8.85-11.58 8.85s5.46 15.49 5.24 15.04c-0.22-0.44-12.68-9.29-12.68-9.29s-12.68 8.85-12.46 8.85 4.81-14.6 4.81-14.6l-11.37-8.63 14.21-0.22z" fill="#006b3f"/>
 <path stroke="#000" d="m701.43 258.59c0-0.23 4.81-13.72 4.81-13.72l4.37 13.49s14.65 0.45 14.65 0.23c0-0.23-11.59 8.85-11.59 8.85s5.47 15.49 5.25 15.04c-0.22-0.44-12.68-9.29-12.68-9.29s-12.68 8.85-12.46 8.85 4.81-14.6 4.81-14.6l-11.37-8.63 14.21-0.22z" fill="#006b3f"/>
 <path stroke="#000" d="m662.45 383.53c0-0.22 4.81-13.72 4.81-13.72l4.37 13.5s14.65 0.44 14.65 0.22-11.59 8.85-11.59 8.85 5.47 15.49 5.25 15.05c-0.22-0.45-12.68-9.3-12.68-9.3s-12.68 8.85-12.46 8.85 4.81-14.6 4.81-14.6l-11.37-8.63 14.21-0.22z" fill="#006b3f"/>
 <rect height="0" width=".71601" y="267.32" x="499.08" stroke-width="1pt" fill="#009543"/>
 <rect height="0" width=".71601" y="358.22" x="628.2" stroke-width="1pt" fill="#009543"/>
 <rect height="0" width=".71601" y="502.51" x="590.57" stroke-width="1pt" fill="#009543"/>
 <rect height="0" width=".71601" y="502.51" x="410.04" stroke-width="1pt" fill="#009543"/>
 <rect height="0" width=".71601" y="354.5" x="377.07" stroke-width="1pt" fill="#009543"/>
 <rect transform="scale(-1)" height="0" width=".71601" y="-86.095" x="-772.57" stroke-width="1pt" fill="#009543"/>
 <rect transform="scale(-1)" height="0" width=".71601" y="-227.09" x="-824.41" stroke-width="1pt" fill="#009543"/>
 <rect transform="scale(-1)" height="0" width=".71601" y="-330.24" x="-695.85" stroke-width="1pt" fill="#009543"/>
 <rect transform="scale(-1)" height="0" width=".71601" y="-227.09" x="-575.08" stroke-width="1pt" fill="#009543"/>
 <rect transform="scale(-1)" height="0" width=".71601" y="-88.168" x="-619.65" stroke-width="1pt" fill="#009543"/>
 <g transform="matrix(1.2607 0 0 1.2607 -31.15 -15.985)">
  <g font-size="12px" transform="translate(7.4039 348.73)">
   <g stroke="#000" stroke-width="2.5" transform="matrix(.16350 -.016275 .011822 .18436 429.84 -215.63)" fill="#006b3f">
    <ellipse d="m 711.01062,586.12573 c 0,104.83738 -13.79184,189.82486 -30.80493,189.82486 -17.0131,0 -30.80493,-84.98748 -30.80493,-189.82486 0,-104.83737 13.79183,-189.82486 30.80493,-189.82486 17.01309,0 30.80493,84.98749 30.80493,189.82486 z" rx="30.805" transform="matrix(1.4051 -.0058122 .0081669 .99998 -534.29 263.72)" ry="189.82" cy="586.13" cx="680.21"/>
    <ellipse d="m 711.01062,586.12573 c 0,104.83738 -13.79184,189.82486 -30.80493,189.82486 -17.0131,0 -30.80493,-84.98748 -30.80493,-189.82486 0,-104.83737 13.79183,-189.82486 30.80493,-189.82486 17.01309,0 30.80493,84.98749 30.80493,189.82486 z" rx="30.805" transform="matrix(1.4862 -.0058122 .0086379 .99998 -547.22 267.05)" ry="189.82" cy="586.13" cx="680.21"/>
    <ellipse d="m 711.01062,586.12573 c 0,104.83738 -13.79184,189.82486 -30.80493,189.82486 -17.0131,0 -30.80493,-84.98748 -30.80493,-189.82486 0,-104.83737 13.79183,-189.82486 30.80493,-189.82486 17.01309,0 30.80493,84.98749 30.80493,189.82486 z" rx="30.805" transform="matrix(1.189 -.0064240 .0069111 1.1052 -364.93 214.1)" ry="189.82" cy="586.13" cx="680.21"/>
   </g>
   <g stroke="#000" transform="translate(72.865 -9.797)">
    <path stroke-width="2.5054" fill="#9c4a00" d="m238.34 971.79c29.97-1.67 16.65-16.65 31.64-24.98 14.98-8.32 36.63-3.33 43.29 6.66s1.67 19.99 9.99 19.99c8.33 0 234.56-12.68 242.88-4.35 8.33 8.32 10 24.97 1.67 31.59-8.33 6.7-294.5 14.4-304.49 7.7-9.99-6.6-24.98-34.94-24.98-36.61z" transform="matrix(.20244 .0034863 -.0039367 .21385 340.86 -247.31)"/>
    <path stroke-width="3.8527" fill="#fcd116" d="m529.59 405.46c0 39.98 45.56 27.88 46.81 61.25-0.72 35.41-76.71 3.47-78.64-61.25 1.93-64.72 75.11-97.93 76.71-61.01 1.25 30.68-44.88 21.03-44.88 61.01z" transform="matrix(.14799 .0019514 -.0027548 .11459 340.42 -81.691)"/>
    <path stroke-width="3.8527" fill="#fcd116" d="m529.59 405.46c0 39.98 45.56 27.88 46.81 61.25-0.72 35.41-76.71 3.47-78.64-61.25 1.93-64.72 75.11-97.93 76.71-61.01 1.25 30.68-44.88 21.03-44.88 61.01z" transform="matrix(.14799 .0019514 -.0027548 .11459 344.42 -81.638)"/>
    <path stroke-width="3.8527" fill="#fcd116" d="m529.59 405.46c0 39.98 45.56 27.88 46.81 61.25-0.72 35.41-76.71 3.47-78.64-61.25 1.93-64.72 75.11-97.93 76.71-61.01 1.25 30.68-44.88 21.03-44.88 61.01z" transform="matrix(.14799 .0019514 -.0027548 .11459 348.71 -81.8)"/>
    <path stroke-width="3.8527" fill="#fcd116" d="m529.59 405.46c0 39.98 45.56 27.88 46.81 61.25-0.72 35.41-76.71 3.47-78.64-61.25 1.93-64.72 75.11-97.93 76.71-61.01 1.25 30.68-44.88 21.03-44.88 61.01z" transform="matrix(.14799 .0019514 -.0027548 .11459 352.71 -81.747)"/>
    <ellipse d="m 481.91562,-41.085754 c 0,1.879412 -1.58217,3.402977 -3.53388,3.402977 -1.9517,0 -3.53387,-1.523565 -3.53387,-3.402977 0,-1.879413 1.58217,-3.402977 3.53387,-3.402977 1.95171,0 3.53388,1.523564 3.53388,3.402977 z" rx="3.5339" transform="matrix(1.0945 .016483 -.024286 1.1537 -75.571 4.6776)" ry="3.403" cy="-41.086" cx="478.38" stroke-width=".39908" fill="#9c4a00"/>
   </g>
   <g stroke="#000" stroke-width="2.5" transform="matrix(.99488 -.10102 .10102 .99488 66.684 66.338)">
    <ellipse d="m 447.92003,904.99817 c 0,13.33459 -9.31881,24.14441 -20.81413,24.14441 -11.49533,0 -20.81414,-10.80982 -20.81414,-24.14441 0,-13.33459 9.31881,-24.14441 20.81414,-24.14441 11.49532,0 20.81413,10.80982 20.81413,24.14441 z" rx="20.814" transform="matrix(.16619 -.0080728 .0016875 .31520 369.8 -361.65)" ry="24.144" cy="905" cx="427.11" fill="#006b3f"/>
    <ellipse d="m 447.92003,904.99817 c 0,13.33459 -9.31881,24.14441 -20.81413,24.14441 -11.49533,0 -20.81414,-10.80982 -20.81414,-24.14441 0,-13.33459 9.31881,-24.14441 20.81414,-24.14441 11.49532,0 20.81413,10.80982 20.81413,24.14441 z" rx="20.814" transform="matrix(.16619 -.0080728 .0016875 .31520 364.04 -362.7)" ry="24.144" cy="905" cx="427.11" fill="#006b3f"/>
    <ellipse d="m 447.92003,904.99817 c 0,13.33459 -9.31881,24.14441 -20.81413,24.14441 -11.49533,0 -20.81414,-10.80982 -20.81414,-24.14441 0,-13.33459 9.31881,-24.14441 20.81414,-24.14441 11.49532,0 20.81413,10.80982 20.81413,24.14441 z" rx="20.814" transform="matrix(.16619 -.0080728 .0016875 .31520 360.64 -370.55)" ry="24.144" cy="905" cx="427.11" fill="#006b3f"/>
    <ellipse d="m 447.92003,904.99817 c 0,13.33459 -9.31881,24.14441 -20.81413,24.14441 -11.49533,0 -20.81414,-10.80982 -20.81414,-24.14441 0,-13.33459 9.31881,-24.14441 20.81414,-24.14441 11.49532,0 20.81413,10.80982 20.81413,24.14441 z" rx="20.814" transform="matrix(.15990 -.0089056 .0016237 .34772 369.3 -399.35)" ry="24.144" cy="905" cx="427.11" fill="#006b3f"/>
    <ellipse d="m 447.92003,904.99817 c 0,13.33459 -9.31881,24.14441 -20.81413,24.14441 -11.49533,0 -20.81414,-10.80982 -20.81414,-24.14441 0,-13.33459 9.31881,-24.14441 20.81414,-24.14441 11.49532,0 20.81413,10.80982 20.81413,24.14441 z" rx="20.814" transform="matrix(.15990 -.0083504 .0016237 .32604 377.41 -379.07)" ry="24.144" cy="905" cx="427.11" fill="#009543"/>
    <ellipse d="m 447.92003,904.99817 c 0,13.33459 -9.31881,24.14441 -20.81413,24.14441 -11.49533,0 -20.81414,-10.80982 -20.81414,-24.14441 0,-13.33459 9.31881,-24.14441 20.81414,-24.14441 11.49532,0 20.81413,10.80982 20.81413,24.14441 z" rx="20.814" transform="matrix(.15990 -.0083504 .0016237 .32604 373.22 -382.21)" ry="24.144" cy="905" cx="427.11" fill="#009543"/>
    <ellipse d="m 447.92003,904.99817 c 0,13.33459 -9.31881,24.14441 -20.81413,24.14441 -11.49533,0 -20.81414,-10.80982 -20.81414,-24.14441 0,-13.33459 9.31881,-24.14441 20.81414,-24.14441 11.49532,0 20.81413,10.80982 20.81413,24.14441 z" rx="20.814" transform="matrix(.15990 -.0083504 .0016237 .32604 367.99 -386.66)" ry="24.144" cy="905" cx="427.11" fill="#009543"/>
    <ellipse d="m 447.92003,904.99817 c 0,13.33459 -9.31881,24.14441 -20.81413,24.14441 -11.49533,0 -20.81414,-10.80982 -20.81414,-24.14441 0,-13.33459 9.31881,-24.14441 20.81414,-24.14441 11.49532,0 20.81413,10.80982 20.81413,24.14441 z" rx="20.814" transform="matrix(.15990 -.0083504 .0016237 .32604 363.01 -389.54)" ry="24.144" cy="905" cx="427.11" fill="#006b3f"/>
   </g>
   <path stroke="#000" stroke-width="2.5" fill="#9461c9" d="m173.17 346.35s-54.19 64.89-21.25 208.81c33.96 144.59 178.97 189.78 178.97 189.78s26.49-47.42 1.72-164.04c-39.96-169.84-116.14-234.55-116.14-234.55h-43.3z" transform="matrix(.17689 .032191 -.031422 .18236 461.79 -208.61)"/>
   <g stroke="#000" stroke-width="2.5" transform="matrix(.99696 .077910 -.077910 .99696 60.532 -11.76)" fill="#006b3f">
    <ellipse d="m 447.92003,904.99817 c 0,13.33459 -9.31881,24.14441 -20.81413,24.14441 -11.49533,0 -20.81414,-10.80982 -20.81414,-24.14441 0,-13.33459 9.31881,-24.14441 20.81414,-24.14441 11.49532,0 20.81413,10.80982 20.81413,24.14441 z" rx="20.814" transform="matrix(.16619 -.0080728 .0016875 .31520 369.8 -361.65)" ry="24.144" cy="905" cx="427.11"/>
    <ellipse d="m 447.92003,904.99817 c 0,13.33459 -9.31881,24.14441 -20.81413,24.14441 -11.49533,0 -20.81414,-10.80982 -20.81414,-24.14441 0,-13.33459 9.31881,-24.14441 20.81414,-24.14441 11.49532,0 20.81413,10.80982 20.81413,24.14441 z" rx="20.814" transform="matrix(.16619 -.0080728 .0016875 .31520 364.04 -362.7)" ry="24.144" cy="905" cx="427.11"/>
    <ellipse d="m 447.92003,904.99817 c 0,13.33459 -9.31881,24.14441 -20.81413,24.14441 -11.49533,0 -20.81414,-10.80982 -20.81414,-24.14441 0,-13.33459 9.31881,-24.14441 20.81414,-24.14441 11.49532,0 20.81413,10.80982 20.81413,24.14441 z" rx="20.814" transform="matrix(.16619 -.0080728 .0016875 .31520 360.64 -370.55)" ry="24.144" cy="905" cx="427.11"/>
    <ellipse d="m 447.92003,904.99817 c 0,13.33459 -9.31881,24.14441 -20.81413,24.14441 -11.49533,0 -20.81414,-10.80982 -20.81414,-24.14441 0,-13.33459 9.31881,-24.14441 20.81414,-24.14441 11.49532,0 20.81413,10.80982 20.81413,24.14441 z" rx="20.814" transform="matrix(.15990 -.0089056 .0016237 .34772 369.3 -399.35)" ry="24.144" cy="905" cx="427.11"/>
    <ellipse d="m 447.92003,904.99817 c 0,13.33459 -9.31881,24.14441 -20.81413,24.14441 -11.49533,0 -20.81414,-10.80982 -20.81414,-24.14441 0,-13.33459 9.31881,-24.14441 20.81414,-24.14441 11.49532,0 20.81413,10.80982 20.81413,24.14441 z" rx="20.814" transform="matrix(.15990 -.0083504 .0016237 .32604 377.41 -379.07)" ry="24.144" cy="905" cx="427.11"/>
    <ellipse d="m 447.92003,904.99817 c 0,13.33459 -9.31881,24.14441 -20.81413,24.14441 -11.49533,0 -20.81414,-10.80982 -20.81414,-24.14441 0,-13.33459 9.31881,-24.14441 20.81414,-24.14441 11.49532,0 20.81413,10.80982 20.81413,24.14441 z" rx="20.814" transform="matrix(.15990 -.0083504 .0016237 .32604 373.22 -382.21)" ry="24.144" cy="905" cx="427.11"/>
    <ellipse d="m 447.92003,904.99817 c 0,13.33459 -9.31881,24.14441 -20.81413,24.14441 -11.49533,0 -20.81414,-10.80982 -20.81414,-24.14441 0,-13.33459 9.31881,-24.14441 20.81414,-24.14441 11.49532,0 20.81413,10.80982 20.81413,24.14441 z" rx="20.814" transform="matrix(.15990 -.0083504 .0016237 .32604 367.99 -386.66)" ry="24.144" cy="905" cx="427.11"/>
    <ellipse d="m 447.92003,904.99817 c 0,13.33459 -9.31881,24.14441 -20.81413,24.14441 -11.49533,0 -20.81414,-10.80982 -20.81414,-24.14441 0,-13.33459 9.31881,-24.14441 20.81414,-24.14441 11.49532,0 20.81413,10.80982 20.81413,24.14441 z" rx="20.814" transform="matrix(.15990 -.0083504 .0016237 .32604 363.01 -389.54)" ry="24.144" cy="905" cx="427.11"/>
   </g>
   <ellipse ry="186.49" d="m 682.70337,606.1073 c 0,102.99811 -26.09264,186.49458 -58.27954,186.49458 -32.1869,0 -58.27954,-83.49647 -58.27954,-186.49458 0,-102.99811 26.09264,-186.49458 58.27954,-186.49458 32.1869,0 58.27954,83.49647 58.27954,186.49458 z" rx="58.28" stroke="#000" transform="matrix(.15695 -.060628 .063642 .14840 369.61 -145.05)" cy="606.11" cx="624.42" stroke-width="1pt" fill="#d41c30"/>
   <g stroke="#000" transform="matrix(.99984 .017802 -.017802 .99984 -34.814 -4.6285)">
    <ellipse d="m 228.95542,356.75403 c 0,7.12711 -4.84577,12.90477 -10.82334,12.90477 -5.97757,0 -10.82334,-5.77766 -10.82334,-12.90477 0,-7.12711 4.84577,-12.90477 10.82334,-12.90477 5.97757,0 10.82334,5.77766 10.82334,12.90477 z" rx="10.823" transform="matrix(.39530 0 0 .29270 445.07 -230.53)" ry="12.905" cy="356.75" cx="218.13" stroke-width="1.4635" fill="#009543"/>
    <ellipse d="m 228.95542,356.75403 c 0,7.12711 -4.84577,12.90477 -10.82334,12.90477 -5.97757,0 -10.82334,-5.77766 -10.82334,-12.90477 0,-7.12711 4.84577,-12.90477 10.82334,-12.90477 5.97757,0 10.82334,5.77766 10.82334,12.90477 z" rx="10.823" transform="matrix(.35412 0 0 .29270 457.17 -235.92)" ry="12.905" cy="356.75" cx="218.13" stroke-width="1.5462" fill="#009543"/>
    <ellipse d="m 228.95542,356.75403 c 0,7.12711 -4.84577,12.90477 -10.82334,12.90477 -5.97757,0 -10.82334,-5.77766 -10.82334,-12.90477 0,-7.12711 4.84577,-12.90477 10.82334,-12.90477 5.97757,0 10.82334,5.77766 10.82334,12.90477 z" rx="10.823" transform="matrix(.35412 0 0 .29270 452 -235.92)" ry="12.905" cy="356.75" cx="218.13" stroke-width="1.5462" fill="#009543"/>
    <ellipse d="m 228.95542,356.75403 c 0,7.12711 -4.84577,12.90477 -10.82334,12.90477 -5.97757,0 -10.82334,-5.77766 -10.82334,-12.90477 0,-7.12711 4.84577,-12.90477 10.82334,-12.90477 5.97757,0 10.82334,5.77766 10.82334,12.90477 z" rx="10.823" transform="matrix(.37059 0 0 .27478 449.48 -233.46)" ry="12.905" cy="356.75" cx="218.13" stroke-width="1.56" fill="#006b3f"/>
    <ellipse d="m 228.95542,356.75403 c 0,7.12711 -4.84577,12.90477 -10.82334,12.90477 -5.97757,0 -10.82334,-5.77766 -10.82334,-12.90477 0,-7.12711 4.84577,-12.90477 10.82334,-12.90477 5.97757,0 10.82334,5.77766 10.82334,12.90477 z" rx="10.823" transform="matrix(.37059 0 0 .27478 448.95 -237.93)" ry="12.905" cy="356.75" cx="218.13" stroke-width="1.56" fill="#006b3f"/>
    <ellipse d="m 228.95542,356.75403 c 0,7.12711 -4.84577,12.90477 -10.82334,12.90477 -5.97757,0 -10.82334,-5.77766 -10.82334,-12.90477 0,-7.12711 4.84577,-12.90477 10.82334,-12.90477 5.97757,0 10.82334,5.77766 10.82334,12.90477 z" rx="10.823" transform="matrix(.35412 0 0 .29270 447.01 -238.85)" ry="12.905" cy="356.75" cx="218.13" stroke-width="1.5462" fill="#006b3f"/>
    <ellipse d="m 228.95542,356.75403 c 0,7.12711 -4.84577,12.90477 -10.82334,12.90477 -5.97757,0 -10.82334,-5.77766 -10.82334,-12.90477 0,-7.12711 4.84577,-12.90477 10.82334,-12.90477 5.97757,0 10.82334,5.77766 10.82334,12.90477 z" rx="10.823" transform="matrix(.35412 0 0 .28673 448.08 -241.58)" ry="12.905" cy="356.75" cx="218.13" stroke-width="1.5623" fill="#006b3f"/>
    <ellipse d="m 228.95542,356.75403 c 0,7.12711 -4.84577,12.90477 -10.82334,12.90477 -5.97757,0 -10.82334,-5.77766 -10.82334,-12.90477 0,-7.12711 4.84577,-12.90477 10.82334,-12.90477 5.97757,0 10.82334,5.77766 10.82334,12.90477 z" rx="10.823" transform="matrix(.39530 0 0 .29270 432.77 -243.48)" ry="12.905" cy="356.75" cx="218.13" stroke-width="1.4635" fill="#006b3f"/>
    <ellipse d="m 228.95542,356.75403 c 0,7.12711 -4.84577,12.90477 -10.82334,12.90477 -5.97757,0 -10.82334,-5.77766 -10.82334,-12.90477 0,-7.12711 4.84577,-12.90477 10.82334,-12.90477 5.97757,0 10.82334,5.77766 10.82334,12.90477 z" rx="10.823" transform="matrix(.37059 0 0 .27478 445.92 -243.48)" ry="12.905" cy="356.75" cx="218.13" stroke-width="1.56" fill="#006b3f"/>
    <ellipse d="m 228.95542,356.75403 c 0,7.12711 -4.84577,12.90477 -10.82334,12.90477 -5.97757,0 -10.82334,-5.77766 -10.82334,-12.90477 0,-7.12711 4.84577,-12.90477 10.82334,-12.90477 5.97757,0 10.82334,5.77766 10.82334,12.90477 z" rx="10.823" transform="matrix(.35412 0 0 .28673 444.16 -246.97)" ry="12.905" cy="356.75" cx="218.13" stroke-width="1.5623" fill="#006b3f"/>
    <ellipse d="m 228.95542,356.75403 c 0,7.12711 -4.84577,12.90477 -10.82334,12.90477 -5.97757,0 -10.82334,-5.77766 -10.82334,-12.90477 0,-7.12711 4.84577,-12.90477 10.82334,-12.90477 5.97757,0 10.82334,5.77766 10.82334,12.90477 z" rx="10.823" transform="matrix(.35412 0 0 .29270 436.14 -243.17)" ry="12.905" cy="356.75" cx="218.13" stroke-width="1.5462" fill="#006b3f"/>
    <ellipse d="m 228.95542,356.75403 c 0,7.12711 -4.84577,12.90477 -10.82334,12.90477 -5.97757,0 -10.82334,-5.77766 -10.82334,-12.90477 0,-7.12711 4.84577,-12.90477 10.82334,-12.90477 5.97757,0 10.82334,5.77766 10.82334,12.90477 z" rx="10.823" transform="matrix(.35412 0 0 .28673 437.42 -243.88)" ry="12.905" cy="356.75" cx="218.13" stroke-width="1.5623" fill="#006b3f"/>
    <ellipse d="m 228.95542,356.75403 c 0,7.12711 -4.84577,12.90477 -10.82334,12.90477 -5.97757,0 -10.82334,-5.77766 -10.82334,-12.90477 0,-7.12711 4.84577,-12.90477 10.82334,-12.90477 5.97757,0 10.82334,5.77766 10.82334,12.90477 z" rx="10.823" transform="matrix(.35412 0 0 .28673 438.99 -247.02)" ry="12.905" cy="356.75" cx="218.13" stroke-width="1.5623" fill="#006b3f"/>
   </g>
   <g stroke="#000" transform="matrix(.17961 -.0045211 .0041926 .18512 420.99 -216.8)" fill="#006b3f">
    <ellipse d="m 596.11665,564.479 c 0,113.57383 -30.19291,205.6436 -67.43776,205.6436 -37.24484,0 -67.43776,-92.06977 -67.43776,-205.6436 0,-113.57382 30.19292,-205.6436 67.43776,-205.6436 37.24485,0 67.43776,92.06978 67.43776,205.6436 z" rx="67.438" transform="matrix(.97574 -.30793 .36304 .87448 -245.81 324.4)" ry="205.64" cy="564.48" cx="528.68" stroke-width="2.5449"/>
    <ellipse d="m 541.99991,646.07043 c 0,22.53084 -5.96405,40.79569 -13.32108,40.79569 -7.35702,0 -13.32107,-18.26485 -13.32107,-40.79569 0,-22.53083 5.96405,-40.79568 13.32107,-40.79568 7.35703,0 13.32108,18.26485 13.32108,40.79568 z" rx="13.321" transform="matrix(.91788 -.39685 .39685 .91788 -210.48 304.49)" ry="40.796" cy="646.07" cx="528.68" stroke-width="2.5"/>
    <path stroke-width="1.5327" d="m139.87 643.99c0 57.67-18.75 86.17-34.55 110.31 7.52-32.47 12.9-52.63 12.9-110.31s29.58-85.34 40.38-101.99c-4.18 16.65-18.73 44.31-18.73 101.99z" transform="matrix(1.8828 -.45598 .95342 1.1822 -352.26 -10.02)"/>
    <path stroke-width="1.5327" d="m139.87 643.99c0 57.67-18.75 86.17-34.55 110.31 7.52-32.47 12.9-52.63 12.9-110.31s29.58-85.34 40.38-101.99c-4.18 16.65-18.73 44.31-18.73 101.99z" transform="matrix(1.8828 -.45598 .95342 1.1822 -348.42 44.058)"/>
    <path stroke-width="1.5327" d="m139.87 643.99c0 57.67-18.75 86.17-34.55 110.31 7.52-32.47 12.9-52.63 12.9-110.31s29.58-85.34 40.38-101.99c-4.18 16.65-18.73 44.31-18.73 101.99z" transform="matrix(1.873 -.49468 .97758 1.1623 -361.92 105.78)"/>
    <ellipse d="m 541.99991,646.07043 c 0,22.53084 -5.96405,40.79569 -13.32108,40.79569 -7.35702,0 -13.32107,-18.26485 -13.32107,-40.79569 0,-22.53083 5.96405,-40.79568 13.32107,-40.79568 7.35703,0 13.32108,18.26485 13.32108,40.79568 z" rx="13.321" transform="matrix(1.8105 -.40052 .69907 1.6353 -915.63 -221.01)" ry="40.796" cy="646.07" cx="528.68" stroke-width="1.3887"/>
    <ellipse d="m 541.99991,646.07043 c 0,22.53084 -5.96405,40.79569 -13.32108,40.79569 -7.35702,0 -13.32107,-18.26485 -13.32107,-40.79569 0,-22.53083 5.96405,-40.79568 13.32107,-40.79568 7.35703,0 13.32108,18.26485 13.32108,40.79568 z" rx="13.321" transform="matrix(1.6257 -.23068 .54158 1.3528 -739.49 -91.775)" ry="40.796" cy="646.07" cx="528.68" stroke-width="1.6398"/>
    <ellipse d="m 541.99991,646.07043 c 0,22.53084 -5.96405,40.79569 -13.32108,40.79569 -7.35702,0 -13.32107,-18.26485 -13.32107,-40.79569 0,-22.53083 5.96405,-40.79568 13.32107,-40.79568 7.35703,0 13.32108,18.26485 13.32108,40.79568 z" rx="13.321" transform="matrix(1.6304 -.19719 .51251 1.3635 -750.62 -91.826)" ry="40.796" cy="646.07" cx="528.68" stroke-width="1.6398"/>
    <ellipse d="m 541.99991,646.07043 c 0,22.53084 -5.96405,40.79569 -13.32108,40.79569 -7.35702,0 -13.32107,-18.26485 -13.32107,-40.79569 0,-22.53083 5.96405,-40.79568 13.32107,-40.79568 7.35703,0 13.32108,18.26485 13.32108,40.79568 z" rx="13.321" transform="matrix(1.3144 -.20060 .46889 1.0101 -531.06 47.568)" ry="40.796" cy="646.07" cx="528.68" stroke-width="2.0966"/>
    <ellipse d="m 541.99991,646.07043 c 0,22.53084 -5.96405,40.79569 -13.32108,40.79569 -7.35702,0 -13.32107,-18.26485 -13.32107,-40.79569 0,-22.53083 5.96405,-40.79568 13.32107,-40.79568 7.35703,0 13.32108,18.26485 13.32108,40.79568 z" rx="13.321" transform="matrix(1.3258 -.13044 .40342 1.0327 -517.87 12.211)" ry="40.796" cy="646.07" cx="528.68" stroke-width="2.0966"/>
    <path stroke-width="2.0862" d="m145.7 569.47c0 34.01-6.71 61.61-14.99 61.61-8.27 0-14.98-27.6-14.98-61.61" transform="matrix(1.0254 -.49277 .46438 1.1773 12.767 -14.519)"/>
    <ellipse d="m 541.99991,646.07043 c 0,22.53084 -5.96405,40.79569 -13.32108,40.79569 -7.35702,0 -13.32107,-18.26485 -13.32107,-40.79569 0,-22.53083 5.96405,-40.79568 13.32107,-40.79568 7.35703,0 13.32108,18.26485 13.32108,40.79568 z" rx="13.321" transform="matrix(1.3258 -.13044 .40342 1.0327 -519.53 -34.412)" ry="40.796" cy="646.07" cx="528.68" stroke-width="2.0966"/>
    <ellipse d="m 541.99991,646.07043 c 0,22.53084 -5.96405,40.79569 -13.32108,40.79569 -7.35702,0 -13.32107,-18.26485 -13.32107,-40.79569 0,-22.53083 5.96405,-40.79568 13.32107,-40.79568 7.35703,0 13.32108,18.26485 13.32108,40.79568 z" rx="13.321" transform="matrix(1.3288 -.10511 .37955 1.04 -533.98 -40.121)" ry="40.796" cy="646.07" cx="528.68" stroke-width="2.0966"/>
    <path stroke-width="2.8797" d="m145.7 569.47c0 34.01-6.71 61.61-14.99 61.61-8.27 0-14.98-27.6-14.98-61.61" transform="matrix(.67220 -.47182 .45894 .79910 39.486 143.28)"/>
    <path stroke-width="2.8797" d="m145.7 569.47c0 34.01-6.71 61.61-14.99 61.61-8.27 0-14.98-27.6-14.98-61.61" transform="matrix(.67220 -.47182 .45894 .79910 51.142 125.79)"/>
    <path stroke-width="2.0862" d="m145.7 569.47c0 34.01-6.71 61.61-14.99 61.61-8.27 0-14.98-27.6-14.98-61.61" transform="matrix(.93740 -.64468 0.64 1.0919 -40.198 -10.744)"/>
    <path stroke-width="2.7424" d="m145.7 569.47c0 34.01-6.71 61.61-14.99 61.61-8.27 0-14.98-27.6-14.98-61.61" transform="matrix(.67220 -.52022 .45894 .88108 68.626 71.179)"/>
   </g>
   <g stroke="#000" stroke-width="2.5" transform="matrix(1.1014 .27587 -.26559 .97437 -85.415 -157.9)" fill="#9461c9">
    <path d="m276.27 345.41c-12.28 9.17 0.41 25.14 12.02 30.68 13.06 7.67 86.6 58.18 136.31 12-40.79 0.83-118.66-63.19-148.33-42.68z" transform="matrix(.13441 -.030448 .048511 .21681 448.75 -184.91)"/>
    <path d="m276.27 345.41c-12.28 9.17 0.41 25.14 12.02 30.68 13.06 7.67 86.6 58.18 136.31 12-40.79 0.83-118.66-63.19-148.33-42.68z" transform="matrix(.13441 -.030448 .048511 .21681 446.2 -190.22)"/>
    <path d="m276.27 345.41c-12.28 9.17 0.41 25.14 12.02 30.68 13.06 7.67 86.6 58.18 136.31 12-40.79 0.83-118.66-63.19-148.33-42.68z" transform="matrix(.13441 -.030448 .048511 .21681 443.39 -195.19)"/>
    <path d="m276.27 345.41c-12.28 9.17 0.41 25.14 12.02 30.68 13.06 7.67 86.6 58.18 136.31 12-40.79 0.83-118.66-63.19-148.33-42.68z" transform="matrix(.13441 -.030448 .048511 .21681 438.61 -200.44)"/>
   </g>
   <g transform="matrix(.99984 .017802 -.017802 .99984 12.04 10.605)">
    <path stroke="#000" stroke-width="2.5" fill="#9461c9" d="m211.17 247.3c21.77-12.06 56.61-9.75 79.73 11.17 19.36 16.94 45.31 75.19 70.32 92.83-20.22 0.02-31.3-5.77-42.24-15.18-28.76 15.44-38.12 16.72-63.89 15.63-35.88-1.33-62.46-17.65-68.18-40.6-6.16-21.81 4.93-52.5 24.26-63.85z" transform="matrix(.20883 -.040911 .047305 .18060 407.8 -213.64)"/>
    <ellipse ry="14.986" d="m 301.3886,323.03516 c 0,8.27662 -6.33679,14.98616 -14.15361,14.98616 -7.81683,0 -14.15361,-6.70954 -14.15361,-14.98616 0,-8.27663 6.33678,-14.98616 14.15361,-14.98616 7.81682,0 14.15361,6.70953 14.15361,14.98616 z" rx="14.154" stroke="#000" transform="matrix(.24521 0 0 .13433 401.82 -215.18)" cy="323.04" cx="287.23" stroke-width="2.5" fill="#d41c30"/>
    <ellipse ry="15.895" d="m 227.83175,348.26199 c 0,8.7787 -10.41124,15.89524 -23.25414,15.89524 -12.84291,0 -23.25415,-7.11654 -23.25415,-15.89524 0,-8.77869 10.41124,-15.89523 23.25415,-15.89523 12.8429,0 23.25414,7.11654 23.25414,15.89523 z" rx="23.254" stroke="#000" transform="matrix(.19364 -.075987 .067590 .17273 398.66 -208.06)" cy="348.26" cx="204.58" stroke-width="2.5" fill="#fcd116"/>
    <ellipse d="m 289.73268,333.85846 c 0,3.21868 -2.60926,5.82794 -5.82796,5.82794 -3.21869,0 -5.82795,-2.60926 -5.82795,-5.82794 0,-3.21868 2.60926,-5.82794 5.82795,-5.82794 3.2187,0 5.82796,2.60926 5.82796,5.82794 z" rx="5.828" transform="matrix(.21412 0 0 .18518 411.29 -233.74)" ry="5.8279" cy="333.86" cx="283.9" stroke-width="1pt"/>
    <path stroke="#000" stroke-width="6.5598" fill="#fcd116" d="m516.8 260.29c4.42 18.11-6.68 43.09-33.14 52.61-26.77 13.18-46.08 41.83-55.64 88.02-47.24-103.27-23.1-148.28 20.6-160.35 37.38-14.36 60.42-13.37 68.18 19.72z" transform="matrix(.092289 .00088747 -.0033970 .084817 417.85 -191.49)"/>
    <ellipse d="m 203.69458,362.39093 c 0,2.6011 -2.1086,4.7097 -4.7097,4.7097 -2.6011,0 -4.7097,-2.1086 -4.7097,-4.7097 0,-2.6011 2.1086,-4.7097 4.7097,-4.7097 2.6011,0 4.7097,2.1086 4.7097,4.7097 z" rx="4.7097" transform="matrix(.18697 -.013131 .013988 .19143 418.69 -234.98)" ry="4.7097" cy="362.39" cx="198.98" stroke-width="1pt"/>
   </g>
  </g>
 </g>
</svg>
