<svg xmlns:rdf="http://www.w3.org/1999/02/22-rdf-syntax-ns#" xmlns="http://www.w3.org/2000/svg" version="1.1" xmlns:cc="http://creativecommons.org/ns#" xmlns:dc="http://purl.org/dc/elements/1.1/" viewBox="0 0 800 512">
 <g transform="translate(117.14 -322.93)">
  <g transform="matrix(.8 0 0 .8 -23.429 166.99)">
   <path d="m-117.14 354.93h1e3v320h-1e3z" fill="#e00025"/>
   <path d="m-117.14 194.93h1e3v160h-1e3z" fill="#032ea1"/>
   <path d="m-117.14 674.93h1e3v160h-1e3z" fill="#032ea1"/>
  </g>
  <g stroke="#000" transform="matrix(.8 0 0 .8 -23.429 166.99)">
   <path d="m379.09 389.92s-0.23099-6.58 3.6011-6.6516c3.8321 0.0715 3.6011 6.6516 3.6011 6.6516z" stroke-width="1.2" fill="#fff"/>
   <path d="m537.44 561.93v-32.83c1.0714-4.1642 4.6069-7.8482 7.2651-8.5863v-30.789c-4.0188 0-5.987 5.237-5.987 5.237l-6.8338 30.098v36.618z" stroke-width="1.2" fill="#fff"/>
   <path stroke-linejoin="bevel" d="m477.79 496.58h-9.855v20.887h9.855z" stroke-linecap="square" stroke-width="1.2921" fill="#fff"/>
   <path stroke-linejoin="bevel" d="m292.73 496.58h182.08v70.061h-182.08z" stroke-width="1.2" fill="#fff"/>
   <path d="m228.58 561.81v-32.704c-1.0714-4.1642-4.6069-7.8482-7.2651-8.5863v-28.789l5.987 3.237 6.8338 30.098v36.745z" stroke-width="1.2" fill="#fff"/>
   <path d="m228.58 561.93v-32.83c-1.0714-4.1642-4.6069-7.8482-7.2651-8.5863v-30.789c4.0188 0 5.987 5.237 5.987 5.237l6.8338 30.098v36.618z" stroke-width="1.2" fill="#fff"/>
   <path d="m221.5 570.32c2.8166-1.4348 6.0294-4.7737 7.08-8.5103h308.92c1.0506 3.7366 4.2635 7.0756 7.08 8.5103z" stroke-width="1.2" fill="#fff"/>
   <rect stroke-linejoin="bevel" height="26.393" width="5.7382" stroke-linecap="square" y="535.26" x="465.4" stroke-width="1.2" fill="#fff"/>
   <rect stroke-linejoin="bevel" height="8.1445" width="182.08" y="522.22" x="292.73" stroke-width="1.2" fill="#fff"/>
   <rect stroke-linejoin="bevel" height="7.1824" width="182.08" y="511.18" x="292.73" stroke-width="1.2" fill="#fff"/>
   <rect stroke-linejoin="bevel" height="6.9663" width="182.08" y="500.16" x="292.73" stroke-width="1.1818" fill="#fff"/>
   <path stroke-linejoin="bevel" d="m477.79 496.58h-9.855v20.887h9.855z" stroke-linecap="square" stroke-width="1.2921" fill="#fff"/>
   <path d="m541.43 570.32c-2.7678-1.25-6.7979-4.67-6.7979-8.1112v-40.876l1.8964-3.3741h-69.636l2.7173 3.3741v40.876c0 3.4412-2.7676 6.8612-5.5354 8.1112z" stroke-width="1.2" fill="#fff"/>
   <rect stroke-linejoin="bevel" height="26.393" width="5.7382" stroke-linecap="square" y="535.26" x="340.65" stroke-width="1.2" fill="#fff"/>
   <rect stroke-linejoin="bevel" height="26.393" width="5.7382" stroke-linecap="square" y="535.26" x="419.04" stroke-width="1.2" fill="#fff"/>
   <path d="m428.64 570.32c-3.2425-1.25-7.9637-4.67-7.9637-8.1112v-38.876l4.2216-5.3741-84.441 0.00014 4.0469 5.374v38.876c0 3.4412-3.2422 6.8612-6.4847 8.1112z" stroke-width="1.2" fill="#fff"/>
   <rect stroke-linejoin="bevel" height="26.393" width="5.7382" stroke-linecap="square" y="535.26" x="355.47" stroke-width="1.2" fill="#fff"/>
   <rect stroke-linejoin="bevel" height="26.393" width="5.7382" stroke-linecap="square" y="535.26" x="403.97" stroke-width="1.2" fill="#fff"/>
   <path d="m338.94 473.71v23.438 11.219 9.5938h86.437v-9.5312l0.12533-34.719c-3.5355 1.389-4.1562 4.5938-4.1562 4.5938v18.844h-78v-18.844s-0.87072-3.2048-4.4062-4.5938z" stroke-width="1.2" fill="#fff"/>
   <path d="m413.65 570.32c-2.8248-1.25-8.9789-4.67-8.9789-8.1112v-43.507c0.60402-2.4289 3.8976-3.8623 6.0176-5.3741h-57.316c2.7279 1.4443 5.7686 2.6434 6.8554 5.3741v43.507c0 3.4412-4.8656 6.8612-7.6904 8.1112z" stroke-width="1.2" fill="#fff"/>
   <path d="m421.34 513.79-0.00042-31.339-7.8567-0.00013v-3.0536h-62.143v3.0536l-7.8574-0.00029 0.00028 31.34z" stroke-width="1.2" fill="#fff"/>
   <rect stroke-linejoin="bevel" height="26.393" width="5.7382" stroke-linecap="square" y="535.26" x="294.16" stroke-width="1.2" fill="#fff"/>
   <path d="m224.33 570.32c2.7678-1.25 6.7979-4.67 6.7979-8.1112v-40.876l-1.8964-3.3741h69.636l-2.7173 3.3741v40.876c0 3.4412 2.7676 6.8612 5.5354 8.1112z" stroke-width="1.2" fill="#fff"/>
   <rect stroke-linejoin="bevel" height="23.839" width="6.4286" stroke-linecap="square" y="490.76" x="231.79" stroke-width="1.2" fill="#fff"/>
   <rect stroke-linejoin="bevel" height="5.0219" width="6.4286" stroke-linecap="square" y="485.66" x="231.74" stroke-width="1.2" fill="#fff"/>
   <path d="m287.62 570.32c-2.7678-1.25-6.7979-4.67-6.7979-8.1112v-38.876l5.7904-5.3744-47.341 0.00014 5.7906 5.3742v38.876c0 3.4412-4.0303 6.8612-6.7981 8.1112z" stroke-width="1.2" fill="#fff"/>
   <path d="m280.99 570.32c-2.7678-1.25-6.7979-4.67-6.7979-8.1112v-35.143l3.7904-5.3744h-30.077l3.7902 5.3744v35.143c0 3.4412-4.0303 6.8612-6.7981 8.1112z" stroke-width="1.2" fill="#fff"/>
   <path d="m527.27 570.32c-2.7678-1.25-6.7979-4.67-6.7979-8.1112v-38.876l5.7904-5.3744h-47.341l5.7906 5.3744v38.876c0 3.4412-4.0303 6.8612-6.7981 8.1112z" stroke-width="1.2" fill="#fff"/>
   <path d="m520.64 570.32c-2.7678-1.25-6.7979-4.67-6.7979-8.1112v-35.143l3.7904-5.3744h-30.078l3.7906 5.3744v35.143c0 3.4412-4.0303 6.8612-6.7981 8.1112z" stroke-width="1.2" fill="#fff"/>
   <path d="m255.76 521.69 14.371-0.00007-0.00003 48.629h-14.371z" stroke-width="1.2" fill="#fff"/>
   <path d="m401.27 570.32c-2.7678-1.25-6.7982-4.6698-6.7982-8.111v-37.144l2.2728-3.374h-28.305l2.2727 3.3744v37.143c0 3.4412-4.0303 6.8612-6.7981 8.1112z" stroke-width="1.2" fill="#fff"/>
   <path d="m375.42 521.7 14.345-0.00007v48.603h-14.345z" stroke-width="1.2262" fill="#fff"/>
   <path d="m495.41 521.69h14.371l-0.00003 48.629h-14.371z" stroke-width="1.2" fill="#fff"/>
   <rect stroke-linejoin="bevel" height="10.607" width="28.789" y="503.22" x="368.19" stroke-width="1.2" fill="#fff"/>
   <path stroke-linejoin="bevel" d="m397.3 511.01c0.0344-3.2019 9.34-3.3456 14.131-6.0719h-57.524c4.7909 2.7263 13.881 2.9505 13.881 6.0719l1.9466 6.2108 23.812 0.95642z" stroke-width="1.2" fill="#fff"/>
   <path d="m408.54 477.18c0-7.8378 0.3285-10.857 2.7365-10.857l0.00001 24.929c-5.9059 2.1429-10.121 9.6786-10.121 9.6786l-37.138-0.00043s-4.2147-7.5353-10.121-9.6781v-24.929c2.9696 0 2.9891 3.1547 2.9891 10.857z" stroke-width="1.2" fill="#fff"/>
   <path d="m364.57 481.83c4.7845 5.744 4.3405 15.488 4.2857 21.232h27.749c-0.0548-5.744-0.49876-15.488 4.2857-21.232z" stroke-width="1.2" fill="#fff"/>
   <rect stroke-linejoin="bevel" height="26.393" width="5.7382" stroke-linecap="square" y="535.26" x="236.21" stroke-width="1.2" fill="#fff"/>
   <rect stroke-linejoin="bevel" transform="scale(-1,1)" height="23.839" width="6.4286" stroke-linecap="square" y="490.76" x="-534.16" stroke-width="1.2" fill="#fff"/>
   <path d="m221.5 570.32c2.8166-1.4348 6.0295-4.7734 7.0802-8.51l308.92-0.00033c1.0506 3.7366 4.2635 7.0756 7.08 8.5103z" stroke-width="1.2" fill="none"/>
   <rect stroke-linejoin="bevel" height="26.393" width="5.7382" stroke-linecap="square" y="535.26" x="285.41" stroke-width="1.2" fill="#fff"/>
   <path d="m227.28 482.63 0.00013 35.326h4.0177v-35.415c-1.448-0.73098-2.8076-0.84383-4.0178 0.0893z" stroke-width="1.2" fill="#fff"/>
   <path d="m227.41 505.49c4.9798 2.5463 9.9119 5.492 11.161 12.469h-11.161z" stroke-width="1.2" fill="#fff"/>
   <path stroke-linejoin="bevel" d="m288.16 496.58h9.855v20.887h-9.855z" stroke-linecap="square" stroke-width="1.2921" fill="#fff"/>
   <path d="m296.48 494.91 0.00009 23.051h3.2566v-23.109c-1.0174-0.47697-2.4063-0.55061-3.2566 0.0583z" stroke-width="1.2" fill="#fff"/>
   <path d="m359.1 477.18v-8.8571c-0.12627-4.4288-4.4146-4.749-4.5409-7.9779 0 0-0.55369-4.8426 0.72255-7.0531 1.7352 6.4758 4.8898 5.2862 4.8898 2.6236 0-2.3241-1.7872-4.485-5.4528-10.128-1.1713-1.8033-0.44643-7.4555 1.1951-9.4758 0.63693 4.9135 1.365 7.2637 3.4747 7.2637 1.2868 0 2.3378-0.83867 2.3378-3.2994 0-3.1304-2.12-4.7112-3.162-7.5599-1.2161-3.3244-0.3788-6.7131 1.6415-8.6071 0.86607 4.8468 0.60845 6.7795 2.7609 6.7795 4.3412-1.3734 0.001-7.6586-0.92658-9.2438-1.0672-1.8484 1.4349-5.5357 1.4349-5.5357 1.3793 4.3037 1.8231 4.6543 3.3118 4.2554 1.878-0.50322 1.6358-3.2896-0.65594-5.5412-1.4472-1.4219-1.2937-3.5386 0.25997-5.2384 1.5598 3.049 3.5567 2.8637 3.7489 1.0531l-1.254-7.029h27.607l-1.3709 6.7981c-0.39241 1.9459 2.2337 2.3682 3.8658-0.82227 1.5537 1.6998 1.7072 3.8166 0.25997 5.2384-2.2917 2.2516-2.534 5.038-0.65594 5.5412 1.4886 0.39888 1.9324 0.0483 3.3118-4.2554 0 0 2.2448 2.5133 1.4349 5.5357-0.92758 1.5851-5.2678 7.8703-0.92658 9.2438 2.1524 0 1.8948-1.9326 2.7609-6.7795 2.0203 1.894 2.8576 5.2827 1.6415 8.6071-1.042 2.8487-3.162 4.4296-3.162 7.5599 0 2.4607 1.051 3.2994 2.3378 3.2994 2.1097 0 2.8378-2.3502 3.4747-7.2637 1.6415 2.0203 2.3664 7.6725 1.1951 9.4758-3.6656 5.6433-5.4528 7.8042-5.4528 10.128 0 2.6626 3.1546 3.8522 4.8898-2.6236 1.2762 2.2105 0.72255 7.0531 0.72255 7.0531-0.12626 3.2288-4.4146 3.5491-4.5409 7.9779v8.8571z" stroke-width="1.2" fill="#fff"/>
   <path d="m369.23 412.04h27.406" fill="none"/>
   <path d="m380.17 416.02-3.8023-1.9583v-5.5958c1.5544 0.46742 3.2992 0.65828 3.4698 3.1353 0.54119-3.5358 1.5172-3.3628 3.0502-4.7408 1.533 1.378 2.509 1.205 3.0502 4.7408 0.17058-2.477 1.9154-2.6678 3.4698-3.1353v5.5958l-3.8023 1.9583z" stroke-width="1.2" fill="#fff"/>
   <path d="m365.98 420.59h33.474" fill="none"/>
   <path d="m379.92 425.21-6.3142-4.3405v-5.157c2.2137 0.51255 4.6986 0.72184 4.9416 3.438 0.77075-3.8772 2.1607-5.8806 4.344-7.3917 2.1833 1.5111 3.5732 3.5145 4.344 7.3917 0.24293-2.7162 2.7278-2.9254 4.9416-3.438v5.157l-6.3142 4.3405z" stroke-width="1.2" fill="#fff"/>
   <path d="m362.74 430.98h39.846" fill="none"/>
   <path d="m379.47 439.52-7.2605-6.3766v-7.5761c2.5455 0.75299 5.4028 1.0605 5.6821 5.0508 0.88626-5.696 2.4845-8.6392 4.995-10.859 2.5105 2.22 4.1087 5.1632 4.995 10.859 0.27934-3.9903 3.1366-4.2978 5.6821-5.0508v7.5761l-7.2605 6.3766z" stroke-width="1.2" fill="#fff"/>
   <path d="m392.86 447.99-6.566 9.0815h-7.434l-6.566-9.0815z" stroke-width="1.2" fill="#fff"/>
   <path d="m368.51 463.23c3.2841 1.7951 4.497 5.371 4.8478 12.084h18.479c0.35083-6.7134 1.5636-10.289 4.8478-12.084z" stroke-width="1.2" fill="#fff"/>
   <path d="m359.33 443.67h47.258" fill="none"/>
   <path d="m358.25 458.12h48.681" fill="none"/>
   <path stroke-linejoin="bevel" d="m396.96 447.99v-9.1229c-3.1196 0.8588-5.1407 2.7059-6.0409 5.2123 0-3.0284-3.985-10.012-8.3314-13.487-4.3588 3.8903-8.412 10.208-8.3305 13.487-0.74132-2.387-2.9212-4.3535-6.0409-5.2123v9.1232z" stroke-width="1.2" fill="#fff"/>
   <path stroke-linejoin="bevel" d="m398.34 463.23-0.00033-9.1236c-3.4197 0.8588-5.6352 2.7059-6.622 5.2123 0-3.0284-4.3678-10.012-9.1323-13.487-4.778 3.8903-9.2216 10.208-9.1323 13.487-0.81262-2.387-3.2022-4.3535-6.622-5.2123v9.1232z" stroke-width="1.2" fill="#fff"/>
   <path stroke-linejoin="bevel" d="m402.19 481.95v-10.522c-4.2546 1.098-6.8998 4.2448-8.2386 6.0794 0-5.6982-6.4339-14.384-11.362-17.229-5.0558 2.919-11.362 11.896-11.362 17.229-1.3741-1.8232-3.984-4.9814-8.2386-6.0794v10.522z" stroke-width="1.2" fill="#fff"/>
   <path stroke-linejoin="bevel" d="m399.89 505.31v-10.819c-3.7544 1.4709-4.8766 5.0884-6.058 7.546 0.4637-10.973-6.1783-22.768-11.238-25.76-5.0599 2.9919-11.828 15.039-11.238 25.76-1.2126-2.4424-2.3036-6.0752-6.058-7.546v10.819z" stroke-width="1.2" fill="#fff"/>
   <rect stroke-linejoin="bevel" transform="scale(-1,1)" height="5.0219" width="6.4286" stroke-linecap="square" y="485.66" x="-534.2" stroke-width="1.2" fill="#fff"/>
   <rect stroke-linejoin="bevel" height="26.393" width="5.7382" stroke-linecap="square" y="535.26" x="474.69" stroke-width="1.2" fill="#fff"/>
   <rect stroke-linejoin="bevel" height="26.393" width="5.7382" stroke-linecap="square" y="535.26" x="523.89" stroke-width="1.2" fill="#fff"/>
   <path d="m343.48 505.31h77.857" stroke-width="1.2" fill="none"/>
   <rect height="10.607" width="28.857" y="505.32" x="368.2" stroke-width="1.2" fill="none"/>
   <path d="m397.25 521.69v-10.819c-3.933 0.93518-4.1759 2.3856-5.4266 4.8087 0.4637-6.554-4.1783-14.031-9.2382-17.023-5.0599 2.9919-9.7019 10.469-9.2382 17.023-1.2507-2.4231-1.4043-3.8736-5.4266-4.8087v10.819z" stroke-width="1.2" fill="#fff"/>
   <path d="m299.74 505.49c-4.9798 2.5463-9.9119 5.492-11.161 12.469h11.161z" stroke-width="1.2" fill="#fff"/>
   <path stroke-linejoin="bevel" d="m231.3 490.76h6.9123v27.054h-6.9123z" stroke-linecap="square" stroke-width="1.2" fill="#fff"/>
   <path stroke-linejoin="bevel" d="m231.3 485.66h6.8714v5.0219h-6.8714z" stroke-linecap="square" stroke-width="1.2" fill="#fff"/>
   <path stroke-linejoin="bevel" d="m288.16 496.58h9.855v20.887h-9.855z" stroke-linecap="square" stroke-width="1.2921" fill="#fff"/>
   <path d="m238.12 517.6v-46.305c1.9714 0 2.2755 6.787 6.7984 6.787 2.3546 0 2.1043-2.8113 0.78224-5.1011-1.1707-2.0277-2.6195-4.8282-0.65124-10.045 1.3488 3.9919 4.9791 5.2585 4.3083 2.7551-1.1527-4.3018-4.4712-5.0077-1.9813-11.683 0.86478 5.569 4.4371 5.3236 3.5694 2.0855-0.97733-3.6474-2.997-5.1423-0.50512-10.284 1.3953 5.8388 3.283 5.4963 3.283 1.8738 0-5.3553-0.2056-11.131 6.7243-13.274 0 0 0.40003-4.9092 2.8997-4.9092s2.8997 4.9092 2.8997 4.9092c6.9299 2.1429 6.7243 7.9184 6.7243 13.274 0 3.6225 1.8877 3.9649 3.283-1.8738 2.4919 5.1418 0.47221 6.6366-0.50512 10.284-0.86764 3.2381 2.7046 3.4835 3.5694-2.0855 2.4899 6.6756-0.82863 7.3815-1.9813 11.683-0.67077 2.5034 2.9595 1.2368 4.3083-2.7551 1.9683 5.217 0.51945 8.0176-0.65124 10.045-1.322 2.2898-1.5724 5.1011 0.78224 5.1011 4.5229 0 4.827-6.787 6.7984-6.787v46.305z" stroke-width="1.2" fill="#fff"/>
   <path d="m266.81 451.47 2.9027-2.4396v-3.1244c-1.0619 0.10312-1.6413 0.46839-2.4256 1.4965-0.6671-2.071-2.1339-3.6881-4.0998-4.6923-1.9659 1.0042-3.4327 2.5478-4.0998 4.6188-0.78434-1.0281-1.3637-1.3198-2.4256-1.423v3.1244l2.9027 2.4396z" stroke-width="1.2" fill="#fff"/>
   <path d="m268.37 459.3 1.3491-2.9205v-4.0615c-1.0619 0.10458-1.6413 0.47502-2.4256 1.5177-0.6671-2.1003-2.1339-3.7404-4.0998-4.7588-1.9659 1.0184-3.4327 2.5839-4.0998 4.6842-0.78434-1.0427-1.3637-1.3385-2.4256-1.4431v4.0615l1.3491 2.9205z" stroke-width="1.2" fill="#fff"/>
   <path d="m268.57 469.9 4.3118-5.2583v-5.1891c-1.5774 0.17708-2.438 0.80434-3.6031 2.5698-0.99094-3.5563-3.1698-4.3334-6.09-6.0578-2.9202 1.7244-5.099 2.3752-6.09 5.9315-1.1651-1.7655-2.0257-2.2665-3.6031-2.4436v5.1891l4.3118 5.2583z" stroke-width="1.2" fill="#fff"/>
   <path d="m269.83 480.32s5.0248-4.3836 5.323-6.7898v-5.5476c-1.9474 0.22866-3.7892 0.73335-5.2275 3.013-1.2233-4.5921-3.1337-5.8727-6.7388-8.0993-3.605 2.2266-5.5154 3.5072-6.7388 8.0993-1.4383-2.2797-3.2801-2.7844-5.2275-3.013v5.5476c0.6344 2.4063 5.323 6.7898 5.323 6.7898z" stroke-width="1.2" fill="#fff"/>
   <path d="m271.98 499.55s6.882-7.6182 7.0399-10.586v-8.6494c-2.5755 0.3565-5.0114 2.1278-6.9136 5.6821-1.6179-7.1598-4.1445-12.152-8.9124-15.624-4.7678 3.4716-7.2944 8.4638-8.9124 15.624-1.9023-3.5543-4.3381-5.3256-6.9136-5.6821v8.6494c0.49414 2.9681 7.0399 10.586 7.0399 10.586z" stroke-width="1.2" fill="#fff"/>
   <path d="m271.98 510.92s5.882-5.9868 7.0399-8.5863v-8.6494c-2.5755 0.3565-5.0114 2.1278-6.9136 5.6821-1.6179-7.1598-4.1445-11.259-8.9124-14.731-4.7678 3.4716-7.2944 7.5709-8.9124 14.731-1.9023-3.5543-4.3381-5.3256-6.9136-5.6821v8.6494c1.4941 2.5995 7.0399 8.5863 7.0399 8.5863z" stroke-width="1.2" fill="#fff"/>
   <path d="m274.35 517.54c-1.7172-7.4685-3.1935-13.008-11.461-18.625-8.2672 5.6166-9.743 11.157-11.46 18.625z" stroke-width="1.2" fill="#fff"/>
   <path d="m278.6 521.69v-10.819c-3.7544 1.4709-7.1472 3.6483-8.3979 6.0714-1.398-6.0065-4.0911-8.6525-7.4458-12.286-3.3547 3.6332-5.6013 6.2792-6.9994 12.286-1.2507-2.4231-4.6439-4.6006-8.3983-6.0714l0.00035 10.819z" stroke-width="1.2" fill="#fff"/>
   <path d="m227.28 482.63 0.00013 35.326h4.0177l-0.00031-35.415c-1.448-0.73098-2.8073-0.84383-4.0175 0.0893z" stroke-width="1.2" fill="#fff"/>
   <path d="m227.41 505.49c4.9798 2.5463 9.9119 5.492 11.161 12.469h-11.161z" stroke-width="1.2" fill="#fff"/>
   <path d="m296.48 494.91 0.00009 23.051h3.2566v-23.109c-1.0174-0.47697-2.4063-0.55061-3.2566 0.0583z" stroke-width="1.2" fill="#fff"/>
   <path d="m299.74 505.31c-4.9798 2.5463-9.9119 5.492-11.161 12.469h11.161z" stroke-width="1.2" fill="#fff"/>
   <path d="m538.66 482.63-0.00013 35.326h-4.0177v-35.415c1.448-0.73098 2.8076-0.84383 4.0178 0.0893z" stroke-width="1.2" fill="#fff"/>
   <path d="m477.61 517.6v-46.305c1.9714 0 2.2755 6.787 6.7984 6.787 2.3546 0 2.1043-2.8113 0.78224-5.1011-1.1707-2.0277-2.6195-4.8282-0.65124-10.045 1.3488 3.9919 4.9791 5.2585 4.3083 2.7551-1.1527-4.3018-4.4712-5.0077-1.9813-11.683 0.86478 5.569 4.4371 5.3236 3.5694 2.0855-0.97733-3.6474-2.997-5.1423-0.50512-10.284 1.3953 5.8388 3.283 5.4963 3.283 1.8738 0-5.3553-0.2056-11.131 6.7243-13.274 0 0 0.40003-4.9092 2.8997-4.9092s2.8997 4.9092 2.8997 4.9092c6.9299 2.1429 6.7243 7.9184 6.7243 13.274 0 3.6225 1.8877 3.9649 3.283-1.8738 2.4919 5.1418 0.47221 6.6366-0.50512 10.284-0.86764 3.2381 2.7046 3.4835 3.5694-2.0855 2.4899 6.6756-0.82863 7.3815-1.9813 11.683-0.67077 2.5034 2.9595 1.2368 4.3083-2.7551 1.9683 5.217 0.51945 8.0176-0.65124 10.045-1.322 2.2898-1.5724 5.1011 0.78224 5.1011 4.5229 0 4.827-6.787 6.7984-6.787v46.305z" stroke-width="1.2" fill="#fff"/>
   <path d="m506.31 451.47 2.9027-2.4396v-3.1244c-1.0619 0.10312-1.6413 0.46839-2.4256 1.4965-0.6671-2.071-2.1339-3.6881-4.0998-4.6923-1.9659 1.0042-3.4327 2.5478-4.0998 4.6188-0.78434-1.0281-1.3637-1.3198-2.4256-1.423v3.1244l2.9027 2.4396z" stroke-width="1.2" fill="#fff"/>
   <path d="m507.86 459.3 1.3491-2.9205v-4.0615c-1.0619 0.10458-1.6413 0.47502-2.4256 1.5177-0.6671-2.1003-2.1339-3.7404-4.0998-4.7588-1.9659 1.0184-3.4327 2.5839-4.0998 4.6842-0.78434-1.0427-1.3637-1.3385-2.4256-1.4431v4.0615l1.3491 2.9205z" stroke-width="1.2" fill="#fff"/>
   <path d="m508.07 469.9 4.3118-5.2583v-5.1891c-1.5774 0.17708-2.438 0.80434-3.6031 2.5698-0.99094-3.5563-3.1698-4.3334-6.09-6.0578-2.9202 1.7244-5.099 2.3752-6.09 5.9315-1.1651-1.7655-2.0257-2.2665-3.6031-2.4436v5.1891l4.3118 5.2583z" stroke-width="1.2" fill="#fff"/>
   <path d="m509.33 480.32s5.0248-4.3836 5.323-6.7898v-5.5476c-1.9474 0.22866-3.7892 0.73335-5.2275 3.013-1.2233-4.5921-3.1337-5.8727-6.7388-8.0993-3.605 2.2266-5.5154 3.5072-6.7388 8.0993-1.4383-2.2797-3.2801-2.7844-5.2275-3.013v5.5476c0.6344 2.4063 5.323 6.7898 5.323 6.7898z" stroke-width="1.2" fill="#fff"/>
   <path d="m511.47 499.55s6.882-7.6182 7.0399-10.586v-8.6494c-2.5755 0.3565-5.0114 2.1278-6.9136 5.6821-1.6179-7.1598-4.1445-12.152-8.9124-15.624-4.7678 3.4716-7.2944 8.4638-8.9124 15.624-1.9023-3.5543-4.3381-5.3256-6.9136-5.6821v8.6494c0.49414 2.9681 7.0399 10.586 7.0399 10.586z" stroke-width="1.2" fill="#fff"/>
   <path d="m511.47 510.92s5.882-5.9868 7.0399-8.5863v-8.6494c-2.5755 0.3565-5.0114 2.1278-6.9136 5.6821-1.6179-7.1598-4.1445-11.259-8.9124-14.731-4.7678 3.4716-7.2944 7.5709-8.9124 14.731-1.9023-3.5543-4.3381-5.3256-6.9136-5.6821v8.6494c1.4941 2.5995 7.0399 8.5863 7.0399 8.5863z" stroke-width="1.2" fill="#fff"/>
   <path d="m513.84 517.54c-1.7172-7.4685-3.1935-13.008-11.461-18.625-8.2672 5.6166-9.743 11.157-11.46 18.625z" stroke-width="1.2" fill="#fff"/>
   <path d="m538.53 505.49c-4.9798 2.5463-9.3762 5.492-10.625 12.469h10.625z" stroke-width="1.2" fill="#fff"/>
   <path d="m469.47 494.91-0.00009 23.051h-3.2566v-23.109c1.0174-0.47697 2.4063-0.55061 3.2566 0.0583z" stroke-width="1.2" fill="#fff"/>
   <path d="m466.21 505.49c4.9798 2.5463 9.9119 5.492 11.161 12.469h-11.161z" stroke-width="1.2" fill="#fff"/>
   <path d="m469.47 494.91-0.00009 23.051h-3.2566v-23.109c1.0174-0.47697 2.4063-0.55061 3.2566 0.0583z" stroke-width="1.2" fill="#fff"/>
   <path d="m466.21 505.49c4.9798 2.5463 9.9119 5.492 11.161 12.469h-11.161z" stroke-width="1.2" fill="#fff"/>
   <path d="m411.28 473.97c0-8.9895 7.762-10 7.762-10v8c-2.9544-0.12627-4.3788 2.5249-4.3788 6.471s2.3788 4.009 2.3788 4.009v22.704h-5.762z" stroke-width="1.2" fill="#fff"/>
   <path d="m353.93 473.97c0-8.9895-7.762-10-7.762-10v8c2.9544-0.12627 4.3788 2.5249 4.3788 6.471s-2.3788 4.009-2.3788 4.009v22.704h5.762z" stroke-width="1.2" fill="#fff"/>
   <path d="m518.23 521.56v-10.819c-3.7544 1.4709-7.1472 3.6483-8.3979 6.0714-1.398-6.0065-4.0911-8.6525-7.4458-12.286-3.3547 3.6332-5.6013 6.2792-6.9994 12.286-1.2507-2.4231-4.6439-4.6006-8.3983-6.0714l0.00035 10.819z" stroke-width="1.2" fill="#fff"/>
   <path d="m186.6 609.85h392.52l0.00028 20.049-392.52 0.00003z" stroke-width="1.2" fill="#fff"/>
   <path d="m176.25 629.86h413.21l0.0003 20.02-413.21 0.00003z" stroke-width="1.2" fill="#fff"/>
   <path d="m207.21 579.85h351.3l0.00025 12.975-351.3 0.00001z" stroke-width="1.2" fill="#fff"/>
   <path d="m196.94 592.74h371.84l0.00027 16.995-371.84 0.00001z" stroke-width="1.2" fill="#fff"/>
   <path d="m213.35 569.88h339.02l0.00025 9.8783h-339.02z" stroke-width="1.2" fill="#fff"/>
   <g>
    <path d="m250.14 569.93h25.609v79.896h-25.609z" stroke-width="1.3057" fill="#fff"/>
    <path d="m255.81 569.93h14.267l-0.00003 79.898h-14.267z" stroke-width="1.3037" fill="#fff"/>
    <path d="m255.55 579.79h14.79" stroke-width="1.2" fill="none"/>
    <path d="m255.55 589.79h14.79" stroke-width="1.2" fill="none"/>
    <path d="m255.55 599.79h14.79" stroke-width="1.2" fill="none"/>
    <path d="m255.55 609.79h14.79" stroke-width="1.2" fill="none"/>
    <path d="m255.55 619.79h14.79" stroke-width="1.2" fill="none"/>
    <path d="m255.55 629.79h14.79" stroke-width="1.2" fill="none"/>
    <path d="m255.55 639.79h14.79" stroke-width="1.2" fill="none"/>
   </g>
   <path d="m369.61 569.93 25.609-0.00015v79.896l-25.609-0.00015z" stroke-width="1.3057" fill="#fff"/>
   <path d="m375.46 569.93h14.267l-0.00003 79.898h-14.267z" stroke-width="1.3037" fill="#fff"/>
   <path d="m375.53 579.77h13.771" stroke-width="1.2" fill="none"/>
   <path d="m375.53 589.78h13.771" stroke-width="1.2" fill="none"/>
   <path d="m375.53 599.78h13.771" stroke-width="1.2" fill="none"/>
   <path d="m375.53 609.79h13.771" stroke-width="1.2" fill="none"/>
   <path d="m375.53 619.8h13.771" stroke-width="1.2" fill="none"/>
   <path d="m375.53 629.8h13.771" stroke-width="1.2" fill="none"/>
   <path d="m375.53 639.81h13.771" stroke-width="1.2" fill="none"/>
   <g transform="translate(239.64)">
    <path d="m250.14 569.93h25.609v79.896h-25.609z" stroke-width="1.3057" fill="#fff"/>
    <path d="m255.81 569.93h14.267l-0.00003 79.898h-14.267z" stroke-width="1.3037" fill="#fff"/>
    <path d="m255.55 579.79h14.79" stroke-width="1.2" fill="none"/>
    <path d="m255.55 589.79h14.79" stroke-width="1.2" fill="none"/>
    <path d="m255.55 599.79h14.79" stroke-width="1.2" fill="none"/>
    <path d="m255.55 609.79h14.79" stroke-width="1.2" fill="none"/>
    <path d="m255.55 619.79h14.79" stroke-width="1.2" fill="none"/>
    <path d="m255.55 629.79h14.79" stroke-width="1.2" fill="none"/>
    <path d="m255.55 639.79h14.79" stroke-width="1.2" fill="none"/>
   </g>
   <rect stroke-linejoin="bevel" height="26.393" width="5.7382" stroke-linecap="square" y="535.26" x="305.41" stroke-width="1.2" fill="#fff"/>
   <rect stroke-linejoin="bevel" height="26.393" width="5.7382" stroke-linecap="square" y="535.26" x="317.41" stroke-width="1.2" fill="#fff"/>
   <rect stroke-linejoin="bevel" height="26.393" width="5.7382" stroke-linecap="square" y="535.26" x="329.41" stroke-width="1.2" fill="#fff"/>
   <rect stroke-linejoin="bevel" height="26.393" width="5.7382" stroke-linecap="square" y="535.26" x="429.91" stroke-width="1.2" fill="#fff"/>
   <rect stroke-linejoin="bevel" height="26.393" width="5.7382" stroke-linecap="square" y="535.26" x="441.91" stroke-width="1.2" fill="#fff"/>
   <rect stroke-linejoin="bevel" height="26.393" width="5.7382" stroke-linecap="square" y="535.26" x="453.91" stroke-width="1.2" fill="#fff"/>
   <path d="m370.66 403.55-0.63553-5h25.341l-0.63553 5z" stroke-width="1.2" fill="#fff"/>
   <path d="m372.35 398.45-0.54588-4.1097h21.767l-0.54588 4.1097z" stroke-width="1.2" fill="#fff"/>
   <path d="m375.81 394.19-0.36348-4.1097h14.494l-0.36348 4.1097z" stroke-width="1.2" fill="#fff"/>
  </g>
 </g>
</svg>
