<svg xmlns="http://www.w3.org/2000/svg" viewBox="0 0 900 600">
 <rect width="900" fill="#c1272d" height="600"/>
 <path fill="#006233" d="m449.97 200-22.44 69.28-72.78 0.06 58.84 42.82-22.43 69.34c15.16-11.12 42.62-31.05 58.84-42.81l58.91 42.78-22.5-69.28 58.84-42.88h-72.72l-22.56-69.31zm0 47.44 7.15 21.84-14.24 0.03 7.09-21.87zm-27.22 36.5-4.37 13.59-18.6-13.53 22.97-0.06zm15.37 0h23.76l7.34 22.62-19.22 14-19.22-14 7.34-22.62zm39.13 0h22.94l-18.53 13.59-4.41-13.59zm-51.22 37.31 11.56 8.34-18.59 13.53 7.03-21.87zm48 0 7.03 21.87-18.56-13.5v-0.03l11.53-8.34z"/>
</svg>
