<svg width="900" xmlns="http://www.w3.org/2000/svg" viewBox="0 0 90 60" height="600">
 <path d="m90 0h-90v60z" fill="#003580"/>
 <path d="m0 60h90v-60z" fill="#009543"/>
 <path d="m0 48l72-48h18v12l-72 48h-18z" fill="#fff"/>
 <path d="m0 51l76.5-51h13.5v9l-76.5 51h-13.5z" fill="#d21034"/>
 <path d="m18 6.5 1.553 4.204 3.447-2.8643-0.757 4.4173 4.417-0.757-2.864 3.447 4.204 1.553-4.204 1.553 2.864 3.447-4.417-0.757 0.757 4.417-3.447-2.864-1.553 4.204-1.553-4.204-3.447 2.864 0.757-4.417-4.4173 0.757 2.8643-3.447-4.204-1.553 4.204-1.553-2.8643-3.447 4.4173 0.757-0.757-4.4173 3.447 2.8643z" fill="#ffce00"/>
 <circle cy="16.5" cx="18" r="5.5" stroke="#003580" fill="#ffce00"/>
</svg>
