<svg xmlns:rdf="http://www.w3.org/1999/02/22-rdf-syntax-ns#" xmlns="http://www.w3.org/2000/svg" height="500" width="500" version="1.1" xmlns:cc="http://creativecommons.org/ns#" xmlns:xlink="http://www.w3.org/1999/xlink" viewBox="0 0 2500 2500" xmlns:dc="http://purl.org/dc/elements/1.1/">
 <title>Flag of Vatican City</title>
 <rect fill-rule="evenodd" transform="scale(-1,1)" height="0" width="0" y="1226" x="-1878.9" stroke-width="1pt" fill="#c0c0c0"/>
 <rect fill-rule="evenodd" height="0" width="0" y="1339.3" x="1874.6" stroke-width="1pt" fill="#c0c0c0"/>
 <rect fill-rule="evenodd" height="2500" width="2500" y="0" x="0" stroke-width="1pt" fill="#fff"/>
 <path stroke-linejoin="round" d="m1944.3 678.07s-4.8005-17.081-8.8699-24.893c-2.433-4.6707-5.832-8.7908-9.156-12.876-3.9828-4.8944-8.0012-9.8699-12.876-13.877-4.4164-3.6306-9.5357-6.3456-14.592-9.013-5.4329-2.8658-10.892-5.9562-16.844-7.472-6.1395-1.5633-18.944-1.541-18.944-1.541s-12.787-0.026-18.944 1.541c-5.9526 1.5151-11.412 4.6061-16.844 7.472-5.0567 2.6674-10.176 5.3824-14.592 9.013-4.8745 4.0071-8.8929 8.9827-12.876 13.877-3.324 4.0848-6.723 8.2049-9.156 12.876-4.0694 7.8123-8.8699 24.893-8.8699 24.893l81.282-3.1474z" stroke="#000" stroke-linecap="round" stroke-width="3.2046" fill="#fff"/>
 <path stroke-linejoin="round" d="m1870.3 608.25c3.8943 0.2869 8.6316 4.2676 11.588 1.7168 1.336-1.1526 0.6752-3.6632 0-5.2933-1.5743-3.8007-8.4131-4.6249-8.7268-8.7268-0.2706-3.5378 5.1908-5.2117 6.2948-8.5838 0.5489-1.6769 0.6808-3.6655 0-5.2933-2.7515-6.5777-14.493-6.9511-16.527-13.681-0.9011-2.9815 5.9324-6.4934 6.7999-6.8689 4.3393-1.8787 9.7036 2.6587 13.988 0.7993 2.899-1.2583 6.1252-4.1237 6.0696-7.2836-0.06-3.4383-3.7256-6.3164-6.8789-7.6882-6.1079-2.657-16.22 5.9042-19.978 0.40464-3.4586-5.0617 8.643-11.081 7.0297-16.995-0.7665-2.81-6.9773-5.2604-6.9773-5.2604s-6.2021 2.4382-6.9773 5.2604c-1.6239 5.9115 10.488 11.933 7.0297 16.995-3.7578 5.4996-13.87-3.0617-19.978-0.40464-3.1533 1.3718-6.8184 4.2499-6.8789 7.6882-0.056 3.1599 3.1706 6.0253 6.0696 7.2836 4.2841 1.8594 9.6484-2.678 13.988-0.7993 0.8674 0.37558 7.701 3.8874 6.7999 6.8689-2.034 6.7294-13.776 7.1028-16.527 13.681-0.6809 1.6278-0.5489 3.6164 0 5.2933 1.1039 3.3721 6.5654 5.0459 6.2948 8.5838-0.3137 4.1019-7.1525 4.9261-8.7268 8.7268-0.6753 1.6301-1.336 4.1407 0 5.2933 2.9565 2.5508 7.6937-1.4298 11.588-1.7168 2.433-0.17924 7.3187 0 7.3187 0s4.8683-0.18054 7.3186 0z" stroke="#000" stroke-linecap="round" stroke-width="3.2046" fill="#ce9d09"/>
 <rect fill-rule="evenodd" height="2500" width="1250" y=".00024414" x="0" stroke-width="1pt" fill="#ffe000"/>
 <rect fill-rule="evenodd" transform="scale(-1,1)" height="0" width="0" y="1690.7" x="-1301.5" stroke-width="1pt" fill="#c0c0c0"/>
 <rect fill-rule="evenodd" height="0" width="0" y="1804" x="1297.2" stroke-width="1pt" fill="#c0c0c0"/>
 <g fill-rule="evenodd" transform="matrix(26.409 0 0 27.77 -38569 -6880)">
  <defs>
   <polygon id="XMLID_5_" points="529.12 342.16 529.12 440.22 469.76 440.22 469.76 342.93 469.76 342.93"/>
  </defs>
  <clipPath>
   <use xlink:href="#XMLID_5_" height="1063.9662" width="602.03467" y="0" x="0"/>
  </clipPath>
 </g>
 <g fill-rule="evenodd" transform="matrix(17.584 0 0 18.491 -37125 -12742)" stroke="#000" stroke-width="1.3629">
  <g transform="matrix(1.6598 0 0 1.6598 -197.8 53.471)">
   <clipPath>
    <polygon points="529.12 342.16 529.12 440.22 469.76 440.22 469.76 342.93 469.76 342.93"/>
   </clipPath>
  </g>
  <g transform="matrix(1.6598 0 0 1.6598 -115.31 53.471)">
   <clipPath>
    <polygon points="529.12 342.16 529.12 440.22 469.76 440.22 469.76 342.93 469.76 342.93"/>
   </clipPath>
  </g>
 </g>
 <g fill-rule="evenodd" transform="matrix(17.351 0 0 17.351 -30143 -2835.4)" stroke="#000" stroke-width="1.3629">
  <clipPath>
   <polygon points="529.12 342.16 529.12 440.22 469.76 440.22 469.76 342.93 469.76 342.93"/>
  </clipPath>
 </g>
 <g fill-rule="evenodd" transform="matrix(17.351 0 0 17.351 -29280 -2835.4)" stroke="#000" stroke-width="1.3629">
  <clipPath>
   <polygon points="529.12 342.16 529.12 440.22 469.76 440.22 469.76 342.93 469.76 342.93"/>
  </clipPath>
 </g>
 <g fill-rule="evenodd" transform="matrix(24.866 0 0 24.866 -28989 4039.8)">
  <clipPath>
   <use xlink:href="#XMLID_5_" height="1063.9662" width="602.03467" y="0" x="0"/>
  </clipPath>
 </g>
 <g fill-rule="evenodd" transform="matrix(16.557 0 0 16.557 -27629 -1209.4)" stroke="#000" stroke-width="1.3629">
  <g transform="matrix(1.6598 0 0 1.6598 -197.8 53.471)">
   <clipPath>
    <polygon points="529.12 342.16 529.12 440.22 469.76 440.22 469.76 342.93 469.76 342.93"/>
   </clipPath>
  </g>
  <g transform="matrix(1.6598 0 0 1.6598 -115.31 53.471)">
   <clipPath>
    <polygon points="529.12 342.16 529.12 440.22 469.76 440.22 469.76 342.93 469.76 342.93"/>
   </clipPath>
  </g>
 </g>
 <g fill-rule="evenodd" transform="matrix(11.226 0 0 11.226 -16194 4331.1)" stroke="#000" stroke-width="1.3629">
  <clipPath>
   <polygon points="529.12 342.16 529.12 440.22 469.76 440.22 469.76 342.93 469.76 342.93"/>
  </clipPath>
 </g>
 <g fill-rule="evenodd" transform="matrix(11.226 0 0 11.226 -15636 4331.1)" stroke="#000" stroke-width="1.3629">
  <clipPath>
   <polygon points="529.12 342.16 529.12 440.22 469.76 440.22 469.76 342.93 469.76 342.93"/>
  </clipPath>
 </g>
 <g fill-rule="evenodd" transform="matrix(12.576 0 0 12.576 -15743 452.33)" stroke="#000" stroke-width="1.3629">
  <clipPath>
   <polygon points="529.12 342.16 529.12 440.22 469.76 440.22 469.76 342.93 469.76 342.93"/>
  </clipPath>
 </g>
 <g fill-rule="evenodd" transform="matrix(12.576 0 0 12.576 -15118 452.33)" stroke="#000" stroke-width="1.3629">
  <clipPath>
   <polygon points="529.12 342.16 529.12 440.22 469.76 440.22 469.76 342.93 469.76 342.93"/>
  </clipPath>
 </g>
 <rect fill-rule="evenodd" transform="scale(-1,1)" height="0" width="0" y="1709.4" x="-1269.6" stroke-width="1pt" fill="#c0c0c0"/>
 <rect fill-rule="evenodd" height="0" width="0" y="1822.7" x="1265.3" stroke-width="1pt" fill="#c0c0c0"/>
 <g fill-rule="evenodd" transform="matrix(29.186 0 0 30.69 -40635 -11735)" stroke="#000" stroke-width="1.3629">
  <clipPath>
   <polygon points="529.12 342.16 529.12 440.22 469.76 440.22 469.76 342.93 469.76 342.93"/>
  </clipPath>
 </g>
 <g fill-rule="evenodd" transform="matrix(29.186 0 0 30.69 -39185 -11735)" stroke="#000" stroke-width="1.3629">
  <clipPath>
   <polygon points="529.12 342.16 529.12 440.22 469.76 440.22 469.76 342.93 469.76 342.93"/>
  </clipPath>
 </g>
 <g fill-rule="evenodd" transform="matrix(27.481 0 0 27.481 -30936 -305.35)" stroke="#000" stroke-width="1.3629">
  <clipPath>
   <polygon points="529.12 342.16 529.12 440.22 469.76 440.22 469.76 342.93 469.76 342.93"/>
  </clipPath>
 </g>
 <g fill-rule="evenodd" transform="matrix(27.481 0 0 27.481 -29570 -305.35)" stroke="#000" stroke-width="1.3629">
  <clipPath>
   <polygon points="529.12 342.16 529.12 440.22 469.76 440.22 469.76 342.93 469.76 342.93"/>
  </clipPath>
 </g>
 <rect fill-rule="evenodd" transform="scale(-1,1)" height="0" width="0" y="1709.4" x="-1269.6" stroke-width="1pt" fill="#c0c0c0"/>
 <rect fill-rule="evenodd" height="0" width="0" y="1822.7" x="1265.3" stroke-width="1pt" fill="#c0c0c0"/>
 <g fill-rule="evenodd" transform="matrix(29.186 0 0 30.69 -40635 -11735)" stroke="#000" stroke-width="1.3629">
  <clipPath>
   <polygon points="529.12 342.16 529.12 440.22 469.76 440.22 469.76 342.93 469.76 342.93"/>
  </clipPath>
 </g>
 <g fill-rule="evenodd" transform="matrix(29.186 0 0 30.69 -39185 -11735)" stroke="#000" stroke-width="1.3629">
  <clipPath>
   <polygon points="529.12 342.16 529.12 440.22 469.76 440.22 469.76 342.93 469.76 342.93"/>
  </clipPath>
 </g>
 <g fill-rule="evenodd" transform="matrix(27.481 0 0 27.481 -30936 -305.35)" stroke="#000" stroke-width="1.3629">
  <clipPath>
   <polygon points="529.12 342.16 529.12 440.22 469.76 440.22 469.76 342.93 469.76 342.93"/>
  </clipPath>
 </g>
 <g fill-rule="evenodd" transform="matrix(27.481 0 0 27.481 -29570 -305.35)" stroke="#000" stroke-width="1.3629">
  <clipPath>
   <polygon points="529.12 342.16 529.12 440.22 469.76 440.22 469.76 342.93 469.76 342.93"/>
  </clipPath>
 </g>
 <rect fill-rule="evenodd" transform="scale(-1,1)" height="0" width="0" y="1701.6" x="-1233.4" stroke-width="1pt" fill="#c0c0c0"/>
 <rect fill-rule="evenodd" height="0" width="0" y="1815" x="1229.1" stroke-width="1pt" fill="#c0c0c0"/>
 <g fill-rule="evenodd" transform="matrix(29.186 0 0 30.69 -40671 -11742)" stroke="#000" stroke-width="1.3629">
  <clipPath>
   <polygon points="529.12 342.16 529.12 440.22 469.76 440.22 469.76 342.93 469.76 342.93"/>
  </clipPath>
 </g>
 <g fill-rule="evenodd" transform="matrix(29.186 0 0 30.69 -39221 -11742)" stroke="#000" stroke-width="1.3629">
  <clipPath>
   <polygon points="529.12 342.16 529.12 440.22 469.76 440.22 469.76 342.93 469.76 342.93"/>
  </clipPath>
 </g>
 <g fill-rule="evenodd" transform="matrix(27.481 0 0 27.481 -30972 -313.1)" stroke="#000" stroke-width="1.3629">
  <clipPath>
   <polygon points="529.12 342.16 529.12 440.22 469.76 440.22 469.76 342.93 469.76 342.93"/>
  </clipPath>
 </g>
 <g fill-rule="evenodd" transform="matrix(27.481 0 0 27.481 -29606 -313.1)" stroke="#000" stroke-width="1.3629">
  <clipPath>
   <polygon points="529.12 342.16 529.12 440.22 469.76 440.22 469.76 342.93 469.76 342.93"/>
  </clipPath>
 </g>
 <path d="m1796.3 806.82-46.066 9.156-16.881-50.93 12.303-14.02 53.506-24.321 63.828-4.578 63.828 4.578 53.506 24.321 12.303 14.02-16.881 50.93-46.066-9.156-66.69-11.159z" fill="#fff"/>
 <path stroke-linejoin="round" d="m1842 729.03c-11.977 0.7232-24.01 1.474-35.811 3.6418-12.293 2.2581-24.485 5.3973-36.216 9.7114-11.113 4.0872-22.869 22.643-32.096 15.222-1.983-1.595 0.7525-5.0841 1.7168-7.4393 1.8655-4.5565 4.429-8.9322 7.7254-12.59 2.4138-2.6781 7.9759-3.0271 8.5837-6.5809 0.4416-2.5814-3.4743-4.0928-4.2918-6.5809-1.0439-3.1765-1.5387-6.8135-0.5723-10.014 1.2405-4.1087 6.5254-6.1798 7.7254-10.301 1.043-3.5818-2.5475-7.8326-0.8584-11.159 2.133-4.2006 11.337-2.7775 12.017-7.4393 0.3317-2.2728-3.8251-2.9802-4.578-5.1502-0.5324-1.5345 0.3091-3.2401 0.2861-4.8641-0.031-2.2017 0.392-4.6014-0.5723-6.5809-0.857-1.7593-3.702-2.1398-4.2918-4.0058-0.5582-1.7657-0.1716-4.1336 1.1445-5.4364 1.0368-1.0264 3.6319 0.44281 4.2918-0.85837 1.3318-2.6259-2.5388-5.3143-3.7196-8.0115-1.4064-3.2126-3.2072-6.3135-4.0057-9.7283-0.6313-2.6996-2.9585-6.8861-0.5723-8.2976 2.7325-1.6163 5.4768 3.2387 8.0115 5.1502 3.3453 2.5229 7.1094 4.8171 9.4422 8.2976 1.6831 2.5114 0.7428 6.5093 2.9483 8.5771 2.6468 2.4814 7.7583 0.49134 10.5 2.8679 2.3561 2.0427 4.4414 5.5501 3.7196 8.5838-0.6897 2.8987-7.5314 2.8179-6.867 5.7225 0.7892 3.4501 6.8133 3.1792 10.3 2.5751 2.033-0.35214 3.4624-2.2468 5.1503-3.4335 1.3108-0.92157 2.389-2.2322 3.8627-2.8613 1.6908-0.72182 5.4363-0.9299 5.4363-0.9299l-2.1459-0.50072s-3.1717-2.5278-3.505-4.3634c-0.3139-1.7286 0.4369-3.7318 1.6452-5.0072 1.3551-1.4304 3.5376-2.1603 5.5079-2.1459 1.6471 0.0118 3.4459 0.66342 4.578 1.8598 1.1609 1.2268 1.8244 3.1131 1.6452 4.7926-0.1565 1.4679-1.1275 2.88-2.289 3.7912-1.2578 0.98685-4.578 1.4306-4.578 1.4306l2.289 0.64379 6.1517 8.4407 26.539-1.4541s3.2734-3.3392 2.6302-5.1592c-0.6891-1.9498-2.503-2.6678-5.665-2.529-8.5812 0.37659-10.34-6.8284-10.015-12.038 0.27-4.3335 5.4839-7.2744 9.5092-8.9021 3.8768-1.5678 10.787 3.5927 12.544-0.20233 1.5397-3.3265-5.8181-5.021-6.9801-8.4975-0.5029-1.5045-0.5077-3.336 0.2023-4.7545 1.8128-3.6216 5.7132-6.0296 9.408-7.6882 1.5569-0.69888 5.0552-0.80928 5.0552-0.80928s3.4821 0.10463 5.0552 0.80928c3.6961 1.6556 7.5952 4.0666 9.408 7.6882 0.71 1.4185 0.7052 3.2501 0.2023 4.7545-1.162 3.4765-8.5198 5.171-6.9801 8.4975 1.7566 3.795 8.6671-1.3654 12.544 0.20233 4.0253 1.6278 9.2392 4.5686 9.5092 8.9021 0.3245 5.2097-1.4338 12.415-10.015 12.038-3.162-0.13876-4.9759 0.57925-5.665 2.529-0.6432 1.82 2.6302 5.1592 2.6302 5.1592l26.539 1.4541 6.1517-8.4407 2.289-0.64379s-3.3202-0.44378-4.578-1.4306c-1.1615-0.91118-2.1325-2.3233-2.289-3.7912-0.1792-1.6795 0.4843-3.5658 1.6452-4.7926 1.1321-1.1964 2.9309-1.848 4.578-1.8598 1.9703-0.0144 4.1528 0.71551 5.5079 2.1459 1.2083 1.2754 1.9591 3.2786 1.6452 5.0072-0.3333 1.8356-3.505 4.3634-3.505 4.3634l-2.1459 0.50072s3.7455 0.20808 5.4363 0.9299c1.4737 0.62911 2.5519 1.9397 3.8627 2.8613 1.6879 1.1867 3.1173 3.0814 5.1503 3.4335 3.4872 0.60403 9.5113 0.87492 10.3-2.5751 0.6644-2.9046-6.1773-2.8238-6.867-5.7225-0.7218-3.0337 1.3635-6.541 3.7196-8.5838 2.7413-2.3766 7.8528-0.38651 10.5-2.8679 2.2055-2.0678 1.2652-6.0657 2.9483-8.5771 2.3328-3.4806 6.0969-5.7748 9.4422-8.2976 2.5347-1.9116 5.279-6.7666 8.0115-5.1502 2.3862 1.4115 0.059 5.598-0.5723 8.2976-0.7985 3.4148-2.5993 6.5157-4.0057 9.7283-1.1808 2.6972-5.0514 5.3856-3.7196 8.0115 0.6599 1.3012 3.255-0.16805 4.2918 0.85837 1.3161 1.3028 1.7027 3.6707 1.1445 5.4364-0.5898 1.8659-3.4348 2.2465-4.2918 4.0058-0.9643 1.9795-0.5415 4.3792-0.5723 6.5809-0.023 1.624 0.8185 3.3297 0.2861 4.8641-0.7529 2.17-4.9097 2.8774-4.578 5.1502 0.6804 4.6618 9.8843 3.2386 12.017 7.4393 1.6891 3.3263-1.9014 7.577-0.8584 11.159 1.2 4.1207 6.4849 6.1918 7.7254 10.301 0.9664 3.2009 0.4716 6.8379-0.5723 10.014-0.8175 2.488-4.7334 3.9995-4.2918 6.5809 0.6078 3.5538 6.1699 3.9028 8.5837 6.5809 3.2964 3.6573 5.8599 8.033 7.7254 12.59 0.9643 2.3552 3.6998 5.8443 1.7168 7.4393-9.2266 7.4211-20.982-11.135-32.096-15.222-11.73-4.3141-23.923-7.4533-36.216-9.7114-11.801-2.1678-23.834-2.9183-35.811-3.6418-6.9678-0.42091-20.938-0.40462-20.938-0.40462s-13.952-0.0172-20.938 0.40462z" stroke="#000" stroke-linecap="round" stroke-width="3.2046" fill="#ce9d09"/>
 <path stroke-linejoin="round" d="m1856.2 561.52c-2.6422-5.6008 1.9752-9.7497 6.7475-13.857 4.7723 4.1074 9.3898 8.2563 6.7476 13.857" stroke="#000" stroke-linecap="round" stroke-width="3.2046" fill="#ce9d09"/>
 <path stroke-linejoin="round" d="m1785.7 670.89s-6.8635 0.51299-9.252-1.5011c-2.4648-2.0784-3.9152-6.0195-3.1391-9.1489 0.6108-2.4635 5.5498-5.2131 5.5498-5.2131" stroke="#000" stroke-linecap="round" stroke-width="3.2046" fill="none"/>
 <path stroke-linejoin="round" d="m1770 685.43s12.542-3.1876 18.875-4.5063c6.9234-1.4417 13.873-2.8192 20.887-3.7196 8.0675-1.0357 16.2-1.5554 24.325-1.9286 9.6296-0.44228 28.917-0.36651 28.917-0.36651s19.27-0.0764 28.917 0.36651c8.1252 0.37308 16.257 0.89293 24.325 1.9286 7.0143 0.90048 13.964 2.278 20.887 3.7196 6.3328 1.3186 18.875 4.5063 18.875 4.5063" stroke="#000" stroke-linecap="round" stroke-width="3.2046" fill="#ce9d09"/>
 <path stroke-linejoin="round" d="m1764.9 668.75 11.517 0.60428" stroke="#000" stroke-linecap="round" stroke-width="3.2046" fill="#fbe704"/>
 <path stroke-linejoin="round" d="m1765.9 658.97 7.5149 0.98202" stroke="#000" stroke-linecap="round" stroke-width="3.2046" fill="#fbe704"/>
 <path stroke-linejoin="round" d="m1795.9 674.32 2.6798 4.655" stroke="#000" stroke-linecap="round" stroke-width="3.2046" fill="#fbe704"/>
 <path stroke-linejoin="round" d="m1758.5 704.48s11.295-2.8202 16.955-4.1778c8.0811-1.9383 16.099-4.1958 24.279-5.665 9.2622-1.6637 18.62-2.8843 28.007-3.5541 11.71-0.83564 35.216-0.57225 35.216-0.57225s23.488-0.26449 35.216 0.57225c9.3866 0.66969 18.744 1.8904 28.007 3.5541 8.1793 1.4692 16.198 3.7267 24.279 5.665 5.66 1.3576 16.955 4.1778 16.955 4.1778" stroke="#000" stroke-linecap="round" stroke-width="3.2046" fill="#ce9d09"/>
 <path stroke-linejoin="round" d="m1855 765.52-8.5727-7.1328s-13.437 5.7268-17.989 11.106c-1.2701 1.501-2.3519 3.5005-2.2255 5.4627 0.4485 6.962 10.318 18.209 10.318 18.209l19.928-8.2824" stroke="#000" stroke-linecap="round" stroke-width="3.2046" fill="#ce9d09"/>
 <path stroke-linejoin="round" d="m1848.9 955.03c-8.6996 0.0961-17.44-0.63637-26.1 0.20232-13.113 1.27-26.078 4.0342-38.846 7.2836-6.2627 1.5939-18.444 5.9712-18.444 5.9712l-1.1445-10.014 3.8627-5.1502-9.7283-20.315-10.3-9.2991 0.1431-19.886s-4.9668 3.1079-7.5823 2.5751c-2.9454-0.59994-5.4962-3.265-6.724-6.0086-0.9739-2.1764 0.6494-4.8589 0-7.1531-0.5947-2.1012-2.2085-3.7716-3.4335-5.5795-1.3-1.9187-2.6782-3.7882-4.1488-5.5794-1.7139-2.0876-5.5038-3.3085-5.4364-6.0086 0.049-1.9552 4.1488-4.1488 4.1488-4.1488l5.4364-1.1445 11.302-19.6-0.8423-21.382s-4.6361-3.2412-5.8673-5.665c-0.8941-1.7602-0.8093-5.8673-0.8093-5.8673l11.937-15.579s-3.3964 0.12162-4.8558-0.60697c-2.6029-1.2996-6.0696-6.272-6.0696-6.272s-6.6673 4.6109-10.318 4.0464c-1.8007-0.27842-3.2953-1.8867-4.2487-3.4395-1.0106-1.6457-1.6448-3.7825-1.214-5.665 0.3431-1.4991 1.6581-2.6489 2.8325-3.6418 2.2813-1.9286 6.3955-1.6625 7.8906-4.2488 1.1818-2.0444 0.4498-4.8117-0.2024-7.0812-1.3607-4.7357-4.7468-8.6504-7.4858-12.746-1.7395-2.6012-5.294-4.3787-5.665-7.4859-0.2006-1.6795 2.0232-4.6534 2.0232-4.6534s5.2243-0.12643 7.6882 0.60696c4.0775 1.2139 8.3072 2.9994 11.201 6.1178 2.4056 2.5919 3.1132 6.3608 4.3774 9.6633 0.9609 2.5098 2.4279 7.6882 2.4279 7.6882s6.0398-0.01 8.6998 1.2139c3.5158 1.6175 7.1093 4.1601 8.6998 7.6882 1.2473 2.7667 1.0733 6.2658 0 9.1045-1.0815 2.8603-3.4882 5.2396-6.0696 6.8789-2.8465 1.8077-9.7114 2.8325-9.7114 2.8325s6.0172 6.0061 9.9137 7.2836c2.0507 0.67234 4.4133 0.64012 6.4743 0 2.501-0.7768 4.4341-2.809 6.4743-4.4511 4.6088-3.7096 9.225-7.5416 12.948-12.139 2.1328-2.6335 5.2604-8.6998 5.2604-8.6998s-5.3485-2.8236-7.2836-5.058c-1.2834-1.4819-2.5004-3.3042-2.6302-5.2603-0.1511-2.277 0.6199-4.8527 2.2256-6.4743 1.5608-1.5764 4.0536-2.2175 6.2719-2.2255 1.8556-0.006 3.8485 0.61687 5.2604 1.8209 1.63 1.3901 2.7786 3.5381 3.0348 5.665 0.2186 1.8144-0.5096 3.6956-1.3672 5.3094-1.3002 2.4469-5.5117 6.2229-5.5117 6.2229s12.91 10.142 20.637 12.139c7.5767 1.9584 15.962 1.6042 23.469-0.60697 1.8839-0.55491 5.0319-3.0647 5.0319-3.0647 8.8263-5.6214 17.652-8.7065 26.426-7.8606 8.7738-0.8459 17.6 2.2392 26.426 7.8606 0 0 3.148 2.5098 5.0319 3.0647 7.5068 2.2112 15.892 2.5653 23.469 0.60697 7.7269-1.9972 20.637-12.139 20.637-12.139s-4.2115-3.7759-5.5117-6.2229c-0.8576-1.6138-1.5858-3.495-1.3672-5.3094 0.2562-2.1268 1.4048-4.2749 3.0348-5.665 1.4119-1.204 3.4048-1.8269 5.2604-1.8209 2.2183 0.008 4.7111 0.64918 6.2719 2.2255 1.6057 1.6216 2.3767 4.1972 2.2256 6.4743-0.1298 1.9561-1.3468 3.7784-2.6302 5.2603-1.9351 2.2344-7.2836 5.058-7.2836 5.058s3.1276 6.0663 5.2604 8.6998c3.7235 4.5976 8.3397 8.4296 12.948 12.139 2.0402 1.6421 3.9733 3.6743 6.4743 4.4511 2.061 0.64012 4.4236 0.67234 6.4743 0 3.8965-1.2775 9.9137-7.2836 9.9137-7.2836s-6.8649-1.0248-9.7114-2.8325c-2.5814-1.6394-4.9881-4.0186-6.0696-6.8789-1.0733-2.8387-1.2473-6.3378 0-9.1045 1.5905-3.5281 5.184-6.0707 8.6998-7.6882 2.66-1.2239 8.6998-1.2139 8.6998-1.2139s1.467-5.1784 2.4279-7.6882c1.2642-3.3025 1.9718-7.0714 4.3774-9.6633 2.8941-3.1183 7.1238-4.9039 11.201-6.1178 2.4639-0.73339 7.6882-0.60696 7.6882-0.60696s2.2238 2.9739 2.0232 4.6534c-0.371 3.1072-3.9255 4.8846-5.665 7.4859-2.739 4.0959-6.1251 8.0106-7.4858 12.746-0.6522 2.2696-1.3842 5.0369-0.2024 7.0812 1.4951 2.5862 5.6093 2.3201 7.8906 4.2488 1.1744 0.9929 2.4894 2.1426 2.8325 3.6418 0.4308 1.8825-0.2034 4.0193-1.214 5.665-0.9534 1.5528-2.448 3.161-4.2487 3.4395-3.6511 0.5645-10.318-4.0464-10.318-4.0464s-3.4667 4.9724-6.0696 6.272c-1.4594 0.72859-4.8558 0.60697-4.8558 0.60697l11.937 15.579s0.085 4.1071-0.8093 5.8673c-1.2312 2.4238-5.8673 5.665-5.8673 5.665l-0.8423 21.382 11.302 19.6 5.4364 1.1445s4.0998 2.1936 4.1488 4.1488c0.067 2.7001-3.7225 3.9211-5.4364 6.0086-1.4706 1.7913-2.8488 3.6608-4.1488 5.5794-1.225 1.8078-2.8388 3.4782-3.4335 5.5795-0.6494 2.2942 0.9739 4.9767 0 7.1531-1.2278 2.7437-3.7786 5.4087-6.724 6.0086-2.6155 0.53275-7.5823-2.5751-7.5823-2.5751l0.1431 19.886-10.3 9.2991-9.7283 20.315 3.8627 5.1502-1.1445 10.014s-12.182-4.3772-18.444-5.9712c-12.767-3.2494-25.733-6.0136-38.846-7.2836-8.6596-0.83869-17.4-0.106-26.1-0.20232-4.6864-0.0519-14.058-0.20232-14.058-0.20232s-9.3547 0.15029-14.058 0.20232z" stroke="#000" stroke-width="3.2046" fill="#ce9d09"/>
 <path stroke-linejoin="round" d="m1744.9 774.99s-4.1344 3.5952-5.6473 5.8416c-1.442 2.1412-2.5776 4.5608-3.136 7.0812-0.6097 2.7521-0.1618 8.455-0.1618 8.455" stroke="#000" stroke-linecap="round" stroke-width="3.2046" fill="#ce9d09"/>
 <path stroke-linejoin="round" d="m1741.1 829.79s10.886-5.061 16.59-6.8789c10.413-3.3187 21.235-5.2158 31.967-7.2836 12.467-2.4022 25.26-3.0515 37.622-5.9432 3.8919-0.91037 7.5305-2.7691 11.445-3.5766 5.4002-1.114 11.063-2.8815 16.452-1.7168 2.9521 0.63803 7.8193 4.578 7.8193 4.578s4.8515-3.9411 7.8193-4.578c5.3912-1.157 11.052 0.6028 16.452 1.7168 3.9145 0.8075 7.5531 2.6662 11.445 3.5766 12.362 2.8917 25.155 3.5411 37.622 5.9432 10.731 2.0677 21.554 3.9649 31.967 7.2836 5.704 1.818 16.59 6.8789 16.59 6.8789" stroke="#000" stroke-linecap="round" stroke-width="3.2046" fill="#ce9d09"/>
 <path stroke-linejoin="round" d="m1741.8 851.41s17.56-5.9185 26.406-8.671c9.1286-2.8405 18.173-6.0628 27.516-8.0928 11.184-2.4303 22.611-3.6293 33.99-4.8557 11.058-1.1918 33.279-2.4279 33.279-2.4279s22.203 1.2348 33.279 2.4279c11.379 1.2257 22.806 2.4254 33.99 4.8557 9.3424 2.0301 18.387 5.2523 27.516 8.0928 8.8459 2.7525 26.406 8.671 26.406 8.671" stroke="#000" stroke-linecap="round" stroke-width="3.2046" fill="none"/>
 <path stroke-linejoin="round" d="m1847.1 867.08s-5.0552 0.94677-7.1107 2.3664c-3.0766 2.125-5.7824 5.1935-7.0812 8.6998-0.8905 2.404-1.2428 5.3452-0.2024 7.6882 1.5142 3.4095 5.156 5.6248 8.4975 7.2836 2.002 0.9938 4.3426 1.743 6.5537 1.417 2.8651-0.42255 7.6006-4.2094 7.6006-4.2094" stroke="#000" stroke-linecap="round" stroke-width="3.2046" fill="none"/>
 <path stroke-linejoin="round" d="m1737.9 874.92 5.6523 11.92c-5.8013 0.17064-7.9138 3.1079-9.4541 6.4743" stroke="#000" stroke-linecap="round" stroke-width="3.2046" fill="#ce9d09"/>
 <path stroke-linejoin="round" d="m1748.7 890.59s5.1605-5.3955 8.6054-6.0717c2.2073-0.43328 4.7416 0.21473 6.5754 1.5174 2.372 1.685 3.9554 4.5602 4.6534 7.3847 0.6248 2.5283 0.3529 5.3684-0.6069 7.7894-0.8132 2.0512-2.0996 4.3378-4.1476 5.1592-4.8004 1.9253-15.384-2.024-15.384-2.024" stroke="#000" stroke-linecap="round" stroke-width="3.2046" fill="#ce9d09"/>
 <path stroke-linejoin="round" d="m1743.1 885.99 5.5812 4.2896-0.3107 14.06" stroke="#000" stroke-linecap="round" stroke-width="3.2046" fill="#ce9d09"/>
 <path stroke-linejoin="round" d="m1847.8 894.44s-2.9525 5.6301-5.6246 6.95c-7.8701 3.8873-17.823 2.9044-26.324 0.71532-5.1957-1.338-12.797-2.8992-13.877-8.1546-0.4052-1.9713 2.8657-2.9814 3.5766-4.8641 0.5749-1.5228 0.9341-3.3168 0.4292-4.8641-0.7863-2.4096-2.7109-4.6496-5.0072-5.7225-1.9447-0.90862-4.3972-0.80873-6.4378-0.14309-1.9405 0.63297-3.8698 1.9371-4.8642 3.7196-1.1673 2.0927-1.4432 4.8701-0.7153 7.1532 0.7496 2.3507 4.2258 3.1961 4.8642 5.5794 0.6412 2.394 0 5.2735-1.4307 7.2962-2.8782 4.065-8.1564 5.9894-12.876 7.5823-3.0488 1.0291-6.5924 2.3264-9.5852 1.1445-2.229-0.88018-4.6303-5.4998-4.6303-5.4998" stroke="#000" stroke-linecap="round" stroke-width="3.2046" fill="none"/>
 <path stroke-linejoin="round" d="m1793.7 894.66 8.4468-0.94606" stroke="#000" stroke-linecap="round" stroke-width="3.2046" fill="#fbe704"/>
 <path stroke-linejoin="round" d="m1877 1000.8c21.737-1.6259 43.599-4.1265 64.664-9.7282 5.9824-1.5908 12.751-2.5374 17.311-6.724 1.9952-1.8318 3.2908-4.6028 3.5766-7.2962 0.3118-2.9379-0.3262-6.271-2.1441-8.5999-7.4813-9.5841-20.505-13.794-32.191-17.151-20.958-6.0219-65.259-4.578-65.259-4.578s-44.284-1.4482-65.259 4.578c-11.686 3.3572-24.71 7.5672-32.191 17.151-1.8179 2.3289-2.4559 5.662-2.1441 8.5999 0.2858 2.6934 1.5814 5.4643 3.5766 7.2962 4.5597 4.1866 11.328 5.1331 17.311 6.724 21.065 5.6017 42.928 8.1023 64.664 9.7282 4.6678 0.3492 14.043 0 14.043 0s9.3574 0.3505 14.043 0z" stroke="#000" stroke-width="3.2046" fill="#fff"/>
 <path stroke-linejoin="round" d="m1873.2 595.4-10.184 0.11745-10.184-0.11745" stroke="#000" stroke-linecap="round" stroke-width="3.2046" fill="#fbe704"/>
 <path stroke-linejoin="round" d="m1940.2 670.89s6.8635 0.51299 9.252-1.5011c2.4648-2.0784 3.9152-6.0195 3.1391-9.1489-0.6108-2.4635-5.5498-5.2131-5.5498-5.2131" stroke="#000" stroke-linecap="round" stroke-width="3.2046" fill="none"/>
 <path stroke-linejoin="round" d="m1961 668.75-11.517 0.60428" stroke="#000" stroke-linecap="round" stroke-width="3.2046" fill="#fbe704"/>
 <path stroke-linejoin="round" d="m1960 658.97-7.5149 0.98202" stroke="#000" stroke-linecap="round" stroke-width="3.2046" fill="#fbe704"/>
 <path stroke-linejoin="round" d="m1930.1 674.32-2.6798 4.655" stroke="#000" stroke-linecap="round" stroke-width="3.2046" fill="#fbe704"/>
 <path stroke-linejoin="round" d="m1970 731s-11.952-4.7562-18.026-6.867c-5.1003-1.7726-10.206-3.5815-15.451-4.8641-6.3972-1.5644-12.932-2.5382-19.456-3.4335-9.3932-1.2889-18.843-2.2085-28.307-2.7845-8.5842-0.52248-25.793-0.60697-25.793-0.60697s-17.192 0.0836-25.793 0.60697c-9.4637 0.57579-18.914 1.4956-28.307 2.7845-6.5245 0.89528-13.059 1.8691-19.456 3.4335-5.2449 1.2826-10.35 3.0916-15.451 4.8641-6.0735 2.1108-18.026 6.867-18.026 6.867" stroke="#000" stroke-linecap="round" stroke-width="3.2046" fill="none"/>
 <path stroke-linejoin="round" d="m1848.5 669.25 8.0562-6.2006 6.5065 0.13988-6.6557-0.14309s-3.591-2.4476-4.578-4.2919c-0.958-1.7902-1.4152-4.0207-1.0015-6.0086 0.5525-2.6548 2.0852-5.4586 4.4277-6.8248 2.2371-1.3048 7.7551-0.47145 7.7551-0.47145s5.5027-0.84166 7.7551 0.47145c2.3428 1.3657 3.8752 4.1699 4.4277 6.8248 0.4137 1.9879-0.043 4.2184-1.0015 6.0086-0.987 1.8442-4.578 4.2919-4.578 4.2919l-6.6557 0.14309 6.5065-0.13988 8.0562 6.2006" stroke="#000" stroke-linecap="round" stroke-width="3.2046" fill="#ce9d09"/>
 <path stroke-linejoin="round" d="m1870.9 765.52 8.5727-7.1328s13.437 5.7268 17.989 11.106c1.2701 1.501 2.3519 3.5005 2.2255 5.4627-0.4485 6.962-10.318 18.209-10.318 18.209l-19.928-8.2824" stroke="#000" stroke-linecap="round" stroke-width="3.2046" fill="#ce9d09"/>
 <path stroke-linejoin="round" d="m1856.8 785.28s-6.481-5.9099-7.6882-9.9138c-0.5271-1.7482-0.45-3.8492 0.4046-5.4627 1.1684-2.2059 5.8673-4.6534 5.8673-4.6534s-7.0852-3.4428-8.9021-6.6766c-1.0288-1.8312-1.1579-4.2451-0.607-6.272 0.8741-3.2153 3.2994-5.9698 5.8673-8.0929 3.185-2.6332 11.226-5.2603 11.226-5.2603s8.0266 2.62 11.226 5.2603c2.5698 2.1208 4.9932 4.8775 5.8673 8.0929 0.5509 2.0269 0.4218 4.4408-0.607 6.272-1.8169 3.2338-8.9021 6.6766-8.9021 6.6766s4.6989 2.4475 5.8673 4.6534c0.8546 1.6135 0.9317 3.7145 0.4046 5.4627-1.2072 4.0038-7.6882 9.9138-7.6882 9.9138l-6.168 0.40463z" stroke="#000" stroke-linecap="round" stroke-width="3.2046" fill="#ce9d09"/>
 <path stroke-linejoin="round" d="m1996.3 870.98s-5.2355 4.1792-8.284 3.9409c-4.3781-0.34222-7.0627-5.2557-10.873-7.4393-4.8491-2.779-10.01-4.9928-15.165-7.1531-7.1244-2.9859-14.366-5.7274-21.746-8.0115-9.3031-2.8795-18.687-5.7644-28.326-7.1531-9.7306-1.4019-19.662-1.8086-29.471-1.1445-6.5952 0.44651-19.531 3.4335-19.531 3.4335s5.5152 2.2361 8.0413 3.7832c2.9104 1.7825 6.5552 3.225 8.0929 6.272 1.3068 2.5896 1.3575 6.039 0.2023 8.6998-1.3316 3.067-4.3896 5.4147-7.4859 6.6766-2.7349 1.1146-8.8506 0.40464-8.8506 0.40464s7.0244 0.2662 9.4575 2.4279c1.676 1.4889 2.5226 4.0321 2.4279 6.272-0.1299 3.0738-1.6165 6.4082-4.0464 8.2952-2.1073 1.6365-7.839 1.6186-7.839 1.6186s2.9511 0.32309 4.3473-0.0657c1.9206-0.53485 3.8839-1.4872 5.1663-3.0137 1.3289-1.5819 1.9572-3.7554 2.1527-5.8121 0.2065-2.1726 0.1835-4.676-1.0763-6.4579-1.0878-1.5385-4.9467-2.7354-4.9467-2.7354s3.1245-0.79309 4.5161-1.5699c2.1821-1.2181 5.8122-4.7358 5.8122-4.7358s2.9754 0.0649 4.3053 0.64579c2.9473 1.2874 5.7039 3.3828 7.5342 6.0274 1.8467 2.6682 3.5447 6.0552 3.0137 9.2564-0.5283 3.1854-3.2532 5.7801-5.8121 7.7495-2.5765 1.983-9.0411 3.6595-9.0411 3.6595s0.2299 2.1811 0.861 3.0137c2.1199 2.7969 5.589 4.562 8.965 5.5208 5.2265 1.4843 11.089 0.82833 16.299 0.0239 5.2657-0.81299 9.2309-2.2768 15.242-4.8488 2.0376-0.87183 3.8378-5.4316 3.8378-5.4316s-4.3316-3.346-4.7358-5.8122c-0.3967-2.42 0.9043-5.101 2.5831-6.8885 1.5612-1.6622 3.9626-2.8348 6.2427-2.7984 3.1125 0.0497 6.7792 1.4296 8.3953 4.09 1.4535 2.3925 0.9672 5.858-0.2152 8.3953-1.0521 2.2577-5.5969 4.9511-5.5969 4.9511 1.1633 4.7313 2.7885 7.1534 4.5206 9.0411 6.3144 3.6036 12.629 5.6211 18.943 7.5343l3.6595-2.3679 2.5831-4.5206s-3.7336-5.1662-3.8747-8.1801c-0.1179-2.5168 1.1795-5.0113 2.5832-7.1037 1.1885-1.7717 2.7599-3.5006 4.7358-4.3053 1.8619-0.75831 4.0879-0.74455 6.0274-0.21526 2.9572 0.80703 7.7495 4.9511 7.7495 4.9511s4.7391-3.7912 6.458-6.2427c1.7149-2.4458 3.6595-8.1801 3.6595-8.1801z" stroke="#000" stroke-linecap="round" stroke-width="3.2046" fill="#fff"/>
 <path stroke-linejoin="round" d="m1981 774.99s4.1344 3.5952 5.6473 5.8416c1.442 2.1412 2.5776 4.5608 3.136 7.0812 0.6097 2.7521 0.1618 8.455 0.1618 8.455" stroke="#000" stroke-linecap="round" stroke-width="3.2046" fill="#ce9d09"/>
 <path stroke-linejoin="round" d="m1878.8 867.08s5.0552 0.94677 7.1107 2.3664c3.0766 2.125 5.7824 5.1935 7.0812 8.6998 0.8905 2.404 1.2428 5.3452 0.2024 7.6882-1.5142 3.4095-5.156 5.6248-8.4975 7.2836-2.002 0.9938-4.3426 1.743-6.5537 1.417-2.8651-0.42255-7.6006-4.2094-7.6006-4.2094" stroke="#000" stroke-linecap="round" stroke-width="3.2046" fill="none"/>
 <path stroke-linejoin="round" d="m1988.1 874.92-5.6523 11.92c5.8013 0.17064 7.9138 3.1079 9.4541 6.4743" stroke="#000" stroke-linecap="round" stroke-width="3.2046" fill="#ce9d09"/>
 <path stroke-linejoin="round" d="m1977.3 890.59s-5.1605-5.3955-8.6054-6.0717c-2.2073-0.43328-4.7416 0.21473-6.5754 1.5174-2.372 1.685-3.9554 4.5602-4.6534 7.3847-0.6248 2.5283-0.3529 5.3684 0.6069 7.7894 0.8132 2.0512 2.0996 4.3378 4.1476 5.1592 4.8004 1.9253 15.384-2.024 15.384-2.024" stroke="#000" stroke-linecap="round" stroke-width="3.2046" fill="#ce9d09"/>
 <path stroke-linejoin="round" d="m1982.9 885.99-5.5812 4.2896 0.3107 14.06" stroke="#000" stroke-linecap="round" stroke-width="3.2046" fill="#ce9d09"/>
 <path stroke-linejoin="round" d="m1878.1 894.44s2.9525 5.6301 5.6246 6.95c7.8701 3.8873 17.823 2.9044 26.324 0.71532 5.1957-1.338 12.797-2.8992 13.877-8.1546 0.4052-1.9713-2.8657-2.9814-3.5766-4.8641-0.5749-1.5228-0.9341-3.3168-0.4292-4.8641 0.7863-2.4096 2.7109-4.6496 5.0072-5.7225 1.9447-0.90862 4.3972-0.80873 6.4378-0.14309 1.9405 0.63297 3.8698 1.9371 4.8642 3.7196 1.1673 2.0927 1.4432 4.8701 0.7153 7.1532-0.7496 2.3507-4.2258 3.1961-4.8642 5.5794-0.6412 2.394 0 5.2735 1.4307 7.2962 2.8782 4.065 8.1564 5.9894 12.876 7.5823 3.0488 1.0291 6.5924 2.3264 9.5852 1.1445 2.229-0.88018 4.6303-5.4998 4.6303-5.4998" stroke="#000" stroke-linecap="round" stroke-width="3.2046" fill="none"/>
 <path stroke-linejoin="round" d="m1932.2 894.66-8.4468-0.94606" stroke="#000" stroke-linecap="round" stroke-width="3.2046" fill="#fbe704"/>
 <path stroke-linejoin="round" d="m1967.4 933.13s-3.1773-2.8454-4.9603-3.9996c-3.7472-2.4257-7.7685-4.4727-11.937-6.0696-5.6064-2.1479-11.553-3.2884-17.4-4.6534-6.6974-1.5637-13.415-3.1394-20.232-4.0464-7.9733-1.0607-16.033-1.5378-24.076-1.6186-8.6068-0.0865-25.793 1.2139-25.793 1.2139s-17.169-1.301-25.793-1.2139c-8.0431 0.0812-16.103 0.55783-24.076 1.6186-6.8175 0.90698-13.535 2.4828-20.232 4.0464-5.8465 1.365-11.793 2.5055-17.4 4.6534-4.1684 1.597-8.1897 3.6439-11.937 6.0696-1.783 1.1542-4.9603 3.9996-4.9603 3.9996" stroke="#000" stroke-linecap="round" stroke-width="3.2046" fill="#ce9d09"/>
 <path stroke-linejoin="round" d="m1957.8 953.5s-7.1544-3.0191-10.804-4.3401c-6.5977-2.3883-13.259-4.6321-20.03-6.4743-6.5995-1.7956-13.233-3.6891-20.03-4.4511-14.576-1.634-44.002-0.20232-44.002-0.20232s-29.408-1.4336-44.002 0.20232c-6.7969 0.76191-13.43 2.6554-20.03 4.4511-6.7706 1.8422-13.432 4.086-20.03 6.4743-3.6492 1.321-10.804 4.3401-10.804 4.3401" stroke="#000" stroke-linecap="round" stroke-width="3.2046" fill="none"/>
 <g id="g4849" stroke-linejoin="round" transform="matrix(1.6023 0 0 1.6023 1255.5 411.33)" stroke="#000" stroke-width="2">
  <path d="m292.44 455.87 25.759 22.476s-5.2084 4.6359-8.3338 6.0609c-6.1313 2.7956-12.961 4.6912-19.698 4.5457-4.8233-0.10419-9.561-1.8553-13.949-3.8604-9.8119-4.4836-20.615-9.1938-26.941-17.932-2.2385-3.092-3.1221-7.221-3.0515-11.038 0.08-4.3268 3.9198-12.377 3.9198-12.377s1.4922 5.3898 3.2037 7.5031c2.8166 3.4778 6.9385 5.8055 10.982 7.7232 3.0253 1.4348 6.331 2.5101 9.6735 2.7062 4.3382 0.25447 8.839-0.4205 12.879-2.0203 2.084-0.82517 5.5558-3.7881 5.5558-3.7881z" fill="#fff"/>
  <path d="m251.6 291.04s2.056 4.1192 2.6818 6.3207c1.0704 3.7654 1.8151 7.6927 1.7857 11.607-0.0294 3.924-0.91643 7.8256-1.9643 11.607-1.5703 5.667-3.9442 11.099-6.4286 16.429-1.5754 3.38-3.7783 6.443-5.3571 9.8214-2.5458 5.4476-4.3647 11.206-6.6071 16.786-1.8715 4.6564-4.2842 9.1183-5.7143 13.929-1.8996 6.3895-2.847 13.038-3.75 19.643-0.77681 5.6812-1.3911 11.409-1.4286 17.143-0.0445 6.8023 0.1604 13.674 1.4286 20.357 1.2565 6.6214 3.1059 13.234 6.0714 19.286 2.3903 4.8782 5.5742 9.4262 9.2857 13.393 3.0677 3.2786 6.6818 6.0891 10.536 8.3929 3.5019 2.0934 7.4587 3.3144 11.25 4.8214 5.2375 2.0818 15.873 5.8262 15.873 5.8262s-14.683-7.2349-19.801-13.326c-4.2339-5.0391-6.5661-11.62-8.0357-18.036-1.7021-7.4303-1.4873-15.274-0.71428-22.857 0.83164-8.1582 3.2325-16.113 5.7143-23.929 2.6193-8.2489 6.3008-16.124 9.6429-24.107 2.4085-5.7534 5.1651-11.359 7.5-17.143 2.7567-6.8284 5.4698-13.689 7.6786-20.714 1.347-4.2843 3.0266-8.5636 3.3891-13.04 0.39384-4.8633-0.2393-9.8249-1.3544-14.575-1.5622-6.6546-3.4939-13.511-7.3868-19.13-2.343-3.3817-5.5537-6.3364-9.2176-8.2075-3.5777-1.827-7.8284-3.3708-11.77-2.5924-1.3164 0.25998-3.3068 2.2954-3.3068 2.2954z" fill="#fff"/>
  <path d="m284.64 333.43s2.7799-11.228 3.2506-16.968c0.40263-4.9096 0.13989-9.8748-0.37881-14.773-0.57717-5.4509-0.91656-11.105-3.0305-16.162-2.1928-5.2462-5.6321-10.067-9.7227-14.016-4.0317-3.8924-8.9209-7.0556-14.142-9.0914-5.4928-2.1416-11.541-2.6704-17.425-3.0305-5.0476-0.30888-10.136 0.11959-15.152 0.75762-2.8988 0.36867-5.8184 0.83083-8.5863 1.7678-2.5677 0.86918-7.3236 3.5355-7.3236 3.5355l18.688 30.557s5.8494-3.4438 9.0914-4.2931c3.4288-0.89836 7.0681-0.96471 10.607-0.75762 3.593 0.21027 7.3181 0.55775 10.607 2.0203 4.1857 1.8616 7.7951 4.9827 10.951 8.3031 3.8083 4.0067 7.2074 8.6043 9.3359 13.706 1.9764 4.7371 2.2357 10.031 2.9466 15.114 0.15431 1.1035 0.28492 3.3305 0.28492 3.3305z" fill="#fff"/>
  <path d="m288.05 309.15s-3.3287-10.335-6.4718-14.65c-3.6506-5.0122-8.3413-9.6056-13.89-12.374-5.8843-2.9364-19.343-3.88-19.343-3.88l7.1232 13.186-12.461-0.30397-6.5074-10.881-12.003 5.4332-5.9713-9.7639 12.751-5.9124-5.8755-9.4771 12.746-1.2124 5.5498 9.1743s9.9068 0.03 14.721 1.0408c3.2692 0.68638 6.4815 1.8159 9.4367 3.3733 2.8282 1.4905 5.4286 3.4461 7.7679 5.625 2.8135 2.6206 5.4496 5.5321 7.4107 8.8393 1.9058 3.2139 4.0828 10.44 4.0828 10.44z" fill="#ce9d09"/>
  <path d="m212.24 265.63-9.3812 5.4849-8.9286 6.7857 19.286 29.464 8.5714-6.6071 8.8122-5.1074z" fill="#ce9d09"/>
  <path d="m203.55 270.71 19.908 29.078" fill="#ce9d09"/>
  <path d="m248.57 389.77 11.161-23.036 11.945 4.7516 4.8401-11.895-11.874-5.5354 6.1607-13.304-8.75-3.9286-6.6072 12.768-11.979-5.0079-5.26 12.459 11.614 4.8704-10.714 22.857z" fill="#ce9d09"/>
  <path d="m328.01 361.33 10.052 2.3973 16.016 2.6019 7.3398 0.80672-1.2961 31.153s-1.7527 20.707-4.7982 30.557c-2.2578 7.3026-9.849 20.708-9.849 20.708l-4.7982 7.3236-28.284-24.496s4.8215-6.8321 6.566-10.607c2.189-4.7364 4.7982-14.9 4.7982-14.9l2.7779-16.162 1.5152-20.456z" fill="#fff"/>
  <path d="m337.9 382.88 11.364-0.25254v13.132l10.943 0.51905-1.8614 13.329-10.209-0.64239s-1.6839 7.848-3.1963 11.543c-1.5685 3.8318-6.0303 10.859-6.0303 10.859l-12.122-3.0304s4.3853-6.8953 6.0609-10.607c1.5007-3.3239 3.5355-10.354 3.5355-10.354l-12.444-1.5706 2.166-12.602 11.288 0.78792z" fill="#ce9d09"/>
 </g>
 <use xlink:href="#g4849" transform="matrix(-1 0 0 1 3726.2 0)" height="1052.3622" width="744.09448" y="0" x="0"/>
 <path stroke-linejoin="round" d="m1533.5 903.82s0.7031-5.0612 0.0001-7.4392c-1.1438-3.8688-3.5741-7.4678-6.5809-10.157-2.5433-2.275-5.8071-3.9237-9.1561-4.578-3.6147-0.70621-7.4637-0.11504-11.016 0.85837-2.4196 0.6631-6.7534 3.3225-6.7534 3.3225l-14.849 6.1196-5.5107 17.667s-3.1741 5.5789-3.9314 8.6561c-0.8104 3.2929-1.4088 6.8711-0.5723 10.157 0.9826 3.8602 3.2315 7.6114 6.2948 10.157 2.8332 2.3548 6.6269 3.729 10.3 4.0058 2.8265 0.21295 8.2977-1.8598 8.2977-1.8598 1.5802-18.611 9.856-32.813 33.477-36.91z" stroke="#000" stroke-width="3.2046" fill="#ce9d09"/>
 <path stroke-linejoin="round" d="m1500.3 885.64-38.753-17.02-3.1474 3.0043 21.119 38.202s5.9243-8.7382 9.3535-12.736c3.5106-4.0931 11.428-11.45 11.428-11.45z" stroke="#000" stroke-width="3.2046" fill="#ce9d09"/>
 <path stroke-linejoin="round" d="m138.3 285.44a9.9554 9.9554 0 1 1 -19.911 0 9.9554 9.9554 0 1 1 19.911 0z" transform="matrix(1.6023 0 0 1.6023 1251.6 407.9)" stroke="#000" stroke-width="2" fill="#ce9d09"/>
 <path stroke-linejoin="round" d="m1533.3 904.04 101.17 86.713s-5.1334 11.214-7.279 16.989c-1.9789 5.3266-3.8171 10.727-5.1455 16.252-1.9584 8.145-4.1351 24.789-4.1351 24.789l-117.94-108.04c1.6729-24.689 15.566-33.488 33.331-36.708z" stroke="#000" stroke-width="3.2046" fill="#ccc"/>
 <path stroke-linejoin="round" d="m1566.2 932.26c3.3899 27.952 7.3216 55.904 16.025 83.856l31.069 28.459c-6.625-29.232-18.442-58.463-18.368-87.695z" stroke="#000" stroke-width="3.2046" fill="#ce9d09"/>
 <path stroke-linejoin="round" d="m1613 972.41-85.488-6.3689 27.201 24.916 78.068 3.3797 1.1469-3.9897z" stroke="#000" stroke-width="3.2046" fill="#ce9d09"/>
 <path stroke-linejoin="round" d="m1519 958.2-24.283 27.167 15.165 14.592-23.462 22.89-15.165-15.165-25.514 27.202-0.2368 33.743 58.084 45.494 20.029-14.878-1.1445-32.332 15.451 8.5838 15.451-9.4422 0.8583 29.185-12.59-9.1561-13.734 18.026-1.4306 32.046 43.777 38.913 53.049-47.079-4.0084-14.112-2.3054-12.678-1.2464-25.129 1.9803-27.44z" stroke="#000" stroke-width="3.2046" fill="#ccc"/>
 <path stroke-linejoin="round" d="m1494.7 985.36-0.6211 29.993 15.643-15.261z" stroke="#000" stroke-width="3.2046" fill="#ccc"/>
 <path stroke-linejoin="round" d="m1446 1034.6 57.579 49.193 18.884-16.881-14.878-12.59 16.595-15.737 12.876 11.159 14.592-14.878 18.884 18.312-17.151 13.447 16.006 14.593-15.165 14.02" stroke="#000" stroke-width="3.2046" fill="none"/>
 <path stroke-linejoin="round" d="m1527.9 1104.1 44.064 36.897 45.055-39.54" stroke="#000" stroke-width="3.205" fill="none"/>
 <path stroke-linejoin="round" d="m1502.8 1083.1 0.3117 30.648" stroke="#000" stroke-width="3.2046" fill="none"/>
 <path stroke-linejoin="round" d="m1523.7 1039 0.5416 28.925" stroke="#000" stroke-width="3.2046" fill="none"/>
 <path stroke-linejoin="round" d="m1537.3 1049.5 0.8297 25.885" stroke="#000" stroke-width="3.2046" fill="none"/>
 <path stroke-linejoin="round" d="m1551.5 1035 0.6445 31.784" stroke="#000" stroke-width="3.2046" fill="none"/>
 <path stroke-linejoin="round" d="m1901.3 1229.4 48.602 44.579 10.763 31.429-62.642-6.6732-35.664-35.276z" stroke="#000" stroke-width="3.2046" fill="#ccc"/>
 <path stroke-linejoin="round" d="m1679.5 1032.3 183.01 162.24-38.09 33.678-164.04-142.14s3.4783-13.101 5.635-19.522c3.124-9.3004 6.8664-18.385 10.564-27.472 0.9279-2.2802 2.9156-6.7855 2.9156-6.7855z" stroke="#000" stroke-width="3.2046" fill="#ccc"/>
 <path stroke-linejoin="round" d="m1718.4 1066.9c-22.445 8.4602-31.418 22.309-37.857 37.171-6.3529 0.5589-12.306 0.6177-14.41-4.1336 5.3477-34.7 30.21-45.551 35.753-47.747 14.95-2.8246 12.179 8.8497 16.514 14.709z" stroke="#000" stroke-width="3.2046" fill="#ce9d09"/>
 <path stroke-linejoin="round" d="m1745.9 1092.8c-22.445 8.4601-31.418 22.309-37.857 37.171-6.3529 0.5589-12.306 0.6177-14.41-4.1336 5.3477-34.7 30.21-45.551 35.753-47.747 14.95-2.8246 12.179 8.8497 16.514 14.71z" stroke="#000" stroke-width="3.2046" fill="#ce9d09"/>
 <path stroke-linejoin="round" d="m2192.4 902.67s-0.7031-5.0612 0-7.4392c1.1437-3.8688 3.574-7.4678 6.5808-10.157 2.5433-2.275 5.8071-3.9237 9.1561-4.578 3.6147-0.70621 7.4637-0.11504 11.016 0.85837 2.4196 0.6631 6.7534 3.3225 6.7534 3.3225l14.849 6.1196 5.5107 17.667s3.1741 5.5789 3.9314 8.6561c0.8104 3.2929 1.4088 6.8711 0.5723 10.157-0.9826 3.8602-3.2315 7.6114-6.2948 10.157-2.8332 2.3548-6.6269 3.729-10.3 4.0058-2.8265 0.21295-8.2977-1.8598-8.2977-1.8598-4.5574-23.565-15.949-35.471-33.477-36.91z" stroke="#000" stroke-width="3.2046" fill="#ccc"/>
 <path stroke-linejoin="round" d="m2225.6 884.5 38.753-17.02 3.1474 3.0043-21.119 38.202s-5.9243-8.7382-9.3535-12.736c-3.5106-4.0931-11.428-11.45-11.428-11.45z" stroke="#000" stroke-width="3.2046" fill="#ccc"/>
 <path stroke-linejoin="round" d="m138.3 285.44a9.9554 9.9554 0 1 1 -19.911 0 9.9554 9.9554 0 1 1 19.911 0z" transform="matrix(-1.6023 0 0 1.6023 2474.2 406.75)" stroke="#000" stroke-width="2" fill="#ccc"/>
 <path stroke-linejoin="round" d="m2192.6 902.9-101.17 86.713s5.1334 11.214 7.279 16.989c1.9789 5.3267 3.8171 10.727 5.1455 16.252 1.9584 8.1449 4.1351 24.789 4.1351 24.789l117.94-108.04c-3.5331-17.255-9.2453-33.912-33.331-36.708z" stroke="#000" stroke-width="3.2046" fill="#ce9d09"/>
 <path stroke-linejoin="round" d="m2159.7 931.11c-3.3899 27.952-7.3216 55.904-16.025 83.856l-31.069 28.459c6.625-29.232 18.442-58.463 18.368-87.695z" stroke="#000" stroke-width="3.2046" fill="#ccc"/>
 <path stroke-linejoin="round" d="m2112.8 971.27 85.488-6.3689-27.201 24.916-78.068 3.3797-1.1469-3.9897z" stroke="#000" stroke-width="3.2046" fill="#ccc"/>
 <path stroke-linejoin="round" d="m2206.9 957.05 24.283 27.167-15.165 14.592 23.462 22.89 15.165-15.165 25.514 27.202 0.2368 33.743-58.084 45.494-20.029-14.878 1.1445-32.332-15.451 8.5838-15.451-9.4422-0.8583 29.185 12.59-9.156 13.734 18.026 1.4306 32.046-43.777 38.913-53.049-47.079 4.0084-14.112 2.3054-12.678 1.2464-25.129-1.9803-27.44z" stroke="#000" stroke-width="3.2046" fill="#ce9d09"/>
 <path stroke-linejoin="round" d="m2231.2 984.22 0.6211 29.993-15.643-15.261z" stroke="#000" stroke-width="3.2046" fill="#ce9d09"/>
 <path stroke-linejoin="round" d="m2279.9 1033.5-57.579 49.193-18.884-16.881 14.878-12.59-16.595-15.737-12.876 11.159-14.592-14.878-18.884 18.312 17.151 13.447-16.006 14.593 15.165 14.02" stroke="#000" stroke-width="3.2046" fill="none"/>
 <path stroke-linejoin="round" d="m2198 1103-44.064 36.897-45.055-39.54" stroke="#000" stroke-width="3.2046" fill="none"/>
 <path stroke-linejoin="round" d="m2223 1082-0.3117 30.648" stroke="#000" stroke-width="3.2046" fill="none"/>
 <path stroke-linejoin="round" d="m2202.1 1037.9-0.5416 28.925" stroke="#000" stroke-width="3.2046" fill="none"/>
 <path stroke-linejoin="round" d="m2188.5 1048.3-0.8297 25.885" stroke="#000" stroke-width="3.2046" fill="none"/>
 <path stroke-linejoin="round" d="m2174.4 1033.9-0.6445 31.784" stroke="#000" stroke-width="3.2046" fill="none"/>
 <path stroke-linejoin="round" d="m2046.5 1031.9-273.98 242.24-19.018 23.009 34.271 24.109 29.413-18.294 248.43-217.28s-3.4783-13.101-5.635-19.522c-3.124-9.3004-6.8664-18.384-10.564-27.472-0.928-2.2802-2.9157-6.7854-2.9157-6.7854z" stroke="#000" stroke-width="3.2046" fill="#ce9d09"/>
 <path stroke-linejoin="round" d="m2007.6 1066.5c22.445 8.4601 31.418 22.309 37.857 37.171 6.3529 0.5589 12.306 0.6177 14.41-4.1335-5.3477-34.7-30.21-45.551-35.753-47.747-14.95-2.8245-12.179 8.8497-16.514 14.71z" stroke="#000" stroke-width="3.2046" fill="#ccc"/>
 <path stroke-linejoin="round" d="m1980.1 1092.4c22.445 8.4601 31.418 22.309 37.857 37.171 6.3528 0.5588 12.306 0.6177 14.41-4.1336-5.3477-34.7-30.21-45.551-35.753-47.747-14.95-2.8245-12.179 8.8497-16.514 14.71z" stroke="#000" stroke-width="3.2046" fill="#ccc"/>
 <g transform="matrix(1.6023 0 0 1.6023 1255.5 411.33)">
  <path stroke-linejoin="round" d="m261.6 589.69s-12.369-2.7197-16.281 1.0584c-3.2372 3.1266-1.3435 13.435-1.3435 13.435l4.0304 15.316 17.196 11.016s12.961 1.6746 16.928-2.4182c3.3874-3.495 1.6123-14.512 1.6123-14.512l-9.6731-13.163z" stroke="#000" stroke-width="2" fill="#ccc"/>
  <path stroke-linejoin="round" d="m285.75 702.01c0 44.701-36.237 80.938-80.938 80.938s-80.938-36.237-80.938-80.938 36.237-80.938 80.938-80.938 80.938 36.237 80.938 80.938z" transform="translate(-12.54 -34.959)" stroke="#000" stroke-width="2" fill="#ce9d09"/>
  <path stroke-linejoin="round" d="m222.57 670.49c13.952 0 25.262 11.31 25.262 25.262s-11.31 25.262-25.262 25.262-25.262-11.31-25.262-25.262l-8.7537-0.37999c0 13.952-11.31 25.262-25.262 25.262s-25.262-11.31-25.262-25.262 11.31-25.262 25.262-25.262l-0.37999-4.9538c-13.952 0-25.262-11.31-25.262-25.262s11.31-25.262 25.262-25.262 25.262 11.31 25.262 25.262l8.7537-0.75999c0-13.952 11.31-25.262 25.262-25.262s25.262 11.31 25.262 25.262-11.31 25.262-25.262 25.262z" stroke="#000" stroke-width="2" fill="#fff"/>
  <path stroke-linejoin="round" d="m324.58 514.7c-16.91 23.634-45.367 45.958-54.008 56.694-8.6409 10.737-14.207 20.933-1.6122 34.662s26.876 5.9385 38.155-1.6122c11.278-7.5506 30.957-32.018 59.113-50.783z" stroke="#000" stroke-width="2" fill="#ce9d09"/>
  <path stroke-linejoin="round" d="m330.95 520.66c-1.5122 4.9713-0.35836 10.469-2.2617 15.238-1.8818 4.7153-8.7515 12.466-8.7515 12.466s4.3672 0.61009 6.4043 1.4012c2.9527 1.1466 7.4618 1.6911 8.2207 4.7663 0.66364 2.6894-2.5346 5.0092-4.4248 7.0341-1.8127 1.9419-4.1469 3.3527-6.4381 4.6971-3.8298 2.2471-7.7333 4.7766-12.103 5.5646-5.4705 0.98645-15.683-6.7126-16.63-1.2352-0.39388 2.2776 4.6116 0.81912 6.6861 1.8385 4.842 2.3793 7.2702 7.5625 3.0086 11.168-2.7369 2.3153-7.0368 1.4644-10.609 1.7605-3.4255 0.28396-7.3377-1.7132-10.312 0.01-3.5016 2.0288-7.906 6.9313-6.0484 10.527 1.9115 3.6998 9.0393 3.6006 12.436 1.1917 2.5117-1.7811 1.8392-5.9123 2.2103-8.9689 0.11046-0.90982 0-1.833 0-2.7495" stroke="#000" stroke-width="2" fill="none"/>
  <path stroke-linejoin="round" d="m334.55 554.47 21.949-9.9069" stroke="#000" stroke-width="2" fill="none"/>
  <path id="path3181" stroke-linejoin="round" d="m143.26 603.97c0 6.086-4.9337 11.02-11.02 11.02-6.086 0-11.02-4.9337-11.02-11.02 0-6.086 4.9337-11.02 11.02-11.02 6.086 0 11.02 4.9337 11.02 11.02z" transform="translate(-2.2799 -2.2799)" stroke="#000" stroke-width="2" fill="#ccc"/>
  <use id="use3183" xlink:href="#path3181" transform="translate(-3.7999 127.68)" height="1052.3622" width="744.09448" y="0" x="0" fill="#cccccc"/>
  <use xlink:href="#use3183" transform="translate(123.88 7.2198)" height="1052.3622" width="744.09448" y="0" x="0" fill="#cccccc"/>
  <path id="path3187" stroke-linejoin="round" d="m141.36 603.97c0 5.0367-4.0831 9.1198-9.1198 9.1198s-9.1198-4.0831-9.1198-9.1198 4.0831-9.1198 9.1198-9.1198 9.1198 4.0831 9.1198 9.1198z" transform="translate(60.039 41.799)" stroke="#000" stroke-width="2" fill="#ce9d09"/>
  <use id="use3189" xlink:href="#path3187" transform="translate(-21.659 21.28)" height="1052.3622" width="744.09448" y="0" x="0"/>
  <use id="use3191" xlink:href="#use3189" transform="translate(21.28 19.38)" height="1052.3622" width="744.09448" y="0" x="0"/>
  <use xlink:href="#use3191" transform="translate(22.419 -19.38)" height="1052.3622" width="744.09448" y="0" x="0"/>
  <path id="path3197" stroke-linejoin="round" d="m191.14 617.65c3.3313-6.8381 7.8763-9.9488 13.68-13.68-8.2677-3.591-18.349-2.9311-27.359 0 5.8034 2.9019 10.011 7.4866 13.68 13.68z" stroke="#000" stroke-width="2" fill="#fff"/>
  <use id="use3199" xlink:href="#path3197" transform="matrix(0 -1 1 0 -475.45 859.24)" height="1052.3622" width="744.09448" y="0" x="0"/>
  <use id="use3201" xlink:href="#use3199" transform="matrix(-1 0 0 1 383.79 -2.2799)" height="1052.3622" width="744.09448" y="0" x="0"/>
  <use xlink:href="#use3201" transform="matrix(0 1 -1 0 859.62 474.31)" height="1052.3622" width="744.09448" y="0" x="0"/>
 </g>
 <path stroke-linejoin="round" d="m2043.6 1356.2s19.819-4.3579 26.087 1.6958c5.187 5.0098 2.1527 21.526 2.1527 21.526l-6.458 24.54-27.554 17.652s-20.767 2.6833-27.123-3.8748c-5.4277-5.6-2.5834-23.253-2.5834-23.253l15.499-21.091z" stroke="#000" stroke-width="3.2046" fill="#ce9d09"/>
 <path stroke-linejoin="round" d="m285.75 702.01a80.938 80.938 0 1 1 -161.88 0 80.938 80.938 0 1 1 161.88 0z" transform="matrix(-1.6023 0 0 1.6023 2482.8 355.32)" stroke="#000" stroke-width="2" fill="#ccc"/>
 <path stroke-linejoin="round" d="m2106.1 1485.7c-22.355 0-40.478 18.123-40.478 40.478 0 22.356 18.123 40.478 40.478 40.478s40.478-18.123 40.478-40.478l14.026-0.6088c0 22.355 18.123 40.478 40.478 40.478s40.478-18.123 40.478-40.478-18.123-40.478-40.478-40.478l0.6088-7.9375c22.356 0 40.478-18.123 40.478-40.478s-18.123-40.478-40.478-40.478-40.478 18.123-40.478 40.478l-14.026-1.2177c0-22.356-18.123-40.478-40.478-40.478-22.356 0-40.478 18.123-40.478 40.478s18.123 40.478 40.478 40.478z" stroke="#000" stroke-width="3.2046" fill="#fff"/>
 <path stroke-linejoin="round" d="m1942.7 1236c27.094 37.868 72.691 73.638 86.536 90.842 13.845 17.203 22.765 33.541 2.5831 55.538-20.181 21.998-43.064 9.5153-61.135-2.5832s-49.603-51.303-94.716-81.37z" stroke="#000" stroke-width="3.2046" fill="#ccc"/>
 <path stroke-linejoin="round" d="m1932.5 1245.6c2.4231 7.9655 0.5742 16.774 3.624 24.416 3.0153 7.5554 14.022 19.974 14.022 19.974s-6.9976 0.9775-10.262 2.2451c-4.731 1.8372-11.956 2.7096-13.172 7.6371-1.0633 4.3091 4.0612 8.0262 7.0898 11.271 2.9045 3.1116 6.6447 5.3721 10.316 7.5262 6.1364 3.6005 12.391 7.6535 19.393 8.9161 8.7653 1.5806 25.129-10.756 26.647-1.9791 0.6311 3.6495-7.3892 1.3125-10.713 2.9459-7.7584 3.8123-11.649 12.117-4.8208 17.894 4.3853 3.7097 11.275 2.3464 16.999 2.8209 5.4887 0.455 11.757-2.745 16.523 0.016 5.6107 3.2507 12.668 11.106 9.6914 16.867-3.0627 5.9283-14.484 5.7692-19.927 1.9095-4.0245-2.8539-2.947-9.4733-3.5417-14.371-0.1769-1.4578 0-2.937 0-4.4055" stroke="#000" stroke-width="3.2046" fill="none"/>
 <path stroke-linejoin="round" d="m1926.7 1299.8-35.169-15.874" stroke="#000" stroke-width="3.2046" fill="none"/>
 <path stroke-linejoin="round" d="m143.26 603.97a11.02 11.02 0 1 1 -22.039 0 11.02 11.02 0 1 1 22.039 0z" transform="matrix(-1.6023 0 0 1.6023 2466.4 407.68)" stroke="#000" stroke-width="2" fill="#ce9d09"/>
 <path stroke-linejoin="round" d="m143.26 603.97a11.02 11.02 0 1 1 -22.039 0 11.02 11.02 0 1 1 22.039 0z" transform="matrix(-1.6023 0 0 1.6023 2472.5 612.26)" stroke="#000" stroke-width="2" fill="#ce9d09"/>
 <path stroke-linejoin="round" d="m143.26 603.97a11.02 11.02 0 1 1 -22.039 0 11.02 11.02 0 1 1 22.039 0z" transform="matrix(-1.6023 0 0 1.6023 2274 623.82)" stroke="#000" stroke-width="2" fill="#ce9d09"/>
 <path stroke-linejoin="round" d="m141.36 603.97a9.1198 9.1198 0 1 1 -18.24 0 9.1198 9.1198 0 1 1 18.24 0z" transform="matrix(-1.6023 0 0 1.6023 2366.5 478.31)" stroke="#000" stroke-width="2" fill="#ccc"/>
 <path stroke-linejoin="round" d="m141.36 603.97a9.1198 9.1198 0 1 1 -18.24 0 9.1198 9.1198 0 1 1 18.24 0z" transform="matrix(-1.6023 0 0 1.6023 2401.3 512.4)" stroke="#000" stroke-width="2" fill="#ccc"/>
 <path stroke-linejoin="round" d="m141.36 603.97a9.1198 9.1198 0 1 1 -18.24 0 9.1198 9.1198 0 1 1 18.24 0z" transform="matrix(-1.6023 0 0 1.6023 2367.2 543.45)" stroke="#000" stroke-width="2" fill="#ccc"/>
 <path stroke-linejoin="round" d="m141.36 603.97a9.1198 9.1198 0 1 1 -18.24 0 9.1198 9.1198 0 1 1 18.24 0z" transform="matrix(-1.6023 0 0 1.6023 2331.2 512.4)" stroke="#000" stroke-width="2" fill="#ccc"/>
 <path stroke-linejoin="round" d="m2156.5 1401c-5.3378-10.957-12.62-15.941-21.919-21.919 13.247-5.7539 29.4-4.6965 43.838 0-9.2988 4.6498-16.041 11.996-21.919 21.919z" stroke="#000" stroke-width="3.2046" fill="#fff"/>
 <use xlink:href="#path3197" transform="matrix(0 -1.6023 -1.6023 0 3224.6 1788.1)" height="1052.3622" width="744.09448" y="0" x="0" fill="none"/>
 <use xlink:href="#use3199" transform="matrix(1.6023 0 0 1.6023 1847.8 407.68)" height="1052.3622" width="744.09448" y="0" x="0" fill="none"/>
 <use xlink:href="#use3201" transform="matrix(0 1.6023 1.6023 0 1085.4 1171.3)" height="1052.3622" width="744.09448" y="0" x="0" fill="none"/>
 <path stroke-linejoin="round" d="m1815.2 1866.3c19.292 12.238 37.25 11.14 54.247 0.4305l-40.255-41.977" stroke="#000" stroke-width="3.2046" fill="#fa0204"/>
 <path stroke-linejoin="round" d="m1849.6 1848.3c19.902 5.5241 31.759 5.236 48.219 0.4305l-17.436-27.984" stroke="#000" stroke-width="3.2046" fill="#fa0204"/>
 <path stroke-linejoin="round" d="m1888.3 1776.2-31.708-8.1414s0.3666-35.183 20.389-32.115c16.62 2.5464 11.985 40.341 11.319 40.257z" stroke="#000" stroke-width="3.2046" fill="#ce9d09"/>
 <path stroke-linejoin="round" d="m1897.7 1848.7c-10.226-8.2551-36.582-5.8322-47.981-0.3475-4.4526 0-16.445-83.24 25.722-81.183 38.721 1.8892 24.949 81.914 22.259 81.53z" stroke="#000" stroke-width="3.2046" fill="#fa0204"/>
 <path stroke-linejoin="round" d="m1880.3 1608.6c-2.8778 3.699 0.914 11.26 4.9952 14.706 4.2852 3.617 12.86 6.2778 15.874 2.3894 3.0413-3.9238-1.4825-11.936-5.9313-15.426-4.149-3.2541-12.096-5.3239-14.938-1.67z" stroke="#000" stroke-width="3.2046" fill="#fa0204"/>
 <path stroke-linejoin="round" d="m1862 1610.8c-2.8778 3.699 0.9139 11.26 4.9952 14.706 4.2852 3.6171 12.86 6.2779 15.874 2.3895 3.0412-3.9239-1.4825-11.936-5.9313-15.426-4.149-3.2541-12.096-5.3239-14.938-1.6701z" stroke="#000" stroke-width="3.2046" fill="#fa0204"/>
 <path stroke-linejoin="round" d="m1848.2 1608.3c-3.9861 2.4648-3.0659 10.873-0.4409 15.525 2.7567 4.8833 9.8673 10.364 14.047 7.7696 4.2176-2.6186 2.7684-11.705-0.1861-16.526-2.7555-4.4956-9.4834-9.2041-13.421-6.7695z" stroke="#000" stroke-width="3.2046" fill="#fa0204"/>
 <path stroke-linejoin="round" d="m1829.9 1605.5c-3.9861 2.4647-3.066 10.873-0.4409 15.525 2.7567 4.8833 9.8673 10.365 14.047 7.7697 4.2176-2.6186 2.7684-11.705-0.1861-16.526-2.7555-4.4957-9.4834-9.2042-13.421-6.7695z" stroke="#000" stroke-width="3.2046" fill="#fa0204"/>
 <path stroke-linejoin="round" d="m1869.2 1175.8c0 5.3802-4.4998 7.4585-13.243 7.4585-8.7429 0-12.786-2.5349-12.786-7.9152 0-5.3802 4.0432-6.6974 12.786-6.6974 8.7429 0 13.243 1.7739 13.243 7.1541z" stroke="#000" stroke-width="3.2046" fill="#fa0204"/>
 <path stroke-linejoin="round" d="m1875.6 1190.1c0 5.3802-4.4998 7.4586-13.243 7.4586-8.7429 0-12.786-2.535-12.786-7.9152 0-5.3803 4.0432-6.6975 12.786-6.6975 8.7429 0 13.243 1.7739 13.243 7.1541z" stroke="#000" stroke-width="3.2046" fill="#fa0204"/>
 <path stroke-linejoin="round" d="m1877.3 1208.7c-1.772 5.0801-6.7053 5.5604-14.96 2.681-8.255-2.8795-11.238-6.6047-9.4658-11.685 1.772-5.0801 6.0234-4.9922 14.278-2.1127 8.2551 2.8794 11.92 6.0364 10.148 11.116z" stroke="#000" stroke-width="3.2046" fill="#fa0204"/>
 <path stroke-linejoin="round" d="m1877.5 1222.5c-1.065 5.2737-5.8872 6.4202-14.457 4.6895-8.5699-1.7307-12.031-5.0159-10.966-10.29 1.065-5.2737 5.289-5.7645 13.859-4.0338 8.5699 1.7306 12.63 4.3602 11.564 9.634z" stroke="#000" stroke-width="3.2046" fill="#fa0204"/>
 <path stroke-linejoin="round" d="m1881.5 1238.6c-1.065 5.2737-5.8872 6.4202-14.457 4.6895-8.5699-1.7307-12.031-5.0159-10.966-10.29 1.065-5.2737 5.289-5.7645 13.859-4.0338 8.5699 1.7306 12.63 4.3602 11.564 9.634z" stroke="#000" stroke-width="3.2046" fill="#fa0204"/>
 <path stroke-linejoin="round" d="m1924 1220.8c-2.5904-0.6912-2.3033-5.3033-1.583-7.8857 1.107-3.9686 8.3538-9.11 8.3538-9.11s1.7671 5.5627 0.9501 8.1851c-1.1615 3.7283-3.948 9.8173-7.7209 8.8106z" stroke="#000" stroke-width="3.2046" fill="#fa0204"/>
 <path stroke-linejoin="round" d="m1914.6 1229.1c-2.8216-0.6217-3.1818-5.5227-2.444-8.3162 1.142-4.3238 9.6454-9.3253 9.6454-9.3253s1.4762 6.0417 0.5196 8.831c-1.2669 3.6937-3.9075 9.6508-7.721 8.8105z" stroke="#000" stroke-width="3.2046" fill="#fa0204"/>
 <path stroke-linejoin="round" d="m1901.5 1240c-4.2916-1.1384-3.8048-8.7623-2.6592-13.052 0.946-3.5426 3.7155-9.1195 7.2774-8.2489 4.1673 1.0185 4.1144 8.3214 3.1027 12.49-0.9208 3.7948-3.9464 9.8117-7.7209 8.8105z" stroke="#000" stroke-width="3.2046" fill="#fa0204"/>
 <path stroke-linejoin="round" d="m1888.7 1252.2c-4.2142-0.9262-6.0068-7.6384-5.1637-11.87 0.8851-4.4419 5.3598-10.41 9.7819-9.4309 4.4624 0.9884 6.0053 8.3528 4.9293 12.795-1.0033 4.1426-5.3845 9.4211-9.5475 8.5061z" stroke="#000" stroke-width="3.2046" fill="#fa0204"/>
 <path stroke-linejoin="round" d="m1929.3 1250.9c-3.2434 2.8459-9.7124 0.3125-12.622-2.8742-3.0537-3.345-5.2098-10.486-1.8005-13.468 3.4404-3.009 10.287 0.1121 13.228 3.611 2.7423 3.263 4.3982 9.9199 1.1944 12.731z" stroke="#000" stroke-width="3.2046" fill="#fa0204"/>
 <path stroke-linejoin="round" d="m1922.3 1263.7c-3.2434 2.8459-9.7124 0.3125-12.622-2.8742-3.0537-3.3451-5.2098-10.486-1.8005-13.468 3.4404-3.0089 10.287 0.1122 13.228 3.6111 2.7423 3.263 4.3982 9.9199 1.1944 12.731z" stroke="#000" stroke-width="3.2046" fill="#fa0204"/>
 <path stroke-linejoin="round" d="m1909.8 1274.3c-3.2433 2.8458-9.7124 0.3124-12.622-2.8742-3.0536-3.3451-5.2098-10.486-1.8005-13.468 3.4404-3.0089 10.287 0.1122 13.228 3.611 2.7424 3.263 4.3983 9.92 1.1944 12.731z" stroke="#000" stroke-width="3.2046" fill="#fa0204"/>
 <path stroke-linejoin="round" d="m1905.2 1281.2c-1.1383 4.1621-7.9325 5.6128-12.116 4.5566-4.3915-1.1087-10.126-5.8797-8.9239-10.247 1.2128-4.4066 8.646-5.5749 13.028-4.2756 4.0865 1.2117 9.1366 5.8543 8.0121 9.9656z" stroke="#000" stroke-width="3.2046" fill="#fa0204"/>
 <path stroke-linejoin="round" d="m1886.5 1259.6c-1.0768 5.087-7.5039 6.86-11.461 5.5691-4.1541-1.355-9.5785-7.1863-8.4416-12.524 1.1474-5.3859 8.1788-6.8138 12.324-5.2257 3.8656 1.4809 8.6428 7.1552 7.5791 12.18z" stroke="#000" stroke-width="3.2046" fill="#fa0204"/>
 <path stroke-linejoin="round" d="m1826.8 1219.1c5.2115 1.0469 5.1081 7.1209 2.4435 10.846-2.7971 3.9106-10.884 8.9923-16.349 7.8872-5.5156-1.1152-4.8437-7.7572-1.7951-11.658 2.843-3.6377 10.553-8.1097 15.701-7.0757z" stroke="#000" stroke-width="3.2046" fill="#fa0204"/>
 <path stroke-linejoin="round" d="m1801.5 1210.3s5.1379 2.5312 7.3489 4.7921c2.321 2.3733 5.1107 3.3218 3.709 6.9229-1.4145 3.6339-5.8427 2.3881-8.1269-0.1558-2.1302-2.3723-2.931-11.559-2.931-11.559z" stroke="#000" stroke-width="3.2046" fill="#fa0204"/>
 <path stroke-linejoin="round" d="m1844.3 1230.6c4.8531 2.1688 3.4146 8.0709 0 11.118-3.5896 3.1987-12.597 6.3749-17.685 4.0932-5.1345-2.3024-3.0165-8.6334 0.8162-11.767 3.5744-2.9224 12.08-5.5868 16.874-3.4444z" stroke="#000" stroke-width="3.2046" fill="#fa0204"/>
 <path stroke-linejoin="round" d="m1858.3 1241.2c4.8531 2.1689 3.4146 8.071 0 11.118-3.5896 3.1987-12.597 6.3749-17.685 4.0932-5.1345-2.3025-3.0165-8.6334 0.8163-11.767 3.5743-2.9223 12.08-5.5868 16.874-3.4444z" stroke="#000" stroke-width="3.2046" fill="#fa0204"/>
 <path stroke-linejoin="round" d="m1863 1250.7c4.7874 0.7544 6.069 7.4153 4.5846 11.696-1.5593 4.494-7.4731 10.669-12.496 9.8697-5.0684-0.8064-5.9818-8.1322-4.2007-12.634 1.6611-4.1985 7.3836-9.6772 12.113-8.932z" stroke="#000" stroke-width="3.2046" fill="#fa0204"/>
 <path stroke-linejoin="round" d="m1789 1225.4c4.2435-0.3761 7.1824 5.9652 7.1269 10.585-0.059 4.8498-3.317 12.403-7.771 12.79-4.4945 0.3906-7.3089-6.7007-7.0653-11.611 0.2273-4.5791 3.5185-11.393 7.7102-11.764z" stroke="#000" stroke-width="3.2046" fill="#fa0204"/>
 <path stroke-linejoin="round" d="m1802.9 1237.6c4.1568 0.9325 5.0275 7.8673 3.5694 12.251-1.5316 4.6021-6.9326 10.806-11.293 9.82-4.4004-0.9952-4.9243-8.6065-3.1985-13.21 1.6094-4.293 6.8172-9.7825 10.923-8.8615z" stroke="#000" stroke-width="3.2046" fill="#fa0204"/>
 <path stroke-linejoin="round" d="m1815.8 1246.2c4.9212 1.1581 5.952 9.7707 4.2258 15.215-1.8133 5.7155-8.2076 13.42-13.37 12.196-5.2096-1.2359-5.8298-10.689-3.7868-16.406 1.9054-5.3317 8.071-12.149 12.932-11.006z" stroke="#000" stroke-width="3.2046" fill="#fa0204"/>
 <path stroke-linejoin="round" d="m1826.2 1256.8c5.0144-0.6444 9.0048 7.0573 9.301 12.761 0.3098 5.9882-2.9706 15.448-8.2344 16.115-5.3117 0.6727-9.2128-7.9599-9.3081-14.03-0.089-5.6613 3.2892-14.21 8.2424-14.847z" stroke="#000" stroke-width="3.2046" fill="#fa0204"/>
 <path stroke-linejoin="round" d="m1838.6 1265.7c4.5564-0.5341 8.1822 5.85 8.4514 10.578 0.2815 4.9637-2.6993 12.805-7.4822 13.358-4.8266 0.5576-8.3713-6.5981-8.4579-11.63-0.081-4.6927 2.9887-11.779 7.4895-12.307z" stroke="#000" stroke-width="3.2046" fill="#fa0204"/>
 <path stroke-linejoin="round" d="m1831.3 1312.9c-3.3916 3.2346-0.7555 11.272 2.7733 15.282 3.7054 4.2091 11.794 8.1045 15.348 4.7027 3.5863-3.4329 0.2927-12.024-3.5934-16.131-3.6241-3.83-11.179-7.0483-14.529-3.8532z" stroke="#000" stroke-width="3.2046" fill="#fa0204"/>
 <path stroke-linejoin="round" d="m1840 1301.7c-3.3916 3.2345-0.7555 11.272 2.7733 15.282 3.7054 4.209 11.794 8.1044 15.348 4.7026 3.5863-3.4328 0.2927-12.024-3.5934-16.131-3.6241-3.83-11.179-7.0482-14.529-3.8532z" stroke="#000" stroke-width="3.2046" fill="#fa0204"/>
 <path stroke-linejoin="round" d="m1824 1326.7c-3.3916 3.2345-0.7555 11.272 2.7733 15.282 3.7054 4.209 11.794 8.1045 15.348 4.7026 3.5863-3.4328 0.2927-12.024-3.5934-16.131-3.6241-3.8301-11.179-7.0483-14.529-3.8533z" stroke="#000" stroke-width="3.2046" fill="#fa0204"/>
 <path stroke-linejoin="round" d="m1851.4 1276c4.5563-0.5341 8.1822 5.85 8.4513 10.578 0.2816 4.9637-2.6992 12.805-7.4821 13.358-4.8266 0.5577-8.3714-6.598-8.4579-11.63-0.081-4.6927 2.9887-11.779 7.4895-12.307z" stroke="#000" stroke-width="3.2046" fill="#fa0204"/>
 <path stroke-linejoin="round" d="m1875.1 1265.3c3.9649 2.3077 3.0331 9.5902 0.4105 13.533-2.7541 4.1391-9.845 8.622-14.002 6.1932-4.1951-2.451-2.7353-10.302 0.2157-14.379 2.7522-3.8018 9.4605-7.6274 13.377-5.3479z" stroke="#000" stroke-width="3.2046" fill="#fa0204"/>
 <path stroke-linejoin="round" d="m1869.6 1287.5c3.9649 2.3077 3.0332 9.5902 0.4105 13.533-2.7541 4.1392-9.8449 8.622-14.002 6.1932-4.1952-2.451-2.7354-10.302 0.2157-14.379 2.7522-3.8017 9.4604-7.6273 13.377-5.3479z" stroke="#000" stroke-width="3.2046" fill="#fa0204"/>
 <path stroke-linejoin="round" d="m1887.2 1278.2c3.6414 2.5388 2.7856 10.551 0.377 14.889-2.5295 4.5537-9.0418 9.4855-12.86 6.8135-3.8529-2.6965-2.5122-11.334 0.1981-15.819 2.5276-4.1825 8.6887-8.3913 12.286-5.8835z" stroke="#000" stroke-width="3.2046" fill="#fa0204"/>
 <path stroke-linejoin="round" d="m1882.2 1303.2c2.4423 3.7068-1.3196 10.832-5.1636 13.97-4.036 3.2931-11.912 5.4626-14.469 1.5665-2.5804-3.9315 1.8636-11.458 6.0421-14.621 3.8968-2.949 11.178-4.577 13.591-0.9154z" stroke="#000" stroke-width="3.2046" fill="#fa0204"/>
 <path stroke-linejoin="round" d="m1885 1319.3c2.4424 3.7068-1.3195 10.832-5.1635 13.97-4.036 3.2931-11.912 5.4626-14.469 1.5665-2.5804-3.9315 1.8637-11.458 6.0422-14.621 3.8968-2.949 11.178-4.5769 13.591-0.9154z" stroke="#000" stroke-width="3.2046" fill="#fa0204"/>
 <path stroke-linejoin="round" d="m1884.7 1337.3c2.4424 3.7068-1.3196 10.832-5.1635 13.97-4.036 3.2931-11.912 5.4626-14.469 1.5665-2.5804-3.9315 1.8636-11.458 6.0421-14.621 3.8969-2.949 11.178-4.5769 13.591-0.9154z" stroke="#000" stroke-width="3.2046" fill="#fa0204"/>
 <path stroke-linejoin="round" d="m1884.4 1355.5c2.4423 3.7068-1.3196 10.832-5.1636 13.97-4.036 3.2932-11.912 5.4626-14.469 1.5666-2.5804-3.9316 1.8636-11.458 6.0421-14.621 3.8968-2.9491 11.178-4.577 13.591-0.9155z" stroke="#000" stroke-width="3.2046" fill="#fa0204"/>
 <path stroke-linejoin="round" d="m1884.1 1372.3c2.4424 3.7068-1.3196 10.832-5.1635 13.97-4.036 3.2931-11.912 5.4626-14.469 1.5665-2.5804-3.9315 1.8637-11.458 6.0422-14.621 3.8968-2.949 11.178-4.5769 13.591-0.9154z" stroke="#000" stroke-width="3.2046" fill="#fa0204"/>
 <path stroke-linejoin="round" d="m1885 1390.2c2.4424 3.7068-1.3196 10.832-5.1635 13.97-4.036 3.2931-11.912 5.4626-14.469 1.5665-2.5804-3.9315 1.8637-11.458 6.0421-14.621 3.8969-2.949 11.178-4.5769 13.591-0.9154z" stroke="#000" stroke-width="3.2046" fill="#fa0204"/>
 <path stroke-linejoin="round" d="m1883.8 1407.6c2.4424 3.7068-1.3196 10.832-5.1635 13.97-4.036 3.2932-11.912 5.4626-14.469 1.5666-2.5804-3.9316 1.8636-11.458 6.0421-14.621 3.8969-2.9491 11.178-4.577 13.591-0.9154z" stroke="#000" stroke-width="3.2046" fill="#fa0204"/>
 <path stroke-linejoin="round" d="m1883.3 1426.1c2.6959 3.8337-1.4565 11.203-5.6994 14.448-4.4549 3.4059-13.148 5.6497-15.971 1.6202-2.8482-4.0661 2.0571-11.85 6.6693-15.121 4.3012-3.05 12.339-4.7336 15.002-0.9467z" stroke="#000" stroke-width="3.2046" fill="#fa0204"/>
 <path stroke-linejoin="round" d="m1882.1 1443.6c3.3915 3.2345 0.7554 11.272-2.7734 15.282-3.7054 4.209-11.794 8.1044-15.348 4.7026-3.5863-3.4328-0.2928-12.024 3.5933-16.131 3.6241-3.83 11.179-7.0482 14.529-3.8532z" stroke="#000" stroke-width="3.2046" fill="#fa0204"/>
 <path stroke-linejoin="round" d="m1882.7 1464c3.3916 3.2345 0.7555 11.272-2.7733 15.282-3.7054 4.209-11.794 8.1045-15.348 4.7027-3.5863-3.4329-0.2927-12.024 3.5933-16.131 3.6242-3.83 11.179-7.0483 14.529-3.8533z" stroke="#000" stroke-width="3.2046" fill="#fa0204"/>
 <path stroke-linejoin="round" d="m1883 1484.1c3.3915 3.2346 0.7554 11.272-2.7734 15.282-3.7054 4.2091-11.794 8.1045-15.348 4.7027-3.5863-3.4329-0.2928-12.024 3.5933-16.131 3.6241-3.83 11.179-7.0483 14.529-3.8532z" stroke="#000" stroke-width="3.2046" fill="#fa0204"/>
 <path stroke-linejoin="round" d="m1882.4 1505.7c3.3915 3.2345 0.7555 11.272-2.7734 15.282-3.7054 4.209-11.794 8.1045-15.348 4.7026-3.5863-3.4328-0.2927-12.024 3.5933-16.131 3.6242-3.83 11.179-7.0482 14.529-3.8532z" stroke="#000" stroke-width="3.2046" fill="#fa0204"/>
 <path stroke-linejoin="round" d="m1883 1525.8c3.3915 3.2345 0.7554 11.272-2.7734 15.282-3.7054 4.209-11.794 8.1045-15.348 4.7026-3.5863-3.4328-0.2928-12.024 3.5933-16.131 3.6241-3.8301 11.179-7.0483 14.529-3.8533z" stroke="#000" stroke-width="3.2046" fill="#fa0204"/>
 <path stroke-linejoin="round" d="m1882.4 1546.2c3.3915 3.2346 0.7555 11.272-2.7734 15.282-3.7054 4.2091-11.794 8.1045-15.348 4.7027-3.5863-3.4329-0.2927-12.024 3.5933-16.131 3.6242-3.83 11.179-7.0483 14.529-3.8532z" stroke="#000" stroke-width="3.2046" fill="#fa0204"/>
 <path stroke-linejoin="round" d="m1882.7 1566.6c3.3916 3.2345 0.7555 11.272-2.7733 15.282-3.7054 4.209-11.794 8.1044-15.348 4.7026-3.5863-3.4328-0.2927-12.024 3.5934-16.131 3.6241-3.83 11.179-7.0482 14.529-3.8532z" stroke="#000" stroke-width="3.2046" fill="#fa0204"/>
 <path stroke-linejoin="round" d="m1882.7 1587.3c3.3916 3.2346 0.7555 11.272-2.7733 15.282-3.7054 4.2091-11.794 8.1045-15.348 4.7027-3.5863-3.4329-0.2927-12.024 3.5934-16.131 3.6241-3.83 11.179-7.0483 14.529-3.8532z" stroke="#000" stroke-width="3.2046" fill="#fa0204"/>
 <path stroke-linejoin="round" d="m1881.8 1608c3.3916 3.2345 0.7555 11.272-2.7733 15.282-3.7054 4.209-11.794 8.1045-15.348 4.7026-3.5863-3.4328-0.2927-12.024 3.5934-16.131 3.6241-3.83 11.179-7.0483 14.529-3.8533z" stroke="#000" stroke-width="3.2046" fill="#fa0204"/>
 <path stroke-linejoin="round" d="m1883 1626.9c3.3915 3.2345 0.7554 11.272-2.7734 15.282-3.7054 4.209-11.794 8.1045-15.348 4.7026-3.5863-3.4328-0.2928-12.024 3.5933-16.131 3.6241-3.8301 11.179-7.0483 14.529-3.8533z" stroke="#000" stroke-width="3.2046" fill="#fa0204"/>
 <path stroke-linejoin="round" d="m1883 1646.6c3.3915 3.2345 0.7554 11.272-2.7734 15.282-3.7054 4.209-11.794 8.1044-15.348 4.7026-3.5863-3.4328-0.2928-12.024 3.5933-16.131 3.6241-3.83 11.179-7.0482 14.529-3.8532z" stroke="#000" stroke-width="3.2046" fill="#fa0204"/>
 <path stroke-linejoin="round" d="m1882.4 1667.9c3.3915 3.2345 0.7555 11.272-2.7734 15.282-3.7054 4.209-11.794 8.1045-15.348 4.7026-3.5863-3.4328-0.2927-12.024 3.5933-16.131 3.6242-3.83 11.179-7.0483 14.529-3.8533z" stroke="#000" stroke-width="3.2046" fill="#fa0204"/>
 <path stroke-linejoin="round" d="m1882.4 1689c3.3915 3.2345 0.7555 11.272-2.7734 15.282-3.7054 4.209-11.794 8.1045-15.348 4.7026-3.5863-3.4328-0.2927-12.024 3.5933-16.131 3.6242-3.8301 11.179-7.0483 14.529-3.8533z" stroke="#000" stroke-width="3.2046" fill="#fa0204"/>
 <path stroke-linejoin="round" d="m1832.6 1704.2c-3.3915 3.2345-0.7554 11.272 2.7734 15.282 3.7054 4.209 11.794 8.1045 15.348 4.7027 3.5862-3.4329 0.2927-12.024-3.5934-16.131-3.6241-3.83-11.179-7.0483-14.529-3.8532z" stroke="#000" stroke-width="3.2046" fill="#fa0204"/>
 <path stroke-linejoin="round" d="m1833.3 1682c-3.3915 3.2345-0.7555 11.272 2.7734 15.282 3.7054 4.209 11.794 8.1045 15.348 4.7026 3.5863-3.4328 0.2927-12.024-3.5933-16.131-3.6241-3.8301-11.179-7.0483-14.529-3.8533z" stroke="#000" stroke-width="3.2046" fill="#fa0204"/>
 <path stroke-linejoin="round" d="m1833.3 1662.2c-3.3915 3.2345-0.7555 11.272 2.7734 15.282 3.7054 4.209 11.794 8.1045 15.348 4.7027 3.5863-3.4329 0.2927-12.024-3.5933-16.131-3.6241-3.83-11.179-7.0483-14.529-3.8533z" stroke="#000" stroke-width="3.2046" fill="#fa0204"/>
 <path stroke-linejoin="round" d="m1833.3 1640.9c-3.3915 3.2345-0.7555 11.272 2.7734 15.282 3.7054 4.209 11.794 8.1045 15.348 4.7026 3.5863-3.4328 0.2927-12.024-3.5933-16.131-3.6241-3.8301-11.179-7.0483-14.529-3.8533z" stroke="#000" stroke-width="3.2046" fill="#fa0204"/>
 <path stroke-linejoin="round" d="m1833.9 1618c-3.3916 3.2345-0.7555 11.272 2.7733 15.282 3.7054 4.209 11.794 8.1045 15.348 4.7026 3.5863-3.4328 0.2927-12.024-3.5934-16.131-3.6241-3.8301-11.179-7.0483-14.529-3.8533z" stroke="#000" stroke-width="3.2046" fill="#fa0204"/>
 <path stroke-linejoin="round" d="m1833.9 1596.1c-3.3916 3.2345-0.7555 11.272 2.7733 15.282 3.7054 4.209 11.794 8.1045 15.348 4.7026 3.5863-3.4328 0.2927-12.024-3.5934-16.131-3.6241-3.83-11.179-7.0483-14.529-3.8533z" stroke="#000" stroke-width="3.2046" fill="#fa0204"/>
 <path stroke-linejoin="round" d="m1835.1 1576c-3.3916 3.2345-0.7555 11.272 2.7733 15.282 3.7054 4.209 11.794 8.1045 15.348 4.7026 3.5863-3.4328 0.2927-12.024-3.5933-16.131-3.6242-3.8301-11.179-7.0483-14.529-3.8533z" stroke="#000" stroke-width="3.2046" fill="#fa0204"/>
 <path stroke-linejoin="round" d="m1835.7 1556.2c-3.3915 3.2345-0.7554 11.272 2.7734 15.282 3.7054 4.209 11.794 8.1045 15.348 4.7027 3.5862-3.4329 0.2927-12.024-3.5934-16.131-3.6241-3.83-11.179-7.0483-14.529-3.8533z" stroke="#000" stroke-width="3.2046" fill="#fa0204"/>
 <path stroke-linejoin="round" d="m1835.7 1536.4c-3.3915 3.2346-0.7554 11.272 2.7734 15.282 3.7054 4.2091 11.794 8.1045 15.348 4.7027 3.5862-3.4329 0.2927-12.024-3.5934-16.131-3.6241-3.83-11.179-7.0483-14.529-3.8532z" stroke="#000" stroke-width="3.2046" fill="#fa0204"/>
 <path stroke-linejoin="round" d="m1835.1 1516c-3.3916 3.2345-0.7555 11.272 2.7733 15.282 3.7054 4.209 11.794 8.1045 15.348 4.7026 3.5863-3.4328 0.2927-12.024-3.5933-16.131-3.6242-3.83-11.179-7.0483-14.529-3.8533z" stroke="#000" stroke-width="3.2046" fill="#fa0204"/>
 <path stroke-linejoin="round" d="m1834.8 1496.9c-3.3915 3.2345-0.7554 11.272 2.7734 15.282 3.7054 4.209 11.794 8.1045 15.348 4.7026 3.5862-3.4328 0.2927-12.024-3.5934-16.131-3.6241-3.8301-11.179-7.0483-14.529-3.8533z" stroke="#000" stroke-width="3.2046" fill="#fa0204"/>
 <path stroke-linejoin="round" d="m1836 1476.8c-3.3916 3.2345-0.7555 11.272 2.7733 15.282 3.7054 4.209 11.794 8.1044 15.348 4.7026 3.5863-3.4328 0.2927-12.024-3.5934-16.131-3.6241-3.83-11.179-7.0482-14.529-3.8532z" stroke="#000" stroke-width="3.2046" fill="#fa0204"/>
 <path stroke-linejoin="round" d="m1836 1456.4c-3.3916 3.2346-0.7555 11.272 2.7733 15.282 3.7054 4.2091 11.794 8.1045 15.348 4.7027 3.5863-3.4329 0.2927-12.024-3.5934-16.131-3.6241-3.83-11.179-7.0483-14.529-3.8532z" stroke="#000" stroke-width="3.2046" fill="#fa0204"/>
 <path stroke-linejoin="round" d="m1833.6 1439.3c-3.3915 3.2346-0.7554 11.272 2.7734 15.282 3.7054 4.2091 11.794 8.1045 15.348 4.7027 3.5863-3.4329 0.2928-12.024-3.5933-16.131-3.6241-3.83-11.179-7.0483-14.529-3.8532z" stroke="#000" stroke-width="3.2046" fill="#fa0204"/>
 <path stroke-linejoin="round" d="m1836 1422c-3.3916 3.2345-0.7555 11.272 2.7733 15.282 3.7054 4.209 11.794 8.1045 15.348 4.7026 3.5863-3.4328 0.2927-12.024-3.5934-16.131-3.6241-3.8301-11.179-7.0483-14.529-3.8533z" stroke="#000" stroke-width="3.2046" fill="#fa0204"/>
 <path stroke-linejoin="round" d="m1833.6 1400.7c-3.3915 3.2345-0.7554 11.272 2.7734 15.282 3.7054 4.209 11.794 8.1044 15.348 4.7026 3.5863-3.4328 0.2928-12.024-3.5933-16.131-3.6241-3.83-11.179-7.0482-14.529-3.8532z" stroke="#000" stroke-width="3.2046" fill="#fa0204"/>
 <path stroke-linejoin="round" d="m1836.9 1381.5c-3.3916 3.2345-0.7555 11.272 2.7733 15.282 3.7054 4.209 11.794 8.1044 15.348 4.7026 3.5863-3.4329 0.2927-12.024-3.5934-16.131-3.6241-3.83-11.179-7.0483-14.529-3.8532z" stroke="#000" stroke-width="3.2046" fill="#fa0204"/>
 <path stroke-linejoin="round" d="m1836 1360.8c-3.3916 3.2345-0.7555 11.272 2.7733 15.282 3.7054 4.209 11.794 8.1044 15.348 4.7026 3.5863-3.4328 0.2927-12.024-3.5934-16.131-3.6241-3.83-11.179-7.0482-14.529-3.8532z" stroke="#000" stroke-width="3.2046" fill="#fa0204"/>
 <path stroke-linejoin="round" d="m1835.7 1339.5c-3.3915 3.2346-0.7554 11.272 2.7734 15.282 3.7054 4.2091 11.794 8.1045 15.348 4.7027 3.5863-3.4329 0.2928-12.024-3.5933-16.131-3.6241-3.83-11.179-7.0483-14.529-3.8532z" stroke="#000" stroke-width="3.2046" fill="#fa0204"/>
 <path stroke-linejoin="round" d="m1836 1319.4c-3.3916 3.2346-0.7555 11.272 2.7733 15.282 3.7054 4.2091 11.794 8.1045 15.348 4.7027 3.5863-3.4329 0.2927-12.024-3.5934-16.131-3.6241-3.83-11.179-7.0483-14.529-3.8532z" stroke="#000" stroke-width="3.2046" fill="#fa0204"/>
 <path stroke-linejoin="round" d="m1820.8 1339.5c-4.3482 1.7486-4.8759 10.191-3.083 15.222 1.8833 5.282 7.9545 11.896 12.516 10.052 4.6026-1.8607 4.7247-11.061 2.6358-16.315-1.9481-4.8998-7.7742-10.687-12.069-8.9598z" stroke="#000" stroke-width="3.2046" fill="#fa0204"/>
 <path stroke-linejoin="round" d="m1810.3 1354.4c-4.3482 1.7486-4.8759 10.191-3.083 15.222 1.8833 5.282 7.9546 11.896 12.516 10.052 4.6026-1.8607 4.7247-11.061 2.6359-16.315-1.9482-4.8998-7.7742-10.687-12.07-8.9598z" stroke="#000" stroke-width="3.2046" fill="#fa0204"/>
 <path stroke-linejoin="round" d="m1802.7 1371c-4.5705 1.0369-6.4304 9.2885-5.4581 14.541 1.0218 5.5138 5.9673 13.007 10.763 11.91 4.8395-1.1073 6.4191-10.172 5.1899-15.69-1.1464-5.1468-5.981-11.785-10.496-10.76z" stroke="#000" stroke-width="3.2046" fill="#fa0204"/>
 <path stroke-linejoin="round" d="m1792.5 1387c-4.5705 1.0369-6.4303 9.2885-5.4581 14.541 1.0218 5.5138 5.9673 13.007 10.763 11.91 4.8394-1.1073 6.419-10.172 5.1898-15.69-1.1464-5.1468-5.9809-11.785-10.496-10.76z" stroke="#000" stroke-width="3.2046" fill="#fa0204"/>
 <path stroke-linejoin="round" d="m1784.1 1403.3c-4.6836 0.1712-8.0416 7.9347-8.0603 13.276-0.019 5.6077 3.4514 13.888 8.3674 13.699 4.9609-0.1905 8.1942-8.8046 8.0099-14.456-0.1719-5.2701-3.6915-12.69-8.3179-12.52z" stroke="#000" stroke-width="3.2046" fill="#fa0204"/>
 <path stroke-linejoin="round" d="m1773.7 1422.5c-4.6835 0.1712-8.0415 7.9347-8.0602 13.276-0.019 5.6076 3.4514 13.888 8.3674 13.699 4.9609-0.1904 8.1942-8.8046 8.0099-14.456-0.172-5.2701-3.6915-12.69-8.3179-12.52z" stroke="#000" stroke-width="3.2046" fill="#fa0204"/>
 <path stroke-linejoin="round" d="m1761.7 1440.3c-4.6835 0.1712-8.0415 7.9347-8.0602 13.276-0.019 5.6076 3.4514 13.888 8.3674 13.699 4.9608-0.1905 8.1942-8.8046 8.0099-14.456-0.172-5.2701-3.6915-12.69-8.3179-12.52z" stroke="#000" stroke-width="3.2046" fill="#fa0204"/>
 <path stroke-linejoin="round" d="m1749.2 1455.6c-4.6835 0.1712-8.0416 7.9347-8.0603 13.276-0.019 5.6076 3.4514 13.888 8.3675 13.699 4.9608-0.1905 8.1941-8.8046 8.0099-14.456-0.172-5.2701-3.6916-12.69-8.318-12.52z" stroke="#000" stroke-width="3.2046" fill="#fa0204"/>
 <path stroke-linejoin="round" d="m1736.3 1469.8c-4.6835 0.1713-8.0416 7.9347-8.0603 13.276-0.019 5.6077 3.4514 13.888 8.3675 13.699 4.9608-0.1905 8.1941-8.8046 8.0099-14.456-0.172-5.2701-3.6916-12.69-8.318-12.52z" stroke="#000" stroke-width="3.2046" fill="#fa0204"/>
 <path stroke-linejoin="round" d="m1722.1 1481.4c-4.6835 0.1712-8.0415 7.9347-8.0603 13.276-0.019 5.6077 3.4515 13.888 8.3675 13.699 4.9608-0.1905 8.1941-8.8046 8.0099-14.456-0.172-5.2701-3.6916-12.69-8.318-12.52z" stroke="#000" stroke-width="3.2046" fill="#fa0204"/>
 <path stroke-linejoin="round" d="m1708.5 1493.9c-4.6835 0.1712-8.0415 7.9347-8.0602 13.276-0.019 5.6076 3.4514 13.888 8.3674 13.699 4.9608-0.1905 8.1942-8.8046 8.0099-14.456-0.172-5.2701-3.6915-12.69-8.3179-12.52z" stroke="#000" stroke-width="3.2046" fill="#fa0204"/>
 <path stroke-linejoin="round" d="m1692.8 1500.2-5.2618 20.595s2.9353 7.3347 5.9995 7.026c5.4811-0.552 6.9648-9.0469 8.0099-14.456 0.9476-8.4237-8.7476-13.166-8.7476-13.166z" stroke="#000" stroke-width="3.2046" fill="#fa0204"/>
 <path stroke-linejoin="round" d="m1648.2 1517.5c-4.1667-2.1454-10.898 2.9772-13.531 7.6245-2.7637 4.8794-3.7956 13.798 0.5824 16.042 4.4179 2.2645 11.457-3.6607 14.065-8.6773 2.4321-4.6785 2.9991-12.871-1.1168-14.99z" stroke="#000" stroke-width="3.2046" fill="#fa0204"/>
 <path stroke-linejoin="round" d="m1642 1534.4c-4.4151-1.5719-10.405 4.4008-12.396 9.3572-2.0898 5.2037-1.9258 14.18 2.7119 15.822 4.6799 1.6566 10.868-5.1526 12.786-10.472 1.7879-4.9605 1.2598-13.155-3.1015-14.708z" stroke="#000" stroke-width="3.2046" fill="#fa0204"/>
 <path stroke-linejoin="round" d="m1647.7 1549.9c-4.5395-1.1649-9.9626 5.3264-11.496 10.443-1.6092 5.3718-0.6317 14.296 4.1358 15.511 4.8109 1.2252 10.356-6.1173 11.783-11.588 1.3306-5.1022 0.061-13.215-4.4229-14.366z" stroke="#000" stroke-width="3.2046" fill="#fa0204"/>
 <path stroke-linejoin="round" d="m1662.4 1556.3c-4.499-1.3127-10.132 4.9978-11.832 10.062-1.784 5.3163-1.0989 14.268 3.6263 15.638 4.7683 1.3819 10.55-5.7753 12.156-11.197 1.4968-5.056 0.4935-13.206-3.9506-14.503z" stroke="#000" stroke-width="3.2046" fill="#fa0204"/>
 <path stroke-linejoin="round" d="m1671.9 1558.8c-4.5474 1.1337-6.2318 9.4229-5.1483 14.654 1.1385 5.4908 6.242 12.877 11.013 11.679 4.8148-1.2097 6.2017-10.306 4.8557-15.797-1.2554-5.1213-6.2297-11.655-10.722-10.535z" stroke="#000" stroke-width="3.2046" fill="#fa0204"/>
 <path stroke-linejoin="round" d="m1688.7 1565.1c-4.5475 1.1337-6.2319 9.4229-5.1483 14.653 1.1385 5.4909 6.242 12.877 11.013 11.679 4.8149-1.2097 6.2017-10.306 4.8558-15.797-1.2554-5.1212-6.2298-11.655-10.722-10.535z" stroke="#000" stroke-width="3.2046" fill="#fa0204"/>
 <path stroke-linejoin="round" d="m1701.6 1575.6c-3.9861 2.4647-3.066 10.873-0.4409 15.525 2.7567 4.8833 9.8673 10.365 14.047 7.7697 4.2177-2.6186 2.7685-11.705-0.186-16.526-2.7555-4.4957-9.4834-9.2042-13.421-6.7695z" stroke="#000" stroke-width="3.2046" fill="#fa0204"/>
 <path stroke-linejoin="round" d="m1720.6 1583.3c-3.9861 2.4648-3.066 10.873-0.4409 15.525 2.7567 4.8833 9.8673 10.364 14.047 7.7696 4.2177-2.6186 2.7685-11.705-0.186-16.526-2.7555-4.4956-9.4834-9.2041-13.421-6.7695z" stroke="#000" stroke-width="3.2046" fill="#fa0204"/>
 <path stroke-linejoin="round" d="m1738.6 1586.1c-3.9861 2.4647-3.0659 10.873-0.4409 15.525 2.7567 4.8833 9.8673 10.365 14.047 7.7697 4.2176-2.6187 2.7684-11.705-0.1861-16.526-2.7555-4.4956-9.4834-9.2041-13.421-6.7694z" stroke="#000" stroke-width="3.2046" fill="#fa0204"/>
 <path stroke-linejoin="round" d="m1758.4 1591.1c-3.9861 2.4648-3.066 10.873-0.4409 15.525 2.7567 4.8833 9.8673 10.364 14.047 7.7696 4.2177-2.6186 2.7685-11.705-0.186-16.526-2.7555-4.4956-9.4834-9.2041-13.421-6.7694z" stroke="#000" stroke-width="3.2046" fill="#fa0204"/>
 <path stroke-linejoin="round" d="m1776.3 1593.7c-3.9862 2.4648-3.066 10.873-0.4409 15.525 2.7567 4.8833 9.8673 10.364 14.047 7.7696 4.2177-2.6186 2.7685-11.705-0.186-16.526-2.7555-4.4956-9.4834-9.2041-13.421-6.7695z" stroke="#000" stroke-width="3.2046" fill="#fa0204"/>
 <path stroke-linejoin="round" d="m1794 1597.3c-3.9861 2.4648-3.066 10.873-0.4409 15.525 2.7567 4.8833 9.8673 10.364 14.047 7.7696 4.2177-2.6186 2.7685-11.705-0.186-16.526-2.7555-4.4956-9.4834-9.2041-13.421-6.7695z" stroke="#000" stroke-width="3.2046" fill="#fa0204"/>
 <path stroke-linejoin="round" d="m1812.1 1602.3c-3.9861 2.4648-3.0659 10.873-0.4409 15.525 2.7567 4.8832 9.8673 10.364 14.047 7.7696 4.2177-2.6186 2.7684-11.705-0.186-16.526-2.7555-4.4957-9.4835-9.2041-13.421-6.7695z" stroke="#000" stroke-width="3.2046" fill="#fa0204"/>
 <path stroke-linejoin="round" d="m1898.8 1604.9c-2.8778 3.699 0.9139 11.26 4.9952 14.706 4.2852 3.617 12.86 6.2778 15.874 2.3894 3.0412-3.9238-1.4825-11.936-5.9313-15.426-4.149-3.2541-12.096-5.3239-14.939-1.67z" stroke="#000" stroke-width="3.2046" fill="#fa0204"/>
 <path stroke-linejoin="round" d="m1916.2 1603.8c-2.2897 4.0891 2.5943 10.995 7.1468 13.79 4.7797 2.9327 13.657 4.2758 16.052-0.021 2.4176-4.336-3.2579-11.578-8.1802-14.36-4.5906-2.5942-12.758-3.4473-15.02 0.592z" stroke="#000" stroke-width="3.2046" fill="#fa0204"/>
 <path stroke-linejoin="round" d="m1936.2 1600.6c-2.2898 4.0892 2.5942 10.995 7.1467 13.79 4.7797 2.9326 13.657 4.2757 16.052-0.021 2.4176-4.336-3.2579-11.578-8.1802-14.36-4.5906-2.5943-12.758-3.4474-15.02 0.5919z" stroke="#000" stroke-width="3.2046" fill="#fa0204"/>
 <path stroke-linejoin="round" d="m1953.5 1595.4c-1.9026 4.283 3.5981 10.709 8.389 13.071 5.03 2.4789 13.993 2.9969 15.982-1.5028 2.0071-4.5407-4.3126-11.228-9.4707-13.544-4.8105-2.1594-13.022-2.255-14.901 1.9759z" stroke="#000" stroke-width="3.2046" fill="#fa0204"/>
 <path stroke-linejoin="round" d="m1972.4 1589.8c-1.9026 4.283 3.5981 10.709 8.389 13.071 5.03 2.4789 13.993 2.9969 15.982-1.5028 2.007-4.5407-4.3127-11.228-9.4708-13.544-4.8105-2.1594-13.022-2.2549-14.901 1.9759z" stroke="#000" stroke-width="3.2046" fill="#fa0204"/>
 <path stroke-linejoin="round" d="m1991.3 1583.9c-1.6462 4.3879 4.2246 10.478 9.1467 12.552 5.1677 2.1773 14.146 2.1649 15.865-2.4445 1.7353-4.6513-4.9685-10.953-10.254-12.96-4.9296-1.8714-13.132-1.4816-14.758 2.8528z" stroke="#000" stroke-width="3.2046" fill="#fa0204"/>
 <path stroke-linejoin="round" d="m2010.4 1577.7c-1.6462 4.388 4.2245 10.478 9.1467 12.552 5.1676 2.1774 14.146 2.1649 15.865-2.4445 1.7352-4.6513-4.9685-10.953-10.254-12.96-4.9296-1.8714-13.132-1.4816-14.758 2.8529z" stroke="#000" stroke-width="3.2046" fill="#fa0204"/>
 <path stroke-linejoin="round" d="m2028.9 1569.9c-1.6461 4.388 4.2246 10.478 9.1467 12.553 5.1677 2.1773 14.146 2.1649 15.865-2.4445 1.7352-4.6513-4.9686-10.953-10.254-12.96-4.9296-1.8714-13.132-1.4817-14.758 2.8528z" stroke="#000" stroke-width="3.2046" fill="#fa0204"/>
 <path stroke-linejoin="round" d="m2048.7 1561.7c-1.6462 4.388 4.2246 10.478 9.1467 12.552 5.1677 2.1774 14.146 2.1649 15.865-2.4445 1.7353-4.6513-4.9685-10.953-10.254-12.96-4.9297-1.8714-13.132-1.4816-14.758 2.8529z" stroke="#000" stroke-width="3.2046" fill="#fa0204"/>
 <path stroke-linejoin="round" d="m2068.8 1555.3c-1.6461 4.388 4.2246 10.478 9.1467 12.553 5.1677 2.1773 14.146 2.1649 15.865-2.4445 1.7352-4.6513-4.9686-10.953-10.254-12.96-4.9297-1.8714-13.132-1.4817-14.758 2.8528z" stroke="#000" stroke-width="3.2046" fill="#fa0204"/>
 <path stroke-linejoin="round" d="m2071.1 1539.5c-1.6461 4.388 4.2246 10.478 9.1467 12.552 5.1677 2.1774 14.146 2.1649 15.865-2.4444 1.7352-4.6514-4.9686-10.954-10.254-12.96-4.9296-1.8715-13.132-1.4817-14.758 2.8528z" stroke="#000" stroke-width="3.2046" fill="#fa0204"/>
 <path stroke-linejoin="round" d="m2066.7 1534.9s13.55 1.9917 14.789-2.8749c1.6456-6.4625-15.421-12.745-15.421-12.745z" stroke="#000" stroke-width="3.2046" fill="#fa0204"/>
 <path stroke-linejoin="round" d="m2017.2 1513.3c1.6097 6.1241 15.26 11.314 15.26 11.314l-6.6509-27.758c-5.7168 0.154-9.4945 12.436-8.6089 16.444z" stroke="#000" stroke-width="3.2046" fill="#fa0204"/>
 <path stroke-linejoin="round" d="m2016 1491c-4.3589-1.7217-10.549 4.0428-12.709 8.9283-2.2663 5.1293-2.4091 14.106 2.1699 15.905 4.6206 1.8154 11.038-4.7785 13.136-10.029 1.9564-4.8966 1.7085-13.105-2.5973-14.806z" stroke="#000" stroke-width="3.2046" fill="#fa0204"/>
 <path stroke-linejoin="round" d="m2000.8 1478.7c-4.6803-0.2433-8.7113 7.193-9.202 12.512-0.5142 5.584 2.2105 14.139 7.124 14.385 4.9583 0.2487 8.9402-8.046 9.2562-13.691 0.2944-5.2647-2.5557-12.966-7.1789-13.206z" stroke="#000" stroke-width="3.2046" fill="#fa0204"/>
 <path stroke-linejoin="round" d="m1987.4 1465c-4.6803-0.2434-8.7113 7.193-9.2021 12.512-0.5141 5.584 2.2106 14.139 7.1241 14.385 4.9582 0.2487 8.9402-8.046 9.2561-13.691 0.2944-5.2646-2.5556-12.966-7.1789-13.206z" stroke="#000" stroke-width="3.2046" fill="#fa0204"/>
 <path stroke-linejoin="round" d="m1974.9 1449.4c-4.6803-0.2433-8.7113 7.193-9.202 12.512-0.5141 5.584 2.2105 14.139 7.124 14.385 4.9583 0.2487 8.9402-8.046 9.2562-13.691 0.2944-5.2647-2.5557-12.966-7.1789-13.206z" stroke="#000" stroke-width="3.2046" fill="#fa0204"/>
 <path stroke-linejoin="round" d="m1962.2 1436.4c-4.6802-0.2433-8.7112 7.193-9.202 12.512-0.5141 5.5841 2.2105 14.139 7.1241 14.385 4.9582 0.2486 8.9401-8.046 9.2561-13.691 0.2944-5.2647-2.5556-12.966-7.1789-13.207z" stroke="#000" stroke-width="3.2046" fill="#fa0204"/>
 <path stroke-linejoin="round" d="m1951.8 1418.4c-4.6803-0.2433-8.7113 7.193-9.202 12.512-0.5142 5.5841 2.2105 14.139 7.124 14.385 4.9583 0.2486 8.9402-8.046 9.2562-13.691 0.2944-5.2647-2.5557-12.966-7.1789-13.207z" stroke="#000" stroke-width="3.2046" fill="#fa0204"/>
 <path stroke-linejoin="round" d="m1940.5 1402.3c-4.6803-0.2433-8.7113 7.193-9.2021 12.512-0.5141 5.5841 2.2106 14.139 7.1241 14.385 4.9582 0.2486 8.9402-8.046 9.2561-13.691 0.2944-5.2647-2.5556-12.966-7.1789-13.207z" stroke="#000" stroke-width="3.2046" fill="#fa0204"/>
 <path stroke-linejoin="round" d="m1930.2 1385.2c-4.6802-0.2433-8.7112 7.193-9.202 12.512-0.5141 5.5841 2.2105 14.139 7.1241 14.385 4.9582 0.2486 8.9401-8.046 9.2561-13.691 0.2944-5.2647-2.5557-12.966-7.1789-13.207z" stroke="#000" stroke-width="3.2046" fill="#fa0204"/>
 <path stroke-linejoin="round" d="m1921.1 1365.4c-4.6803-0.2433-8.7113 7.193-9.202 12.512-0.5141 5.584 2.2105 14.139 7.1241 14.385 4.9582 0.2487 8.9401-8.046 9.2561-13.691 0.2944-5.2647-2.5557-12.966-7.1789-13.206z" stroke="#000" stroke-width="3.2046" fill="#fa0204"/>
 <path stroke-linejoin="round" d="m1911 1347.5c-4.6803-0.2433-8.7113 7.193-9.202 12.512-0.5141 5.584 2.2105 14.139 7.1241 14.385 4.9582 0.2487 8.9401-8.046 9.2561-13.691 0.2944-5.2647-2.5557-12.966-7.1789-13.206z" stroke="#000" stroke-width="3.2046" fill="#fa0204"/>
 <path stroke-linejoin="round" d="m1902.8 1326.1c-4.6803-0.2433-8.7113 7.193-9.202 12.512-0.5142 5.5841 2.2105 14.139 7.124 14.385 4.9583 0.2486 8.9402-8.046 9.2562-13.691 0.2944-5.2647-2.5557-12.966-7.1789-13.207z" stroke="#000" stroke-width="3.2046" fill="#fa0204"/>
 <path stroke-linejoin="round" d="m1883.8 1304.6s-1.6473 26.676 8.0374 28.389c6.0386 1.0678 10.778-14.909 10.778-14.909z" stroke="#000" stroke-width="3.2046" fill="#fa0204"/>
 <path stroke-linejoin="round" d="m376.71 832.44a8.0608 8.0608 0 1 1 -16.122 0 8.0608 8.0608 0 1 1 16.122 0z" transform="matrix(1.6023 0 0 1.6023 1252.7 404.44)" stroke="#000" stroke-width="2" fill="#ce9d09"/>
 <path stroke-linejoin="round" d="m376.71 832.44a8.0608 8.0608 0 1 1 -16.122 0 8.0608 8.0608 0 1 1 16.122 0z" transform="matrix(1.6023 0 0 1.6023 1282.2 389.16)" stroke="#000" stroke-width="2" fill="#ce9d09"/>
 <path stroke-linejoin="round" d="m1859.3 1780-32.72-0.6458s-4.2451-26.612 16.145-27.769c16.924-0.96 17.252 28.363 16.575 28.415z" stroke="#000" stroke-width="3.2046" fill="#ce9d09"/>
 <path stroke-linejoin="round" d="m1869.4 1867c-4.9263-6.1908-40.227-8.8289-54.096-0.3918-5.02 0-18.541-93.848 29-91.528 43.656 2.13 28.129 92.354 25.096 91.92z" stroke="#000" stroke-width="3.2046" fill="#fa0204"/>
 <path stroke-linejoin="round" d="m1826 1810.4c-6.0928 21.218-4.6679 38.05 3.0137 51.233" stroke="#000" stroke-width="3.2046" fill="#fa0204"/>
 <path stroke-linejoin="round" d="m1838.4 1811.2c-1.7445 18.485-1.0951 35.601 5.1664 49.511" stroke="#000" stroke-width="3.2046" fill="#fa0204"/>
 <path stroke-linejoin="round" d="m1885.4 1791.9c7.0484 17.864 11.37 33.241 4.7358 53.386" stroke="#000" stroke-width="3.2046" fill="#fa0204"/>
 <path d="m314.39 228.09-0.36414 6.8525" transform="scale(5)" stroke="#000" stroke-width=".641" fill="#e6e6e6"/>
 <path stroke-linejoin="round" d="m430.76 227.9 0.34759 6.8194" transform="scale(5)" stroke="#000" stroke-width="0.641" fill="#e6e6e6"/>
 <path stroke-linejoin="round" d="m1854.6 765.2 8.3246-2.4376 8.3246 2.4376" stroke="#000" stroke-linecap="round" stroke-width="3.2046" fill="none"/>
 <path stroke-linejoin="round" d="m1729.6 870.98s5.2355 4.1792 8.284 3.9409c4.3781-0.34222 7.0627-5.2557 10.873-7.4393 4.8491-2.779 10.01-4.9928 15.165-7.1531 7.1244-2.9859 14.366-5.7274 21.746-8.0115 9.3031-2.8795 18.687-5.7644 28.326-7.1531 9.7306-1.4019 19.662-1.8086 29.471-1.1445 6.5952 0.44651 19.531 3.4335 19.531 3.4335s-5.5152 2.2361-8.0413 3.7832c-2.9104 1.7825-6.5552 3.225-8.0929 6.272-1.3068 2.5896-1.3575 6.039-0.2023 8.6998 1.3316 3.067 4.3896 5.4147 7.4859 6.6766 2.7349 1.1146 8.8506 0.40464 8.8506 0.40464s-7.0244 0.2662-9.4575 2.4279c-1.676 1.4889-2.5226 4.0321-2.4279 6.272 0.1299 3.0738 1.6165 6.4082 4.0464 8.2952 2.1073 1.6365 7.839 1.6186 7.839 1.6186s-2.9511 0.32309-4.3473-0.0657c-1.9206-0.53485-3.8839-1.4872-5.1663-3.0137-1.3289-1.5819-1.9572-3.7554-2.1527-5.8121-0.2065-2.1726-0.1835-4.676 1.0763-6.4579 1.0878-1.5385 4.9467-2.7354 4.9467-2.7354s-3.1245-0.79309-4.5161-1.5699c-2.1821-1.2181-5.8122-4.7358-5.8122-4.7358s-2.9754 0.0649-4.3053 0.64579c-2.9473 1.2874-5.7039 3.3828-7.5342 6.0274-1.8467 2.6682-3.5447 6.0552-3.0137 9.2564 0.5283 3.1854 3.2532 5.7801 5.8121 7.7495 2.5765 1.983 9.0411 3.6595 9.0411 3.6595s-0.2299 2.1811-0.861 3.0137c-2.1199 2.7969-5.589 4.562-8.965 5.5208-5.2265 1.4843-11.089 0.82833-16.299 0.0239-5.2657-0.81299-9.2309-2.2768-15.242-4.8488-2.0376-0.87183-3.8378-5.4316-3.8378-5.4316s4.3316-3.346 4.7358-5.8122c0.3967-2.42-0.9043-5.101-2.5831-6.8885-1.5612-1.6622-3.9626-2.8348-6.2427-2.7984-3.1125 0.0497-6.7792 1.4296-8.3953 4.09-1.4535 2.3925-0.9672 5.858 0.2152 8.3953 1.0521 2.2577 5.5969 4.9511 5.5969 4.9511-1.1633 4.7313-2.7885 7.1534-4.5206 9.0411-6.3144 3.6036-12.629 5.6211-18.943 7.5343l-3.6595-2.3679-2.5831-4.5206s3.7336-5.1662 3.8747-8.1801c0.1179-2.5168-1.1795-5.0113-2.5832-7.1037-1.1885-1.7717-2.7599-3.5006-4.7358-4.3053-1.8619-0.75831-4.0879-0.74455-6.0274-0.21526-2.9572 0.80703-7.7495 4.9511-7.7495 4.9511s-4.7391-3.7912-6.458-6.2427c-1.7149-2.4458-3.6595-8.1801-3.6595-8.1801z" stroke="#000" stroke-linecap="round" stroke-width="3.2046" fill="#fff"/>
</svg>
