<svg xmlns="http://www.w3.org/2000/svg" version="1.0" xmlns:xlink="http://www.w3.org/1999/xlink" viewBox="0 0 2880 1440">
 <rect width="2880" fill="#ce1126" height="1440"/>
 <rect width="1440" fill="#002b7f" height="720"/>
 <polygon points="0 -1 0.58778 0.80902 -0.95106 -0.30902 0.95106 -0.30902 -0.58778 0.80902" transform="translate(720 604.93) scale(105.15)" fill="#fff"/>
 <polygon id="p" points="0 -1 0.58778 0.80902 -0.95106 -0.30902 0.95106 -0.30902 -0.58778 0.80902" fill="#fff" transform="translate(500 292.92) scale(84.117 82.918)"/>
 <polygon points="0 -1 0.58778 0.80902 -0.95106 -0.30902 0.95106 -0.30902 -0.58778 0.80902" transform="translate(945 257.39) scale(78.86 77.39)" fill="#fff"/>
 <use y="-180" x="220" xlink:href="#p"/>
 <polygon points="0 -1 0.58778 0.80902 -0.95106 -0.30902 0.95106 -0.30902 -0.58778 0.80902" transform="translate(830 417.47) scale(52.573)" fill="#fff"/>
</svg>
