<svg viewBox="0 0 252 126" width="1008" xmlns="http://www.w3.org/2000/svg" xmlns:xlink="http://www.w3.org/1999/xlink" height="504">
 <rect width="252" fill="#319208" height="126"/>
 <rect y="18" width="252" fill="#FFD200" height="90"/>
 <rect y="36" width="252" fill="#DE2010" height="54"/>
 <rect y="54" width="252" height="18"/>
 <path d="m4.5826 0l84 63-84 63h-4.583v-126z"/>
 <comment>value has to be sqrt(21)</comment>
 <path d="m0 0l84 63-84 63" fill="#FFF"/>
 <g fill="#DE2010">
  <g transform="translate(34,63) scale(32)">
   <polygon id="triangle_ur" points="0 0 0 1 0.75 1" transform="translate(0 -1) rotate(26.268)"/>
   <use id="triangle_ul" xlink:href="#triangle_ur" transform="scale(-1,1)"/>
   <polygon id="triangle2_ur" points="0 0 0 1 0.75 1" transform="translate(0 -1) rotate(19.58)"/>
   <use id="triangle2_ul" xlink:href="#triangle2_ur" transform="scale(-1,1)"/>
   <use xlink:href="#triangle_ur" transform="rotate(72)"/>
   <use xlink:href="#triangle_ul" transform="rotate(-72)"/>
   <use xlink:href="#triangle2_ur" transform="rotate(72)"/>
   <use xlink:href="#triangle2_ul" transform="rotate(-72)"/>
  </g>
  <g transform="translate(34,63) scale(27.5)">
   <g id="cone_l">
    <polygon id="triangle_l" points="0 0 0 1 0.5 1" transform="translate(0 -1) rotate(24.225)"/>
    <use xlink:href="#triangle_l" transform="scale(-1,1)"/>
   </g>
   <use xlink:href="#cone_l" transform="rotate(144)"/>
   <use xlink:href="#cone_l" transform="rotate(216)"/>
  </g>
 </g>
 <path d="m28.635 55.109c1.977 4.306 2.471 4.588 7.411 6.282 4.941 1.694 18.898 3.299 20.274 3.458-0.9-0.9-16.621-12.545-19.85-14.874s-4.129-3.388-4.129-3.388-2.912-5.241-3.917-6.776c-1.006-1.535-2.859-3.705-5.294-3.705s-3.917 1.429-4.623 3.97c-0.388 0.106-2.47 1.376-2.399 2.682 0.6-0.071 4.376-1.129 5.681 3.141 1.306 4.27 1.377 11.257 0.036 14.716-1.341 3.458-3.424 6.069-3.424 9.104 0 0.424 0.283 1.271 0.989 1.271 0.247 1.341 2.223 10.904 2.223 10.904h28.161l4.473-17.292" fill="#ffc618"/>
 <g stroke-width=".21174" stroke="#000" fill="none">
  <path d="m28.635 55.109c1.977 4.306 2.471 4.588 7.411 6.282 4.941 1.694 18.898 3.299 20.274 3.458-0.9-0.9-16.621-12.545-19.85-14.874s-4.129-3.388-4.129-3.388-2.912-5.241-3.917-6.776c-1.006-1.535-2.859-3.705-5.294-3.705s-3.917 1.429-4.623 3.97c-0.388 0.106-2.47 1.376-2.399 2.682 0.6-0.071 4.376-1.129 5.681 3.141 1.306 4.27 1.377 11.257 0.036 14.716-1.341 3.458-3.424 6.069-3.424 9.104 0 0.424 0.283 1.271 0.989 1.271 0.247 1.341 2.223 10.904 2.223 10.904h28.161l4.473-17.292"/>
  <path d="m19.39 70.99s5.999-0.353 7.622-0.353 16.734 0.019 25.165 1.968"/>
  <path d="m21.508 70.871s-0.601-0.728-0.213-2.175 4.623-5.188 4.623-10.481"/>
  <path d="m25.142 70.637s-0.494-2.365 4.905-4.376c1.518-0.459 5.858-2.894 5.999-4.87"/>
  <path d="m29.473 66.485s13.243 0.058 23.724 2.176"/>
  <path d="m32.793 64.905s4.55 0.156 5.291-0.056c0.741-0.211 2.053-0.762 2.575-2.313"/>
  <path d="m35.49 64.959s2.435-1.265 2.911-2.911"/>
  <path d="m28.141 81.894s-1.041-7.216-1.252-11.257l2.717 2.594 2.875-2.515 2.471 2.638 2.858-2.425 2.471 2.778 2.83-2.407 2.252 2.619 2.822-2.041 3.355 3.189"/>
  <path d="m50.951 77.345c-10.081-1.444-23.571-1.35-23.571-1.35"/>
  <path d="m22.694 51.052s8.2-3.918 9.647-4.465"/>
 </g>
 <g transform="matrix(.21174 0 0 .21174 16 36)" stroke="#000" fill="none">
  <polyline points="52.487 177.09 65.505 188.94 77.267 177.18 89.163 189.44 102.01 178.08 113.84 190.51 127.17 179.5 138.07 192.23 151.34 182.08 165.29 194.4"/>
  <circle cy="154.58" cx="89.425" r="5.1665"/>
  <circle cy="156.05" cx="111.24" r="5.1665"/>
  <circle cy="16.5" cx="30.05" r="4"/>
 </g>
</svg>
